{"glyphs":{"0":{"ha":686,"x_min":40,"x_max":646,"o":"m 646 486 q 627 285 646 378 q 572 124 609 192 q 477 17 534 56 q 343 -22 420 -22 q 207 17 264 -22 q 113 124 150 56 q 58 285 76 192 q 40 486 40 378 q 57 687 40 594 q 111 847 75 779 q 205 954 148 916 q 343 993 262 993 q 484 954 426 993 q 577 847 541 916 q 629 687 613 779 q 646 486 646 594 m 468 486 q 459 668 468 593 q 433 789 450 743 q 394 858 417 836 q 343 879 371 879 q 295 853 317 879 q 255 779 273 828 q 228 655 238 729 q 218 486 218 582 q 227 307 218 382 q 252 185 236 233 q 292 114 269 137 q 343 92 315 92 q 392 113 370 92 q 432 180 415 134 q 458 302 449 227 q 468 486 468 378 z "},"1":{"ha":395,"x_min":-5,"x_max":340,"o":"m 340 7 l 161 -11 q 164 83 163 35 q 165 179 165 132 q 167 273 166 227 q 168 359 168 319 q 168 547 168 456 l 165 733 l 113 640 l -5 741 q 14 768 3 752 q 39 801 26 783 q 65 837 52 819 q 92 873 79 856 q 154 960 121 915 l 325 968 q 322 882 323 926 q 321 796 321 838 q 320 714 320 753 q 319 642 319 675 q 319 593 319 615 q 320 556 319 572 q 321 524 320 538 q 323 358 321 445 q 326 279 324 321 q 330 192 328 237 q 334 100 332 146 q 340 7 337 53 z "},"2":{"ha":596,"x_min":31,"x_max":561,"o":"m 542 155 q 541 148 541 152 q 541 139 541 144 q 541 126 541 134 q 542 76 541 108 q 549 -1 543 43 q 445 0 493 0 q 354 0 397 0 q 210 -1 269 0 q 111 -4 150 -3 q 37 -8 66 -6 q 37 -3 37 -6 q 36 4 36 0 q 36 14 36 8 q 41 79 36 37 q 65 174 47 121 q 121 287 84 227 q 221 406 158 347 q 291 477 258 441 q 348 555 323 514 q 386 642 372 595 q 400 743 400 688 q 391 818 400 788 q 367 864 382 847 q 332 889 352 882 q 289 896 312 896 q 269 892 279 895 q 249 884 260 890 q 228 869 238 879 q 244 841 238 856 q 253 813 250 826 q 257 783 256 798 q 248 742 257 760 q 223 712 238 724 q 191 694 209 700 q 157 688 174 688 q 122 691 144 688 q 81 709 101 695 q 45 749 60 722 q 31 821 31 775 q 51 902 31 865 q 107 964 72 938 q 188 1004 142 990 q 285 1018 234 1018 q 385 1000 335 1018 q 473 947 434 983 q 536 860 512 912 q 561 737 561 807 q 537 588 561 652 q 479 472 514 523 q 402 379 444 420 q 323 298 360 337 q 249 200 275 248 q 211 121 222 153 q 340 128 280 123 q 446 139 401 134 q 516 149 490 144 q 542 155 542 154 z "},"3":{"ha":607,"x_min":36,"x_max":567,"o":"m 227 558 q 229 557 227 557 q 237 557 231 557 q 264 559 248 557 q 299 568 280 561 q 336 590 317 576 q 370 628 355 604 q 395 688 385 652 q 404 772 404 723 q 394 822 404 800 q 368 861 384 845 q 333 887 352 878 q 294 896 313 896 q 274 892 284 895 q 254 884 265 890 q 233 869 243 879 q 249 841 243 856 q 258 813 255 826 q 262 783 262 798 q 253 742 262 760 q 229 712 243 724 q 197 694 214 700 q 163 688 179 688 q 128 691 149 688 q 86 709 106 695 q 51 749 66 722 q 36 821 36 775 q 57 902 36 865 q 112 964 77 938 q 193 1004 147 990 q 290 1018 239 1018 q 391 1000 341 1018 q 479 947 440 983 q 543 860 518 912 q 567 737 567 807 q 554 649 567 689 q 519 577 541 609 q 471 523 498 546 q 416 484 444 499 q 471 452 444 471 q 519 405 498 432 q 554 340 541 377 q 567 257 567 304 q 543 135 567 187 q 479 47 518 82 q 391 -6 440 12 q 290 -24 341 -24 q 193 -10 239 -24 q 112 30 147 4 q 57 93 77 56 q 36 174 36 129 q 51 245 36 219 q 86 286 66 272 q 128 303 106 299 q 163 307 149 307 q 197 301 179 307 q 229 282 214 294 q 253 252 243 270 q 262 211 262 234 q 259 181 262 196 q 250 153 256 168 q 233 125 244 138 q 254 110 243 115 q 274 102 265 104 q 294 98 284 99 q 333 107 313 98 q 368 133 352 117 q 394 172 384 149 q 404 222 404 195 q 394 308 404 273 q 368 368 384 344 q 332 405 351 391 q 293 426 312 418 q 258 434 274 433 q 233 436 242 436 l 227 436 l 227 558 z "},"4":{"ha":599,"x_min":11,"x_max":568,"o":"m 342 -11 q 345 106 343 45 q 346 231 346 167 l 14 231 l 11 338 q 37 382 20 349 q 76 462 54 416 q 123 564 98 509 q 174 676 149 620 q 302 968 233 808 l 505 968 q 503 882 504 926 q 501 796 502 838 q 500 714 500 753 q 500 642 500 675 q 500 500 500 563 q 503 376 501 437 l 568 376 l 568 231 l 509 231 q 514 121 511 178 q 521 7 517 64 l 342 -11 m 347 482 q 347 603 347 544 q 346 718 347 663 l 192 376 l 347 376 l 347 482 z "},"5":{"ha":623,"x_min":37,"x_max":590,"o":"m 297 -29 q 199 -15 246 -29 q 116 26 153 -1 q 59 96 80 54 q 37 195 37 138 q 51 267 37 238 q 83 314 64 296 q 125 339 103 332 q 167 346 148 346 q 208 340 186 346 q 247 319 229 334 q 275 281 264 305 q 286 221 286 257 q 277 182 285 200 q 256 151 271 166 q 216 129 242 136 q 261 95 236 107 q 304 83 287 83 q 346 95 323 83 q 389 131 369 106 q 421 195 408 156 q 435 292 435 235 q 428 359 435 328 q 406 416 422 390 q 362 463 389 441 q 293 503 334 484 q 261 514 279 509 q 225 522 244 519 q 186 528 206 526 q 148 532 166 531 q 58 536 104 536 l 87 942 q 131 950 102 946 q 194 957 159 954 q 269 963 229 960 q 349 968 309 966 q 549 979 441 975 l 542 819 q 513 820 532 819 q 470 820 494 820 q 417 821 446 821 q 361 822 389 821 q 218 825 296 823 l 208 669 q 262 665 237 667 q 313 657 288 663 q 364 643 338 652 q 418 616 390 633 q 548 492 506 562 q 590 328 590 421 q 569 198 590 262 q 510 84 548 134 q 417 2 471 33 q 297 -29 363 -29 z "},"6":{"ha":663,"x_min":39,"x_max":628,"o":"m 628 267 q 610 134 628 192 q 558 36 593 76 q 474 -24 524 -3 q 358 -45 424 -45 q 226 -11 285 -45 q 125 90 167 22 q 61 257 83 157 q 39 493 39 358 q 67 724 39 628 q 144 880 96 819 q 252 969 191 941 q 376 997 313 997 q 485 978 440 997 q 557 931 529 960 q 597 868 585 903 q 610 803 610 834 q 601 748 610 772 q 576 710 591 725 q 543 687 562 694 q 505 679 524 679 q 469 684 487 679 q 437 700 451 688 q 415 731 424 712 q 407 779 407 751 q 410 807 408 793 q 419 832 413 819 q 436 859 425 846 q 414 876 426 870 q 390 886 401 882 q 364 890 377 889 q 311 867 338 890 q 262 797 284 844 q 225 675 239 749 q 210 500 210 602 q 293 572 246 548 q 387 596 339 596 q 477 575 433 596 q 554 513 520 554 q 608 410 587 471 q 628 267 628 348 m 363 66 q 441 119 413 66 q 469 267 469 172 q 460 347 469 311 q 436 409 452 383 q 399 450 420 435 q 354 464 378 464 q 286 439 321 464 q 214 357 250 414 q 234 228 220 283 q 268 138 248 174 q 312 84 288 102 q 363 66 336 66 z "},"7":{"ha":479,"x_min":20,"x_max":464,"o":"m 20 965 q 174 969 100 967 q 238 971 205 970 q 303 972 272 972 q 363 974 335 973 q 412 974 391 974 q 446 974 433 974 q 458 972 458 974 q 459 964 458 971 q 459 945 459 956 q 460 921 460 935 q 461 893 460 907 q 464 819 463 861 q 421 703 443 770 q 378 560 399 635 q 337 405 357 484 q 301 250 317 325 q 274 108 286 174 q 257 -7 262 41 l 85 0 q 105 120 92 55 q 136 255 119 185 q 174 398 153 325 q 218 542 195 471 q 265 682 241 614 q 313 810 289 749 l 20 800 l 20 965 z "},"8":{"ha":633,"x_min":40,"x_max":593,"o":"m 317 -24 q 216 -6 266 -24 q 128 47 167 12 q 64 135 89 82 q 40 257 40 187 q 53 340 40 304 q 88 405 66 377 q 136 452 109 432 q 191 484 163 471 q 136 523 163 499 q 88 577 109 546 q 53 649 66 609 q 40 737 40 689 q 64 860 40 807 q 128 947 89 912 q 216 1000 167 983 q 317 1018 266 1018 q 417 1000 368 1018 q 505 947 466 983 q 569 860 545 912 q 593 737 593 807 q 580 649 593 689 q 546 577 567 609 q 497 523 524 546 q 443 484 471 499 q 497 452 471 471 q 546 405 524 432 q 580 340 567 377 q 593 257 593 304 q 569 135 593 187 q 505 47 545 82 q 417 -6 466 12 q 317 -24 368 -24 m 431 772 q 420 822 431 800 q 394 861 410 845 q 359 887 378 878 q 321 896 340 896 q 278 887 299 896 q 240 861 256 878 q 213 822 223 845 q 203 772 203 800 q 213 680 203 718 q 240 614 224 641 q 277 572 257 588 q 317 547 297 556 q 356 573 336 557 q 392 616 376 589 q 420 681 409 643 q 431 772 431 720 m 203 222 q 214 172 203 195 q 241 133 224 149 q 279 107 258 117 q 321 98 300 98 q 359 107 340 98 q 394 133 378 117 q 420 172 410 149 q 431 222 431 195 q 420 310 431 273 q 393 372 410 347 q 356 412 376 397 q 317 435 336 427 q 277 412 297 427 q 240 372 257 397 q 213 311 224 347 q 203 222 203 274 z "},"9":{"ha":663,"x_min":35,"x_max":624,"o":"m 35 686 q 52 819 35 761 q 104 916 70 876 q 188 976 138 956 q 304 997 239 997 q 437 964 378 997 q 537 863 496 930 q 602 695 579 796 q 624 460 624 595 q 595 229 624 325 q 519 73 566 134 q 411 -17 471 12 q 286 -45 350 -45 q 178 -26 222 -45 q 106 21 134 -7 q 65 84 78 50 q 53 150 53 119 q 62 204 53 181 q 86 243 71 228 q 120 266 101 258 q 157 273 138 273 q 193 269 176 273 q 225 252 211 264 q 247 221 239 241 q 256 174 256 202 q 252 145 255 159 q 243 119 250 133 q 227 94 237 106 q 249 76 236 82 q 273 66 261 70 q 298 62 286 63 q 352 85 325 62 q 400 155 378 108 q 437 276 422 203 q 453 452 452 350 q 369 379 415 403 q 273 355 322 355 q 185 376 228 355 q 109 439 142 397 q 55 543 75 481 q 35 686 35 604 m 300 886 q 221 834 250 886 q 193 686 193 781 q 202 606 193 642 q 225 543 210 569 q 262 503 241 517 q 309 489 283 489 q 376 514 340 489 q 447 595 412 539 q 427 723 441 669 q 394 814 414 778 q 351 868 375 850 q 300 886 327 886 z "}," ":{"ha":292,"x_min":0,"x_max":0,"o":""},"@":{"ha":872,"x_min":37,"x_max":843,"o":"m 843 422 q 833 312 843 359 q 807 232 823 265 q 768 179 790 199 q 724 146 747 158 q 677 130 701 134 q 633 126 654 126 q 557 147 585 126 q 513 204 528 168 q 478 171 498 182 q 441 153 458 159 q 399 146 420 146 q 341 157 367 146 q 298 195 316 169 q 271 261 280 220 q 261 361 261 302 q 275 461 261 422 q 312 522 289 500 q 366 552 336 544 q 428 561 395 561 q 448 557 437 560 q 469 549 458 555 q 493 532 481 543 q 493 558 493 545 q 494 583 493 572 l 615 574 q 607 487 610 529 q 601 411 604 450 q 599 342 599 371 q 600 291 599 317 q 604 244 600 265 q 616 210 608 223 q 640 196 625 196 q 670 211 656 196 q 694 253 684 225 q 711 323 705 281 q 717 418 717 364 q 705 526 717 473 q 664 620 694 578 q 584 685 635 661 q 456 710 534 710 q 241 621 311 710 q 171 358 171 532 q 227 124 171 204 q 404 32 283 43 l 404 -57 q 259 -37 319 -57 q 158 16 199 -18 q 94 93 117 50 q 57 185 70 137 q 41 283 45 234 q 37 378 37 333 q 56 517 37 456 q 105 624 74 578 q 179 702 137 670 q 269 753 221 733 q 367 781 316 772 q 465 790 417 790 q 541 785 500 790 q 625 766 583 780 q 706 726 667 751 q 776 659 745 700 q 825 560 806 618 q 843 422 843 502 m 492 432 q 474 465 484 453 q 456 481 465 476 q 435 489 446 488 q 413 479 422 489 q 397 453 404 470 q 387 412 391 435 q 383 361 383 389 q 386 310 383 334 q 395 269 389 286 q 411 241 401 251 q 435 231 420 231 q 452 239 443 231 q 471 258 460 245 q 493 294 481 271 q 492 308 492 300 q 492 331 492 316 q 492 369 492 345 q 492 432 492 393 z "},"A":{"ha":640,"x_min":49,"x_max":591,"o":"m 64 81 q 61 185 64 133 q 56 290 59 237 q 51 396 54 342 q 49 504 49 449 q 53 621 49 562 q 67 735 56 680 q 97 839 78 791 q 146 924 116 888 q 221 981 177 960 q 325 1002 265 1002 q 424 984 382 1002 q 495 935 466 966 q 544 861 525 903 q 573 770 562 819 q 587 669 583 722 q 591 564 591 616 q 591 540 591 550 q 590 518 591 530 q 589 490 590 506 q 587 447 588 473 q 584 383 585 421 q 580 290 582 345 q 575 158 578 234 q 570 -18 572 83 l 367 -11 q 388 144 378 66 q 403 289 397 222 q 306 293 351 293 q 262 292 283 293 q 227 290 242 292 q 231 216 229 255 q 237 136 234 176 q 245 57 241 96 q 254 -17 249 18 l 62 -22 q 64 29 64 3 q 64 81 64 55 m 218 433 q 258 432 239 432 q 297 432 278 432 q 414 436 370 432 q 422 533 418 484 q 427 637 427 582 q 402 816 427 755 q 332 878 378 878 q 284 859 306 878 q 247 803 262 841 q 221 706 231 764 q 212 568 212 648 q 214 509 212 541 q 218 433 216 477 z "},"B":{"ha":664,"x_min":53,"x_max":635,"o":"m 635 268 q 611 153 631 201 q 559 70 591 104 q 488 15 528 36 q 408 -19 448 -7 q 329 -36 368 -31 q 260 -40 290 -40 q 152 -37 202 -40 q 53 -25 101 -33 q 60 69 57 18 q 64 173 62 120 q 67 278 66 227 q 68 373 68 330 q 69 449 69 417 q 69 496 69 481 q 66 683 68 593 q 65 762 66 722 q 63 841 64 802 q 60 913 62 879 q 57 974 59 947 q 99 978 76 977 q 144 980 121 979 q 189 982 167 981 q 229 982 211 982 q 384 970 311 982 q 512 928 457 958 q 598 850 566 899 q 629 729 629 802 q 608 646 626 685 q 588 612 600 629 q 558 579 576 595 q 517 550 541 564 q 463 528 493 536 q 536 493 507 516 q 586 442 566 470 q 615 384 605 414 q 629 329 625 354 q 634 287 633 304 q 635 268 635 270 m 444 261 q 425 363 442 318 q 407 401 418 382 q 379 434 395 420 q 340 458 363 449 q 289 467 318 467 q 273 466 281 467 q 256 464 265 465 l 250 81 q 290 77 271 77 q 340 84 319 77 q 378 105 361 92 q 405 135 394 119 q 424 169 416 151 q 444 261 441 210 m 441 733 q 422 801 439 771 q 405 826 416 814 q 379 848 395 838 q 343 863 364 857 q 296 869 323 869 q 248 865 274 869 l 256 578 l 271 578 q 342 589 313 578 q 390 617 371 600 q 419 653 409 633 q 435 690 430 673 q 440 719 439 707 q 441 733 441 731 z "},"C":{"ha":646,"x_min":32,"x_max":629,"o":"m 629 204 q 606 93 629 140 q 547 15 583 46 q 468 -31 511 -16 q 385 -46 425 -46 q 255 -16 318 -46 q 142 78 192 14 q 62 243 92 142 q 32 485 32 344 q 46 653 32 579 q 86 783 61 727 q 144 879 111 840 q 216 944 178 919 q 296 980 255 968 q 378 991 338 991 q 482 975 438 991 q 554 931 526 958 q 596 872 583 905 q 610 808 610 840 q 601 752 610 777 q 578 711 593 728 q 545 685 564 694 q 503 676 525 676 q 465 683 484 676 q 431 703 446 690 q 407 734 416 715 q 397 777 397 753 q 401 805 398 790 q 409 833 404 818 q 427 864 415 848 q 405 879 416 873 q 384 888 393 885 q 361 892 372 890 q 314 876 334 892 q 279 830 294 859 q 254 762 264 802 q 238 677 243 723 q 229 580 232 631 q 227 478 227 530 q 235 326 227 401 q 263 192 243 251 q 314 96 282 132 q 393 60 347 60 q 445 76 422 62 q 465 91 455 82 q 482 114 474 100 q 495 146 490 128 q 501 189 500 165 q 475 184 490 184 q 443 192 458 184 q 416 211 428 199 q 396 241 404 224 q 389 279 389 258 q 403 332 389 311 q 437 365 418 353 q 474 382 456 377 q 500 387 492 387 q 517 386 505 387 q 543 378 528 384 q 573 360 557 372 q 601 328 588 348 q 621 277 613 307 q 629 204 629 247 z "},"D":{"ha":663,"x_min":52,"x_max":629,"o":"m 629 465 q 609 274 629 355 q 555 137 588 194 q 482 45 523 81 q 401 -9 441 10 q 324 -36 360 -28 q 265 -43 288 -43 q 241 -42 260 -43 q 195 -39 222 -41 q 134 -32 168 -37 q 62 -18 100 -27 q 64 215 63 116 q 66 385 65 313 q 67 504 66 456 q 68 587 68 552 q 69 646 68 621 q 69 694 69 671 q 68 771 69 732 q 66 848 68 811 q 60 918 64 886 q 52 974 57 951 q 148 978 104 977 q 224 979 192 979 q 365 960 304 979 q 471 906 426 941 q 546 824 516 872 q 595 720 576 777 q 622 598 614 663 q 629 465 629 533 m 453 486 q 442 682 453 606 q 406 800 431 758 q 341 857 381 842 q 245 872 302 872 l 225 872 l 233 75 q 259 68 247 70 q 282 66 271 66 q 360 88 328 66 q 413 158 392 109 q 443 288 433 208 q 453 486 453 368 z "},"E":{"ha":551,"x_min":49,"x_max":532,"o":"m 532 -16 q 430 -14 477 -14 q 340 -14 382 -14 q 203 -15 258 -14 q 113 -18 148 -17 q 49 -22 73 -20 q 57 69 54 23 q 64 160 61 115 q 68 246 66 205 q 72 324 71 288 q 75 488 75 410 q 72 654 75 569 q 68 731 71 691 q 64 814 66 772 q 57 898 61 856 q 49 981 54 941 q 200 976 134 977 q 319 974 267 974 q 408 975 371 974 q 469 977 446 976 q 515 981 497 979 q 515 968 515 981 q 516 935 515 956 q 518 887 517 913 q 524 833 520 861 q 386 843 445 841 q 285 846 327 846 q 254 846 267 846 q 229 844 241 846 q 227 703 228 769 q 227 578 227 637 q 311 582 274 579 q 375 587 349 584 q 429 595 406 591 q 429 584 429 590 q 428 571 428 578 q 428 554 428 564 q 429 502 428 532 q 435 437 431 472 q 309 449 361 447 q 227 452 256 452 q 227 326 227 381 q 229 229 228 271 q 231 157 230 186 q 233 107 232 127 q 357 114 302 109 q 448 125 411 119 q 505 136 486 131 q 525 142 525 140 q 524 134 524 138 q 524 125 524 131 q 524 113 524 120 q 525 62 524 94 q 532 -16 526 30 z "},"F":{"ha":528,"x_min":49,"x_max":524,"o":"m 524 833 q 386 843 445 841 q 285 846 327 846 q 253 846 266 846 q 228 844 239 846 l 228 578 q 312 582 275 579 q 375 587 349 584 q 429 595 406 591 q 429 584 429 590 q 428 571 428 578 q 428 554 428 564 q 429 502 428 532 q 435 437 431 472 q 311 449 363 447 q 229 452 258 452 q 234 232 231 322 q 242 87 238 142 q 252 -20 246 21 q 222 -17 239 -18 q 186 -16 205 -16 q 138 -17 162 -16 q 94 -19 113 -18 q 49 -22 71 -21 q 57 69 54 23 q 64 160 61 115 q 68 246 66 205 q 72 324 71 288 q 75 488 75 410 q 72 654 75 569 q 68 731 71 691 q 64 814 66 772 q 57 898 61 856 q 49 981 54 941 q 200 976 134 977 q 319 974 267 974 q 408 975 371 974 q 469 977 446 976 q 515 981 497 979 q 515 968 515 981 q 516 935 515 956 q 518 887 517 913 q 524 833 520 861 z "},"G":{"ha":657,"x_min":32,"x_max":621,"o":"m 621 220 q 605 122 621 170 q 558 37 590 75 q 479 -22 527 0 q 366 -45 431 -45 q 239 -11 299 -45 q 133 90 178 22 q 59 257 87 157 q 32 493 32 358 q 61 724 32 628 q 137 880 90 819 q 245 969 184 941 q 370 997 306 997 q 478 978 433 997 q 550 931 522 960 q 590 868 578 903 q 603 803 603 834 q 594 748 603 772 q 570 710 585 725 q 536 687 555 694 q 498 679 517 679 q 462 684 480 679 q 431 700 444 688 q 409 731 417 712 q 400 779 400 751 q 404 807 401 793 q 412 832 406 819 q 429 859 418 846 q 407 876 419 870 q 383 886 395 882 q 357 890 370 889 q 313 867 339 890 q 262 793 287 843 q 220 666 238 743 q 203 484 203 589 q 220 297 203 377 q 264 162 238 216 q 321 80 291 108 q 376 53 351 53 q 451 98 427 53 q 476 239 476 144 q 474 284 476 260 q 469 329 473 304 q 460 379 466 354 q 401 370 436 376 q 319 355 366 365 q 329 418 327 386 q 332 478 332 450 q 331 503 332 492 q 330 523 331 515 q 329 541 330 532 q 376 534 349 536 q 433 529 399 531 q 510 528 467 528 q 558 528 533 528 q 612 530 584 528 q 608 472 608 502 q 610 418 608 446 q 614 358 612 389 q 618 293 616 327 q 621 220 621 258 z "},"H":{"ha":644,"x_min":46,"x_max":589,"o":"m 235 -24 q 139 -25 176 -24 q 82 -27 103 -26 q 46 -31 58 -29 q 56 51 52 7 q 63 138 60 94 q 68 227 66 183 q 72 311 71 271 q 75 500 75 406 q 72 682 75 594 q 68 760 71 720 q 64 839 66 800 q 57 913 61 878 q 49 977 54 948 l 93 977 q 156 978 130 977 q 200 980 182 979 q 235 983 220 981 q 229 847 231 916 q 225 716 227 779 q 223 603 224 654 q 222 517 222 551 q 264 515 244 515 q 304 515 285 515 q 380 517 347 515 q 435 521 413 519 q 434 550 435 525 q 433 614 434 576 q 431 701 433 653 q 427 799 429 749 q 420 895 424 848 q 410 977 416 941 l 453 977 q 513 978 488 977 q 555 980 538 979 q 589 983 575 981 q 585 894 587 939 q 582 805 583 849 q 581 721 581 762 q 579 643 580 680 q 578 478 578 557 q 579 318 578 399 q 581 245 580 283 q 582 167 581 207 q 585 88 583 127 q 589 12 587 49 q 496 11 532 12 q 441 9 461 10 q 407 5 418 7 q 417 94 413 47 q 424 189 421 140 q 429 283 427 237 q 432 371 431 330 q 370 375 399 374 q 313 376 340 376 q 261 376 284 376 q 222 374 239 375 q 223 289 222 337 q 225 188 224 241 q 229 81 227 136 q 235 -24 231 26 z "},"I":{"ha":290,"x_min":54,"x_max":240,"o":"m 240 -7 l 61 -25 q 63 70 62 20 q 65 168 64 119 q 66 263 66 216 q 67 353 67 311 q 68 547 68 452 q 66 713 67 633 q 64 783 65 747 q 62 853 63 819 q 59 919 60 888 q 54 974 57 949 l 225 982 q 223 896 224 940 q 221 807 222 851 q 220 723 220 764 q 220 647 220 682 q 224 310 220 470 q 240 -7 229 149 z "},"J":{"ha":600,"x_min":7,"x_max":553,"o":"m 553 974 q 544 844 547 900 q 539 746 541 789 q 537 669 537 703 q 537 606 536 636 q 539 547 538 576 q 542 483 541 517 q 544 405 543 448 q 545 304 545 362 q 531 174 545 237 q 485 62 517 111 q 397 -16 452 14 q 260 -45 342 -45 q 173 -33 211 -45 q 107 -2 136 -22 q 60 44 79 18 q 29 100 41 71 q 12 160 17 130 q 7 220 7 191 q 19 283 7 258 q 50 323 32 308 q 87 344 68 338 q 121 350 106 350 q 156 344 136 350 q 194 325 176 338 q 225 288 212 311 q 237 233 237 266 q 227 186 236 208 q 201 150 218 168 q 151 125 184 132 q 179 93 163 105 q 210 75 194 81 q 240 67 226 69 q 264 65 254 65 q 321 80 300 65 q 355 120 343 94 q 370 181 366 146 q 374 257 374 216 q 373 440 374 349 q 371 619 373 530 q 364 796 369 708 q 350 971 359 884 q 369 968 357 970 q 425 966 387 966 q 481 968 449 966 q 553 974 513 969 z "},"K":{"ha":642,"x_min":49,"x_max":648,"o":"m 245 -24 q 215 -23 230 -24 q 186 -22 201 -22 q 132 -23 157 -22 q 89 -25 107 -24 q 49 -28 66 -26 q 64 170 58 74 q 72 342 69 267 q 75 510 75 431 q 73 668 75 587 q 70 741 71 703 q 65 819 68 779 q 59 899 63 859 q 52 977 56 939 q 104 974 80 975 q 150 974 129 974 q 189 974 172 974 q 219 975 207 975 q 244 977 233 976 q 235 810 238 892 q 230 664 231 729 q 228 519 228 588 l 228 478 q 305 589 270 530 q 365 713 340 649 q 404 843 390 777 q 418 972 418 909 l 418 994 l 648 974 q 545 788 589 869 q 469 650 500 708 q 418 553 437 591 q 387 492 398 514 q 465 456 435 479 q 511 404 494 433 q 535 338 528 374 q 547 264 543 302 q 554 188 551 227 q 568 113 558 149 q 584 69 574 92 q 607 25 593 50 q 643 -24 621 1 l 452 -28 q 426 14 436 -12 q 411 64 416 39 q 401 126 404 94 q 397 199 398 163 q 393 267 396 235 q 383 325 390 298 q 361 371 376 352 q 322 401 347 391 q 258 412 297 412 q 243 412 251 412 q 228 410 236 411 q 234 225 230 336 q 245 -24 237 113 z "},"L":{"ha":532,"x_min":47,"x_max":517,"o":"m 517 -43 q 425 -41 468 -41 q 343 -41 381 -41 q 211 -43 266 -41 q 119 -46 155 -45 q 47 -50 77 -48 q 56 42 52 -5 q 62 134 60 89 q 67 222 65 180 q 71 303 69 265 q 74 473 73 391 q 71 640 73 555 q 67 717 69 677 q 62 800 65 758 q 56 884 60 842 q 47 966 52 926 l 248 977 q 230 681 235 823 q 225 419 225 539 q 228 222 225 304 q 232 97 230 140 l 235 97 q 338 105 288 97 q 429 123 389 113 q 517 150 475 135 q 516 131 516 142 q 515 106 515 121 q 515 69 515 91 q 515 20 515 47 q 517 -43 515 -7 z "},"M":{"ha":846,"x_min":39,"x_max":802,"o":"m 802 -17 l 615 -31 q 625 134 621 59 q 630 263 629 208 q 632 379 632 327 q 631 434 632 404 q 630 496 631 460 q 627 575 629 532 q 596 434 609 493 q 574 336 583 374 q 558 260 564 290 q 541 177 549 218 q 528 102 534 142 q 519 29 522 62 l 346 31 q 317 200 332 119 q 287 356 302 281 q 256 504 272 432 q 222 646 240 575 q 218 523 219 578 q 216 428 216 468 q 222 210 216 313 q 239 5 229 106 l 39 0 q 47 105 43 49 q 53 220 50 162 q 56 334 55 278 q 58 439 58 390 q 59 526 59 488 q 60 585 60 564 q 59 671 60 623 q 58 771 59 720 q 56 872 57 823 q 52 960 54 921 q 113 958 84 958 q 168 957 142 957 q 271 959 234 957 q 309 961 292 960 q 329 793 318 875 q 354 633 340 711 q 384 477 368 554 q 418 323 399 400 q 465 492 442 410 q 505 656 487 575 q 537 816 524 736 q 558 974 551 895 q 605 972 583 972 q 646 971 627 971 q 711 972 684 971 q 755 976 738 974 q 789 981 776 978 q 780 840 783 909 q 775 707 777 770 q 773 591 773 644 q 772 503 772 538 q 773 456 772 488 q 774 383 773 425 q 778 290 776 340 q 783 187 780 240 q 791 82 786 134 q 802 -17 795 30 z "},"N":{"ha":697,"x_min":53,"x_max":644,"o":"m 644 996 q 638 881 641 941 q 634 762 636 822 q 632 645 633 703 q 630 536 631 587 q 629 444 629 486 q 629 372 629 401 q 629 288 629 334 q 630 193 629 242 q 632 95 631 144 q 635 3 633 46 q 582 4 606 4 q 538 4 557 4 q 479 3 503 4 q 443 1 456 3 q 418 -1 427 0 q 409 43 416 13 q 393 115 403 73 q 370 206 383 156 q 343 311 357 256 q 313 421 328 365 q 282 530 297 477 q 252 631 267 583 q 225 717 237 679 q 217 556 220 630 q 213 428 214 483 q 211 311 211 364 q 213 215 211 266 q 218 116 214 172 q 229 3 222 60 q 143 5 177 5 q 90 5 110 5 l 57 5 q 62 212 60 127 q 65 354 64 296 q 67 446 66 411 q 67 502 67 480 q 67 536 67 523 q 66 562 66 549 q 66 643 66 596 q 64 744 66 690 q 60 856 63 798 q 53 971 58 914 q 167 972 122 971 q 238 975 212 974 q 286 979 269 977 q 300 911 290 958 q 325 805 311 865 q 358 673 340 744 q 396 531 376 603 q 435 392 415 460 q 472 271 454 325 q 477 388 475 328 q 480 500 479 448 q 481 592 481 553 q 481 646 481 631 q 478 769 480 707 q 476 824 477 795 q 473 881 475 852 q 469 938 471 910 q 464 990 467 966 l 644 996 z "},"O":{"ha":700,"x_min":33,"x_max":667,"o":"m 667 486 q 646 283 667 378 q 586 117 626 188 q 487 5 546 46 q 350 -36 427 -36 q 212 5 271 -36 q 113 117 153 46 q 53 283 73 188 q 33 486 33 378 q 53 689 33 594 q 111 854 72 784 q 210 966 151 925 q 350 1007 270 1007 q 493 966 433 1007 q 591 854 553 925 q 648 689 630 784 q 667 486 667 594 m 489 486 q 482 645 489 570 q 459 774 475 719 q 417 861 444 829 q 350 893 390 893 q 285 861 311 893 q 242 774 258 829 q 218 645 226 719 q 211 486 211 570 q 218 327 211 401 q 242 198 226 253 q 286 110 259 142 q 350 78 312 78 q 414 110 387 78 q 457 198 440 142 q 481 327 474 253 q 489 486 489 401 z "},"P":{"ha":612,"x_min":50,"x_max":602,"o":"m 602 669 q 568 512 601 581 q 483 398 535 444 q 366 328 430 352 q 237 304 301 304 l 224 304 q 224 237 224 276 q 226 152 224 198 q 230 57 227 106 q 236 -43 232 7 q 163 -37 196 -39 q 104 -36 130 -36 q 81 -36 91 -36 q 64 -37 71 -37 q 50 -37 56 -37 q 56 69 54 16 q 61 173 59 122 q 64 272 63 224 q 66 361 65 319 q 69 549 68 459 q 68 713 69 635 q 66 782 67 747 q 65 850 66 817 q 63 912 64 884 q 60 962 62 941 q 162 974 112 972 q 244 977 212 977 q 306 975 269 977 q 382 963 342 972 q 461 935 422 954 q 532 882 500 916 q 582 796 563 848 q 602 669 602 744 m 427 664 q 415 752 427 715 q 380 813 404 789 q 320 849 357 837 q 235 864 284 861 q 230 739 232 804 q 227 611 229 673 q 225 495 226 549 q 224 408 224 442 q 313 431 275 411 q 376 484 351 450 q 414 563 401 517 q 427 664 427 608 z "},"Q":{"ha":700,"x_min":33,"x_max":667,"o":"m 631 -151 q 633 -164 632 -158 q 633 -176 633 -170 q 623 -225 633 -203 q 592 -263 612 -248 q 545 -288 572 -279 q 484 -297 517 -297 q 414 -285 448 -297 q 354 -250 380 -273 q 311 -195 327 -227 q 294 -122 294 -162 q 297 -86 294 -111 q 310 -33 299 -62 q 189 21 241 -23 q 102 135 137 66 q 51 295 68 205 q 33 486 33 385 q 53 689 33 594 q 111 854 72 784 q 210 966 151 925 q 350 1007 270 1007 q 493 966 433 1007 q 591 854 553 925 q 648 689 630 784 q 667 486 667 594 q 653 317 667 397 q 612 172 639 237 q 545 58 585 106 q 453 -14 505 10 q 416 -53 431 -29 q 400 -115 400 -76 q 400 -124 400 -118 q 403 -139 401 -130 q 409 -158 405 -147 q 419 -179 412 -168 q 431 -135 421 -155 q 455 -99 440 -114 q 490 -75 470 -83 q 533 -66 509 -66 q 593 -86 567 -65 q 631 -151 620 -106 m 489 486 q 482 645 489 570 q 459 774 475 719 q 417 861 444 829 q 350 893 390 893 q 285 861 311 893 q 242 774 258 829 q 218 645 226 719 q 211 486 211 570 q 218 327 211 401 q 242 198 226 253 q 286 110 259 142 q 350 78 312 78 q 414 110 387 78 q 457 198 440 142 q 481 327 474 253 q 489 486 489 401 z "},"R":{"ha":659,"x_min":45,"x_max":660,"o":"m 463 -12 q 441 32 448 7 q 431 78 434 56 q 427 117 427 100 q 427 136 427 133 q 425 188 427 158 q 417 251 423 218 q 400 314 411 283 q 369 371 389 346 q 322 411 350 396 q 254 427 294 427 q 243 426 249 427 q 232 425 237 425 l 232 3 l 45 -1 q 52 55 49 22 q 57 123 55 87 q 60 199 59 159 q 62 276 62 238 q 63 350 63 314 q 64 414 64 385 q 63 477 64 435 q 62 572 63 519 q 60 683 61 625 q 58 794 59 741 q 55 891 56 847 q 52 958 53 935 q 132 969 89 966 q 211 975 174 973 q 296 978 254 978 q 423 967 363 981 q 528 920 483 953 q 600 835 573 887 q 628 711 627 783 q 593 617 617 661 q 569 579 583 599 q 537 543 555 560 q 494 512 518 526 q 441 490 471 498 q 512 451 485 473 q 555 400 539 428 q 577 339 570 372 q 588 272 585 307 q 593 198 591 236 q 600 122 595 161 q 614 66 606 93 q 632 20 621 43 q 660 -18 644 -3 l 463 -12 m 456 703 q 437 781 455 746 q 416 809 429 795 q 385 834 404 823 q 340 852 366 845 q 279 859 314 859 q 221 851 253 859 l 224 545 q 248 542 236 543 q 271 541 260 541 q 328 547 303 541 q 372 566 353 554 q 405 591 391 577 q 428 621 418 606 q 456 703 450 657 z "},"S":{"ha":610,"x_min":32,"x_max":585,"o":"m 583 233 q 548 106 576 157 q 479 25 520 56 q 390 -17 439 -5 q 292 -29 340 -29 q 194 -15 241 -29 q 111 26 146 -1 q 53 96 75 54 q 32 195 32 138 q 45 267 32 238 q 78 314 58 296 q 120 339 98 332 q 161 346 142 346 q 202 340 181 346 q 241 319 223 334 q 270 281 258 305 q 281 221 281 257 q 280 209 281 220 q 272 181 279 197 q 251 152 265 166 q 211 131 237 137 q 255 95 230 107 q 298 83 281 83 q 339 90 316 83 q 381 110 361 96 q 415 149 401 125 q 429 210 429 173 q 415 286 429 252 q 377 344 400 319 q 327 389 355 370 q 272 424 298 408 q 230 448 254 434 q 179 481 205 462 q 127 525 153 500 q 80 582 101 550 q 47 652 60 613 q 35 737 35 690 q 59 860 35 807 q 122 947 83 912 q 211 1000 161 983 q 311 1018 260 1018 q 408 1004 362 1018 q 489 964 454 990 q 545 902 524 938 q 566 821 566 865 q 551 749 566 775 q 515 709 536 722 q 473 691 494 695 q 439 688 452 688 q 405 694 422 688 q 373 712 387 700 q 349 742 358 724 q 339 783 339 760 q 342 813 340 798 q 351 841 345 826 q 367 869 356 856 q 346 884 356 879 q 327 892 336 890 q 307 896 317 895 q 269 889 288 896 q 234 869 250 882 q 208 834 218 855 q 197 786 197 814 q 208 727 197 753 q 239 677 218 701 q 295 627 261 652 q 375 572 328 602 q 470 503 430 538 q 535 432 509 469 q 572 355 560 395 q 585 268 585 315 q 585 251 585 260 q 583 233 585 243 z "},"T":{"ha":526,"x_min":9,"x_max":517,"o":"m 361 -11 l 342 -11 q 262 -15 300 -11 q 182 -28 224 -20 q 195 253 191 121 q 200 507 200 384 q 192 819 200 665 l 21 807 q 20 849 20 830 q 18 887 19 869 q 14 923 16 905 q 9 965 12 942 l 92 965 q 198 966 146 965 q 301 968 250 966 q 407 971 353 969 q 517 977 460 973 q 512 918 513 942 q 511 868 511 894 l 511 832 l 345 828 q 342 700 342 763 q 342 574 342 637 q 347 281 342 426 q 361 -11 351 136 z "},"U":{"ha":640,"x_min":47,"x_max":590,"o":"m 590 446 q 586 329 590 388 q 572 215 583 270 q 542 112 562 160 q 492 27 523 63 q 418 -30 462 -9 q 315 -50 375 -50 q 216 -32 258 -50 q 144 17 174 -14 q 96 90 115 47 q 66 181 77 132 q 52 282 56 229 q 47 387 47 335 q 48 411 47 401 q 49 433 48 421 q 51 461 50 445 q 53 504 52 478 q 56 569 54 530 q 60 663 58 607 q 65 794 62 718 q 71 970 67 869 l 273 962 q 254 783 263 858 q 239 651 245 708 q 227 551 232 594 q 218 467 221 507 q 213 383 214 426 q 211 285 211 340 q 233 127 211 181 q 309 74 256 74 q 397 143 366 74 q 428 359 428 212 q 416 671 428 521 q 386 968 405 821 l 578 974 q 576 922 576 947 q 576 871 576 897 q 578 733 576 800 q 583 610 581 666 q 588 511 586 554 q 590 446 590 469 z "},"V":{"ha":583,"x_min":9,"x_max":582,"o":"m 582 974 q 521 720 547 846 q 477 469 495 594 q 446 218 458 343 q 422 -31 433 94 l 167 -14 q 136 235 151 111 q 101 482 120 359 q 60 727 83 605 q 9 970 38 848 q 37 969 23 970 q 62 968 50 968 q 135 970 100 968 q 210 974 170 972 q 222 771 214 876 q 241 560 231 667 q 266 347 252 453 q 296 140 279 240 q 327 347 313 240 q 353 560 342 453 q 371 772 363 667 q 380 975 378 878 q 435 971 409 972 q 488 970 462 970 q 582 974 532 970 z "},"W":{"ha":903,"x_min":54,"x_max":851,"o":"m 829 965 q 840 795 836 884 q 844 714 842 758 q 848 624 846 671 q 850 527 849 576 q 851 429 851 478 q 839 248 851 334 q 799 96 827 161 q 726 -9 771 30 q 614 -47 680 -47 q 602 -47 612 -47 q 575 -42 591 -46 q 539 -29 559 -38 q 498 -4 519 -20 q 460 38 478 12 q 429 100 441 63 q 395 42 415 65 q 355 4 376 19 q 312 -20 334 -12 q 274 -31 291 -28 q 245 -35 257 -35 q 232 -36 234 -36 q 162 -17 191 -36 q 114 34 134 1 q 82 112 94 67 q 64 208 71 156 q 56 317 58 260 q 54 431 54 374 q 55 533 54 482 q 57 633 56 585 q 59 725 58 681 q 62 808 61 770 q 71 977 66 897 l 269 971 q 246 806 256 892 q 238 726 242 768 q 231 636 234 683 q 226 541 228 590 q 224 443 224 492 q 224 368 224 406 q 226 294 224 330 q 231 228 228 258 q 241 173 235 197 q 257 137 248 150 q 282 123 267 123 q 309 141 296 123 q 331 188 321 159 q 349 253 341 216 q 362 326 357 289 q 370 397 367 363 q 372 457 372 432 q 373 478 372 465 q 373 508 373 490 q 374 551 374 526 q 372 691 374 603 q 368 911 371 779 l 541 904 q 530 718 534 795 q 524 590 526 642 q 520 508 521 539 q 518 459 519 477 q 518 432 518 441 q 518 415 518 423 q 520 352 518 386 q 528 286 523 319 q 541 221 533 252 q 558 167 549 191 q 581 130 568 144 q 608 115 593 115 q 645 141 631 115 q 666 211 659 167 q 675 314 673 256 q 677 439 677 373 q 673 628 677 541 q 662 782 669 715 q 648 898 655 850 q 636 970 641 945 l 829 965 z "},"X":{"ha":574,"x_min":-4,"x_max":579,"o":"m 579 -16 q 486 -19 529 -16 q 392 -28 442 -22 q 343 119 368 46 q 292 268 319 193 q 239 113 264 190 q 187 -37 214 37 l -3 -28 q 58 92 28 33 q 114 212 87 152 q 166 335 140 273 q 215 463 191 397 q 112 706 167 582 q -4 968 58 831 q 46 969 22 968 q 93 971 70 970 q 138 973 115 972 q 184 975 161 974 q 233 814 208 891 q 285 663 259 736 q 331 812 308 734 q 376 975 353 889 q 490 971 436 971 q 532 971 511 971 q 575 972 552 971 q 458 720 509 846 q 361 468 406 594 q 471 216 416 335 q 579 -16 527 97 z "},"Y":{"ha":610,"x_min":-8,"x_max":589,"o":"m 589 966 q 532 809 559 888 q 482 651 506 730 q 435 492 458 572 q 389 332 412 412 q 399 152 393 241 q 414 -28 404 62 l 207 -36 q 220 174 216 70 q 227 383 224 277 q 115 681 174 534 q -8 972 57 827 q 98 977 42 974 q 203 987 155 980 q 226 863 215 925 q 249 738 237 800 q 275 613 261 675 q 306 492 288 551 q 358 737 335 614 q 399 981 381 861 q 589 966 492 968 z "},"Z":{"ha":529,"x_min":22,"x_max":497,"o":"m 494 817 q 422 648 459 735 q 350 472 386 561 q 280 295 314 384 q 215 122 245 207 q 357 125 286 123 q 497 138 429 126 l 496 -29 l 36 -29 l 22 115 q 193 470 113 294 q 339 828 272 646 q 188 819 262 827 q 37 796 113 810 l 35 971 l 494 971 l 494 817 z "},"`":{"ha":243,"x_min":0,"x_max":243,"o":"m 243 1046 l 179 999 l 0 1192 q 37 1222 18 1207 q 73 1250 54 1235 q 110 1276 92 1264 l 243 1046 z "},"a":{"ha":559,"x_min":29,"x_max":525,"o":"m 368 -28 q 361 15 364 -7 q 355 60 357 37 q 281 -11 324 14 q 186 -36 237 -36 q 132 -27 159 -36 q 81 2 104 -19 q 44 59 58 23 q 29 151 29 96 q 43 232 29 197 q 78 292 56 266 q 127 336 100 317 q 181 370 154 355 q 232 398 208 385 q 272 424 256 411 q 324 474 302 448 q 359 530 346 501 q 350 607 357 577 q 331 655 342 637 q 303 681 319 673 q 265 688 286 688 q 213 674 234 688 q 178 642 191 661 q 204 618 195 631 q 218 595 213 606 q 224 568 223 582 q 198 498 224 522 q 131 473 172 473 q 92 483 110 473 q 61 511 75 493 q 41 553 48 528 q 33 606 33 577 q 46 666 33 634 q 87 725 59 698 q 161 771 116 753 q 269 789 205 789 q 378 764 333 789 q 453 698 424 739 q 495 604 482 657 q 509 493 509 550 q 508 400 509 450 q 507 297 507 350 q 508 209 507 253 q 511 124 509 165 q 516 46 513 83 q 525 -18 519 10 l 368 -28 m 358 370 q 307 321 334 341 q 263 289 287 307 q 220 252 240 271 q 187 211 200 232 q 174 167 174 189 q 189 115 174 136 q 231 93 203 93 q 275 106 256 93 q 310 140 295 120 q 336 183 326 160 q 353 225 347 206 l 358 370 z "},"b":{"ha":602,"x_min":40,"x_max":568,"o":"m 237 1021 q 223 845 229 932 q 212 669 217 758 q 262 733 235 711 q 311 767 288 756 q 364 782 338 779 q 451 762 413 782 q 515 692 489 741 q 555 561 541 643 q 568 357 568 479 q 547 166 568 243 q 492 42 526 90 q 417 -25 458 -5 q 336 -46 376 -46 q 318 -44 332 -46 q 285 -34 304 -43 q 243 -9 265 -26 q 200 39 220 8 l 200 -36 l 47 -33 q 56 164 54 66 q 58 361 58 262 q 53 689 58 526 q 40 1018 47 852 l 237 1021 m 286 79 q 293 78 290 78 q 301 78 297 78 q 339 91 319 78 q 376 135 359 103 q 403 221 392 167 q 414 361 414 276 q 407 487 414 437 q 387 568 399 538 q 359 611 375 599 q 325 624 342 624 q 291 614 307 624 q 264 588 276 604 q 242 552 252 572 q 224 512 232 532 q 212 473 217 492 q 204 441 207 454 q 200 176 200 308 q 231 125 216 144 q 259 96 247 106 q 286 79 273 83 z "},"c":{"ha":568,"x_min":31,"x_max":545,"o":"m 545 576 q 532 502 545 530 q 502 461 519 475 q 467 443 485 447 q 437 439 449 439 q 410 443 426 439 q 378 457 393 446 q 352 489 363 469 q 342 543 342 510 q 349 579 342 562 q 365 610 354 594 q 396 636 376 625 q 371 675 385 662 q 344 696 357 689 q 314 705 329 703 q 269 682 289 705 q 234 617 248 659 q 212 517 220 576 q 204 389 204 459 q 209 258 204 319 q 226 152 214 197 q 257 81 237 107 q 306 56 277 56 q 337 63 321 56 q 366 81 351 68 q 393 117 381 94 q 357 145 370 128 q 339 177 345 161 q 332 215 332 195 q 345 268 332 248 q 375 300 357 288 q 411 316 393 312 q 440 321 429 321 q 469 316 452 321 q 501 298 486 311 q 528 259 517 284 q 539 195 539 235 q 520 112 539 155 q 468 34 500 69 q 392 -24 435 -1 q 301 -46 349 -46 q 237 -37 269 -46 q 174 -8 204 -28 q 118 45 144 12 q 72 127 92 79 q 42 240 53 175 q 31 389 31 304 q 43 536 31 473 q 76 645 55 600 q 125 720 98 690 q 185 768 153 750 q 250 792 216 785 q 314 799 283 799 q 402 782 360 799 q 476 734 444 764 q 526 663 507 704 q 545 576 545 623 z "},"d":{"ha":600,"x_min":33,"x_max":572,"o":"m 572 1018 q 549 625 557 820 q 541 232 541 430 q 545 -33 541 100 l 390 -36 l 395 98 q 339 20 368 47 q 287 -20 311 -7 q 232 -39 259 -36 q 162 -19 197 -39 q 98 49 127 1 q 52 177 70 97 q 33 379 33 258 q 43 520 33 459 q 68 627 52 582 q 107 704 85 673 q 154 753 129 734 q 208 781 180 772 q 262 789 235 789 q 302 780 281 787 q 342 760 319 773 q 389 721 365 747 q 376 1021 385 871 l 572 1018 m 397 325 q 393 587 397 456 q 377 610 386 598 q 359 631 369 621 q 337 647 349 641 q 313 653 326 653 q 274 640 294 653 q 239 594 255 627 q 214 509 224 562 q 204 374 204 455 q 211 249 204 298 q 229 170 218 199 q 256 129 241 140 q 288 117 271 117 q 332 134 313 117 q 363 176 351 151 q 384 226 376 200 q 397 271 392 252 l 397 325 z "},"e":{"ha":557,"x_min":31,"x_max":532,"o":"m 532 146 q 513 71 532 106 q 464 9 495 35 q 391 -31 433 -16 q 301 -46 349 -46 q 237 -37 269 -46 q 174 -8 204 -28 q 118 45 144 12 q 72 127 92 79 q 42 240 53 175 q 31 389 31 304 q 42 529 31 468 q 72 635 53 590 q 117 712 92 681 q 173 762 143 743 q 234 789 202 781 q 296 798 265 798 q 382 783 341 798 q 453 740 422 768 q 502 670 484 711 q 519 574 519 628 q 499 475 519 525 q 440 381 479 425 q 343 300 401 336 q 210 243 285 264 q 221 166 214 201 q 241 107 229 132 q 269 69 253 83 q 306 56 285 56 q 332 60 319 56 q 354 71 342 64 q 372 93 365 79 q 345 114 355 101 q 331 138 336 127 q 325 167 326 152 q 338 220 325 199 q 368 252 351 240 q 404 268 386 263 q 433 272 422 272 q 461 267 445 272 q 494 249 478 262 q 520 211 509 235 q 532 146 532 186 m 364 572 q 360 619 364 597 q 347 657 355 641 q 326 683 338 673 q 297 693 313 693 q 252 668 269 693 q 223 600 234 642 q 208 503 212 558 q 204 389 204 448 l 204 339 q 268 382 239 357 q 319 438 298 408 q 352 502 340 468 q 364 572 364 536 z "},"f":{"ha":411,"x_min":7,"x_max":514,"o":"m 514 964 q 506 912 514 936 q 485 870 498 888 q 454 843 472 853 q 415 833 436 833 q 376 841 394 833 q 345 860 358 848 q 323 887 331 871 q 315 921 315 903 q 316 930 315 922 q 319 950 316 938 q 327 976 321 962 q 342 1003 332 989 q 290 987 309 1003 q 261 942 271 970 q 250 876 252 914 q 248 794 248 838 l 248 745 q 329 747 288 745 q 412 753 370 749 l 404 591 q 326 598 366 596 q 248 602 287 600 q 248 446 248 524 q 250 298 249 369 q 251 167 250 228 q 251 62 251 106 q 252 -8 252 18 q 252 -33 252 -33 l 97 -41 q 102 67 100 7 q 103 195 103 127 q 102 296 103 244 q 100 400 102 348 q 98 502 99 452 q 96 599 96 552 q 55 596 75 597 q 14 591 35 594 l 7 753 q 50 749 28 751 q 93 746 71 747 l 93 822 q 106 942 93 888 q 148 1034 119 996 q 223 1094 177 1073 q 334 1116 269 1116 q 412 1102 378 1116 q 469 1066 446 1088 q 503 1017 491 1044 q 514 964 514 990 z "},"g":{"ha":600,"x_min":33,"x_max":562,"o":"m 562 760 q 556 677 559 720 q 550 592 553 635 q 546 509 547 550 q 543 431 544 468 q 538 261 539 345 q 533 103 534 181 q 528 -46 533 24 q 510 -178 524 -117 q 467 -283 497 -239 q 387 -353 437 -328 q 257 -378 336 -378 q 161 -360 197 -378 q 107 -318 125 -343 q 82 -266 88 -294 q 77 -216 77 -238 q 84 -173 77 -193 q 104 -138 91 -153 q 135 -115 117 -123 q 178 -106 154 -106 q 222 -115 203 -106 q 255 -140 241 -125 q 275 -174 268 -155 q 282 -212 282 -193 q 277 -235 281 -223 q 265 -256 273 -244 q 241 -279 257 -268 q 271 -285 257 -285 q 308 -274 288 -285 q 344 -241 328 -264 q 371 -185 360 -219 q 383 -104 382 -151 l 386 83 q 332 14 359 39 q 282 -22 304 -11 q 232 -39 256 -36 q 162 -19 197 -39 q 98 49 127 1 q 52 177 70 97 q 33 379 33 258 q 43 520 33 459 q 68 627 52 582 q 107 704 85 673 q 154 753 129 734 q 208 781 180 772 q 262 789 235 789 q 306 779 283 787 q 350 756 326 772 q 399 711 374 741 l 403 777 l 562 760 m 395 587 q 358 633 379 614 q 313 653 338 653 q 274 640 294 653 q 239 594 255 627 q 214 509 224 562 q 204 374 204 455 q 211 249 204 298 q 229 170 218 199 q 256 129 241 140 q 288 117 271 117 q 327 130 310 117 q 355 163 343 144 q 374 203 366 182 q 387 240 382 224 q 390 415 389 329 q 395 587 391 501 z "},"h":{"ha":600,"x_min":41,"x_max":558,"o":"m 225 1032 q 215 857 220 944 q 207 682 210 770 q 260 752 231 727 q 315 788 289 777 q 375 804 345 802 q 458 781 424 804 q 515 713 493 757 q 548 607 538 669 q 558 468 558 545 q 550 220 558 340 q 514 -14 541 100 l 355 5 q 379 156 371 86 q 392 278 388 226 q 397 390 397 339 q 396 502 397 454 q 386 582 394 550 q 362 629 378 613 q 317 644 346 644 q 273 617 294 641 q 254 591 263 607 q 234 553 244 576 q 216 500 224 530 q 200 429 207 469 q 198 292 198 360 q 197 155 197 223 q 197 69 197 113 q 199 -17 197 26 l 45 -14 q 56 235 52 111 q 60 485 60 359 q 55 760 60 623 q 41 1035 50 897 l 225 1032 z "},"i":{"ha":277,"x_min":26,"x_max":237,"o":"m 237 951 q 229 910 237 930 q 207 877 221 891 q 173 854 193 863 q 132 846 154 846 q 91 854 111 846 q 58 877 72 863 q 35 910 43 891 q 26 951 26 930 q 35 992 26 973 q 58 1026 43 1012 q 91 1049 72 1040 q 132 1057 111 1057 q 173 1049 154 1057 q 207 1026 193 1040 q 229 992 221 1012 q 237 951 237 973 m 237 746 q 228 630 232 692 q 222 503 224 568 q 218 372 220 438 q 216 247 217 307 q 215 135 216 187 q 215 46 215 83 l 215 -31 l 61 -36 q 62 55 62 11 q 62 143 62 99 q 61 293 62 220 q 57 439 60 366 q 49 587 54 512 q 37 743 44 663 l 237 746 z "},"j":{"ha":269,"x_min":-253,"x_max":228,"o":"m 228 739 q 219 561 222 646 q 214 408 216 475 q 210 261 211 330 q 207 102 207 181 q 203 -47 208 24 q 185 -179 198 -118 q 141 -283 172 -239 q 60 -353 111 -328 q -71 -378 9 -378 q -165 -361 -129 -378 q -220 -320 -201 -345 q -247 -268 -240 -296 q -253 -218 -253 -240 q -246 -175 -253 -195 q -226 -139 -239 -154 q -194 -115 -213 -123 q -150 -106 -174 -106 q -105 -115 -125 -106 q -73 -140 -86 -125 q -53 -174 -60 -155 q -46 -212 -46 -193 q -51 -235 -47 -223 q -63 -256 -54 -244 q -86 -279 -71 -268 q -70 -284 -78 -283 q -57 -285 -62 -285 q -20 -274 -40 -285 q 16 -242 -1 -264 q 43 -186 32 -220 q 56 -104 54 -152 q 58 26 57 -52 q 58 195 58 104 q 57 354 58 273 q 54 509 56 435 q 49 643 52 583 q 40 742 45 704 l 228 739 m 228 974 q 219 933 228 952 q 197 899 211 913 q 163 877 182 885 q 122 868 144 868 q 81 877 100 868 q 47 899 62 885 q 25 933 33 913 q 17 974 17 952 q 25 1015 17 996 q 47 1048 33 1034 q 81 1071 62 1063 q 122 1079 100 1079 q 163 1071 144 1079 q 197 1048 182 1063 q 219 1015 211 1034 q 228 974 228 996 z "},"k":{"ha":579,"x_min":39,"x_max":582,"o":"m 227 1029 q 215 845 220 928 q 207 689 210 762 q 203 550 204 616 q 201 415 201 484 q 262 492 234 451 q 312 577 290 533 q 352 666 335 621 q 382 755 370 711 l 566 739 q 504 623 534 673 q 445 533 473 572 q 393 469 417 495 q 350 425 369 442 q 399 403 378 416 q 434 378 420 390 q 461 350 450 365 q 482 302 474 329 q 495 245 490 275 q 507 183 501 216 q 522 119 513 151 q 545 55 530 86 q 582 -5 559 23 l 401 -5 q 379 64 388 29 q 366 128 371 100 q 357 193 359 161 q 333 267 351 235 q 314 295 326 281 q 288 318 303 308 q 253 335 273 329 q 208 342 233 342 l 201 342 q 202 178 201 265 q 207 -17 203 92 l 39 -14 q 50 161 45 82 q 57 308 54 239 q 62 439 60 377 q 64 566 64 502 q 63 665 64 614 q 61 773 62 716 q 56 893 59 829 q 50 1032 54 958 l 227 1029 z "},"l":{"ha":260,"x_min":47,"x_max":224,"o":"m 224 1043 q 216 890 220 960 q 211 757 213 819 q 207 638 208 694 q 204 527 205 582 q 203 416 203 472 q 203 300 203 361 q 203 155 203 232 q 204 -17 203 77 l 50 -14 q 56 188 54 89 q 57 392 57 288 q 56 535 57 462 q 54 689 56 609 q 51 859 53 770 q 47 1047 50 947 l 224 1043 z "},"m":{"ha":829,"x_min":43,"x_max":786,"o":"m 489 354 q 488 283 489 313 q 487 228 488 253 q 484 181 486 203 q 480 135 482 159 q 475 79 478 110 q 469 7 473 48 l 317 5 q 331 215 326 115 q 335 415 335 316 q 318 553 335 509 q 265 596 300 596 q 239 578 252 592 q 215 541 227 566 q 195 471 203 515 q 193 405 193 437 q 193 342 193 373 q 194 267 193 305 q 194 186 194 229 q 195 93 195 142 q 197 -17 196 43 l 43 -14 q 51 125 47 64 q 57 238 54 186 q 60 336 59 290 q 61 431 61 382 q 61 497 61 463 q 59 571 60 532 q 57 655 58 610 q 54 754 56 701 l 208 751 l 204 688 q 245 747 224 726 q 286 778 267 768 q 318 789 305 787 q 335 790 332 790 q 374 785 355 790 q 409 764 393 779 q 440 723 426 749 q 464 654 454 696 q 509 734 482 706 q 563 774 536 762 q 609 788 589 787 q 632 790 629 790 q 705 764 675 790 q 753 683 735 737 q 778 547 770 629 q 786 354 786 465 q 783 269 786 317 q 774 170 779 221 q 762 68 768 119 q 751 -21 756 18 l 599 -16 q 617 122 610 57 q 627 239 623 188 q 631 349 630 298 q 628 460 631 413 q 616 537 625 507 q 594 582 608 567 q 558 596 580 596 q 531 581 544 592 q 507 552 519 571 q 485 500 494 532 q 489 354 489 437 z "},"n":{"ha":606,"x_min":50,"x_max":567,"o":"m 227 751 l 222 696 q 270 753 245 733 q 317 781 296 772 q 354 789 339 789 q 370 790 368 790 q 457 767 420 790 q 519 700 494 744 q 555 594 543 656 q 567 452 567 531 q 565 333 567 393 q 558 212 564 272 q 545 95 553 152 q 522 -14 536 38 l 364 5 q 389 156 380 86 q 401 278 397 226 q 407 390 406 339 q 403 502 407 454 q 388 582 399 550 q 359 629 378 613 q 313 644 341 644 q 275 617 294 640 q 240 554 258 597 q 208 433 222 511 q 206 329 206 380 q 205 218 205 277 q 205 112 205 169 q 207 -17 205 55 l 53 -14 q 56 133 55 56 q 57 306 57 211 q 56 510 57 400 q 50 754 54 620 l 227 751 z "},"o":{"ha":586,"x_min":31,"x_max":557,"o":"m 288 -39 q 172 -9 220 -39 q 92 72 123 20 q 45 196 60 124 q 31 353 31 268 q 48 533 31 451 q 100 674 66 615 q 185 766 134 733 q 301 799 235 799 q 416 771 368 799 q 495 693 464 743 q 542 573 527 643 q 557 419 557 503 q 552 325 557 376 q 535 223 547 274 q 503 125 523 172 q 454 41 484 78 q 383 -17 424 5 q 288 -39 342 -39 m 393 469 q 389 562 393 521 q 373 631 384 603 q 347 675 363 660 q 309 690 331 690 q 263 665 284 690 q 226 590 242 639 q 201 471 210 541 q 192 313 192 401 q 197 211 192 256 q 214 134 203 165 q 240 86 224 102 q 278 69 256 69 q 317 87 300 69 q 346 136 334 105 q 368 207 359 166 q 382 291 377 247 q 391 382 388 336 q 393 469 393 428 z "},"p":{"ha":600,"x_min":28,"x_max":567,"o":"m 28 -272 q 42 -80 36 -174 q 52 107 47 14 q 58 292 56 199 q 60 478 60 384 q 56 737 60 604 l 210 739 l 205 664 q 273 753 235 721 q 354 785 312 785 q 445 763 405 785 q 511 693 484 741 q 553 572 538 646 q 567 395 567 498 q 547 195 567 276 q 495 64 528 114 q 421 -7 463 14 q 338 -29 380 -29 q 292 -18 315 -27 q 247 6 271 -11 q 197 53 222 22 q 201 -109 199 -28 q 210 -275 204 -191 l 28 -272 m 196 189 q 212 162 203 176 q 233 135 222 147 q 257 114 244 122 q 285 106 270 106 q 325 122 305 106 q 361 175 345 139 q 386 267 376 210 q 396 403 396 323 q 390 515 396 468 q 372 593 383 562 q 347 638 361 624 q 315 653 332 653 q 289 643 302 653 q 264 618 276 633 q 242 584 252 603 q 223 546 232 564 q 209 511 215 527 q 200 485 203 494 q 197 342 198 412 q 196 201 196 273 l 196 189 z "},"q":{"ha":596,"x_min":35,"x_max":551,"o":"m 549 729 q 541 525 543 622 q 539 332 539 427 q 540 183 539 257 q 543 35 541 110 q 547 -116 545 -39 q 551 -273 549 -193 l 392 -275 q 399 -109 395 -191 q 404 53 402 -28 q 355 5 380 22 q 309 -19 330 -12 q 275 -28 289 -26 q 261 -29 262 -29 q 178 -7 219 -29 q 106 65 138 15 q 54 196 74 115 q 35 395 35 277 q 48 572 35 498 q 90 693 62 646 q 156 763 117 741 q 248 785 196 785 q 334 747 292 785 q 404 643 375 709 l 400 739 l 549 729 m 410 454 q 399 488 406 468 q 384 531 393 509 q 364 575 375 553 q 341 614 353 597 q 314 642 328 631 q 286 653 300 653 q 255 638 269 653 q 229 593 240 624 q 212 515 218 562 q 205 403 205 468 q 215 267 205 323 q 241 175 225 210 q 276 122 256 139 q 317 106 296 106 q 347 115 333 106 q 373 139 361 125 q 394 168 385 153 q 408 193 403 182 q 410 279 410 236 q 410 367 410 323 l 410 454 z "},"r":{"ha":551,"x_min":40,"x_max":546,"o":"m 221 -28 l 40 -41 q 56 193 51 80 q 61 419 61 306 q 59 579 61 499 q 50 745 56 660 l 203 753 q 201 724 201 738 q 200 696 200 709 q 252 753 224 732 q 304 783 280 774 q 361 798 332 795 q 446 782 410 798 q 503 743 481 767 q 536 689 526 719 q 546 632 546 660 q 540 574 546 604 q 519 522 534 545 q 480 484 505 498 q 421 469 456 469 q 366 482 386 469 q 335 513 345 495 q 321 550 324 531 q 318 583 318 570 q 321 605 318 593 q 332 629 325 616 q 349 653 338 641 q 372 675 359 665 q 364 677 368 676 q 355 677 359 677 q 295 656 321 677 q 249 597 269 635 q 217 507 230 559 q 199 395 205 456 q 208 186 202 290 q 221 -28 214 83 z "},"s":{"ha":536,"x_min":16,"x_max":515,"o":"m 515 611 q 504 558 515 580 q 476 523 492 536 q 442 503 460 509 q 412 497 425 497 q 383 502 400 497 q 351 517 366 506 q 325 548 336 529 q 314 597 314 568 q 320 629 315 614 q 335 657 325 643 q 363 684 345 672 q 338 711 351 701 q 317 725 326 720 q 296 732 305 730 q 258 723 275 732 q 229 701 241 715 q 211 669 217 687 q 204 631 204 650 q 208 585 204 606 q 223 544 211 565 q 260 498 235 523 q 326 441 284 474 q 399 378 368 409 q 451 317 431 347 q 481 257 471 288 q 492 195 492 227 q 487 148 492 173 q 472 96 483 122 q 445 46 462 70 q 402 3 427 22 q 342 -27 376 -16 q 264 -39 308 -39 q 151 -19 197 -39 q 74 29 104 1 q 30 88 43 57 q 16 143 16 119 q 22 190 16 168 q 41 228 28 212 q 75 253 54 244 q 125 262 96 262 q 169 255 149 262 q 204 233 189 248 q 227 197 218 218 q 235 150 235 176 q 230 126 234 138 q 218 104 227 116 q 196 81 210 92 q 215 70 205 73 q 231 64 224 66 q 248 62 239 62 q 268 67 256 62 q 291 83 280 73 q 309 110 302 94 q 317 147 317 125 q 313 187 317 169 q 297 224 309 205 q 263 267 286 243 q 204 322 241 290 q 139 386 168 355 q 91 450 111 416 q 62 519 72 483 q 52 600 52 556 q 69 684 52 644 q 118 756 86 725 q 195 807 150 788 q 297 825 241 825 q 395 808 354 825 q 463 761 437 790 q 503 692 490 731 q 515 611 515 654 z "},"t":{"ha":403,"x_min":5,"x_max":395,"o":"m 289 1031 q 280 893 283 961 q 273 758 277 826 q 332 761 303 760 q 392 764 361 762 l 395 590 q 330 599 362 595 q 268 604 298 602 q 266 490 266 547 q 265 376 265 434 q 268 172 265 273 q 275 -33 270 70 l 98 -31 q 113 288 107 129 q 121 608 119 447 q 64 605 92 607 q 5 602 35 604 l 11 762 q 66 759 39 760 q 121 757 94 758 q 119 892 121 825 q 117 1028 118 960 l 289 1031 z "},"u":{"ha":606,"x_min":40,"x_max":557,"o":"m 380 -7 q 384 45 382 20 q 387 93 385 70 q 338 31 364 52 q 290 -2 312 9 q 237 -17 263 -14 q 150 8 187 -17 q 88 79 113 33 q 52 190 64 125 q 40 335 40 255 q 47 552 40 447 q 71 758 54 657 l 243 739 q 218 595 227 659 q 205 487 210 532 q 200 396 201 435 q 204 284 200 332 q 219 204 208 236 q 248 157 229 173 q 294 142 266 142 q 333 169 314 145 q 350 195 341 179 q 368 234 359 211 q 385 288 376 257 q 400 361 393 319 q 401 440 401 401 q 401 526 401 480 q 401 633 401 575 q 400 762 401 690 l 554 760 q 549 664 551 708 q 546 582 547 621 q 544 510 545 544 q 543 444 543 476 q 544 349 543 395 q 547 249 545 302 q 552 134 549 197 q 557 -9 554 71 l 380 -7 z "},"v":{"ha":570,"x_min":9,"x_max":579,"o":"m 579 753 q 518 557 547 652 q 465 367 490 462 q 417 176 439 273 q 375 -24 395 80 l 179 -28 q 142 168 161 73 q 103 356 123 262 q 59 545 82 450 q 9 741 36 640 l 204 749 q 239 452 220 604 q 283 155 258 301 q 337 455 317 302 q 370 755 358 608 l 579 753 z "},"w":{"ha":810,"x_min":49,"x_max":770,"o":"m 770 733 q 766 617 767 675 q 764 512 765 559 q 764 407 764 457 q 759 305 762 357 q 747 203 755 252 q 724 109 739 153 q 686 32 709 65 q 630 -21 663 -1 q 553 -40 597 -40 q 483 -19 516 -37 q 454 1 469 -11 q 425 31 439 13 q 399 72 412 48 q 379 127 387 96 q 327 37 357 69 q 271 -9 297 5 q 207 -31 239 -27 q 144 -14 170 -31 q 101 31 119 2 q 73 98 83 60 q 58 182 63 137 q 51 275 52 227 q 49 372 49 324 q 49 396 49 389 q 50 410 50 403 q 51 430 50 417 q 52 469 52 442 q 53 541 52 495 q 53 660 53 586 q 53 705 53 683 q 52 746 53 727 l 244 741 q 213 504 221 620 q 205 272 205 388 q 216 163 205 197 q 256 129 226 129 q 280 144 269 129 q 300 185 292 159 q 315 243 309 210 q 326 310 321 275 q 332 377 330 344 q 334 437 334 410 q 333 492 334 466 q 331 548 333 519 q 327 609 330 576 q 321 681 325 641 l 494 672 q 472 517 481 592 q 463 368 463 442 q 466 282 463 326 q 478 203 470 239 q 500 145 487 168 q 533 122 514 122 q 572 151 557 122 q 596 226 587 180 q 608 331 604 273 q 611 447 611 389 q 610 476 611 453 q 607 536 610 499 q 599 625 604 574 q 583 737 593 675 l 770 733 z "},"x":{"ha":558,"x_min":0,"x_max":558,"o":"m 558 -1 l 372 -31 q 328 89 351 31 q 279 204 305 146 q 242 97 260 152 q 208 -20 225 41 l 4 1 q 108 186 58 98 q 204 363 158 274 q 106 549 157 457 q 0 737 54 641 l 196 746 q 235 629 215 685 q 278 519 255 572 q 322 625 301 570 q 361 737 342 679 l 551 718 q 439 541 490 625 q 349 370 389 456 q 448 186 395 277 q 558 -1 500 96 z "},"y":{"ha":608,"x_min":40,"x_max":570,"o":"m 570 732 q 563 651 566 692 q 558 569 560 610 q 553 490 555 528 q 550 417 551 452 q 545 261 547 336 q 540 103 541 181 q 535 -46 540 24 q 517 -178 530 -117 q 474 -283 504 -239 q 394 -353 444 -328 q 264 -378 343 -378 q 169 -360 204 -378 q 114 -318 133 -343 q 89 -266 95 -294 q 83 -216 83 -238 q 91 -173 83 -193 q 111 -138 98 -153 q 142 -115 123 -123 q 184 -106 161 -106 q 229 -115 210 -106 q 262 -140 249 -125 q 282 -174 275 -155 q 289 -212 289 -193 q 284 -235 288 -223 q 272 -256 281 -244 q 249 -279 264 -268 q 264 -284 257 -283 q 278 -285 271 -285 q 315 -274 296 -285 q 351 -241 334 -264 q 378 -185 367 -219 q 390 -104 389 -151 q 390 -5 390 -54 q 392 103 391 44 q 342 35 369 59 q 292 -1 316 11 q 237 -17 265 -14 q 150 8 187 -17 q 88 79 113 33 q 52 190 64 125 q 40 335 40 255 q 71 758 40 557 l 243 739 q 232 690 237 717 q 223 635 227 664 q 216 578 219 607 q 210 523 213 549 q 200 396 204 460 q 204 284 200 332 q 219 204 208 236 q 248 157 229 173 q 294 142 266 142 q 334 170 315 145 q 351 197 342 181 q 368 237 359 214 q 385 293 377 261 q 400 368 393 326 q 403 465 402 421 q 404 549 404 509 q 402 641 404 597 q 396 734 400 686 l 570 732 z "},"z":{"ha":513,"x_min":26,"x_max":486,"o":"m 481 619 q 401 493 437 555 q 332 367 364 430 q 273 240 300 304 q 220 111 245 177 q 351 121 285 115 q 482 136 416 127 l 486 -24 q 319 -20 403 -20 q 176 -22 248 -20 q 31 -31 104 -25 l 26 100 q 108 228 70 164 q 179 354 146 291 q 242 482 213 418 q 300 612 272 546 q 171 604 233 611 q 40 583 109 596 l 32 746 q 88 745 60 745 q 144 745 116 745 q 307 748 227 745 q 472 758 387 751 l 481 619 z "},"":{"ha":473,"x_min":29,"x_max":440,"o":"m 440 549 q 430 489 440 511 q 407 456 420 467 q 378 442 393 445 q 354 439 363 439 q 332 442 345 439 q 307 454 319 445 q 287 479 295 463 q 278 522 278 495 q 283 551 278 537 q 295 575 287 562 q 321 597 304 588 q 300 628 311 617 q 279 644 290 639 q 256 652 267 650 q 220 632 236 652 q 192 576 203 612 q 174 492 180 541 q 168 387 168 444 q 172 283 168 332 q 185 198 176 235 q 210 141 195 162 q 249 121 226 121 q 274 127 262 121 q 297 141 285 132 q 318 170 309 151 q 291 192 300 179 q 277 218 281 205 q 271 249 271 233 q 281 291 271 274 q 305 317 291 307 q 333 330 319 326 q 357 334 348 334 q 380 330 366 334 q 406 314 393 326 q 427 283 418 303 q 436 232 436 264 q 420 165 436 199 q 379 103 405 131 q 318 57 353 75 q 245 39 283 39 q 169 55 207 39 q 99 112 130 72 q 48 219 68 152 q 29 387 29 286 q 39 506 29 454 q 65 595 49 557 q 105 658 82 633 q 153 698 127 683 q 204 720 178 713 q 256 726 231 726 q 326 712 292 726 q 385 674 359 699 q 425 618 410 650 q 440 549 440 585 m 301 -153 q 286 -203 301 -187 q 252 -218 271 -218 q 233 -215 242 -218 q 217 -203 224 -211 q 206 -182 210 -195 q 201 -151 201 -169 q 205 -112 201 -136 q 215 -62 210 -87 q 225 -15 220 -37 q 231 17 229 7 l 265 17 q 273 -15 267 7 q 285 -62 279 -37 q 296 -112 292 -87 q 301 -153 301 -136 m 301 914 q 297 874 301 899 q 288 825 293 850 q 278 779 283 800 q 272 747 273 758 l 237 747 q 230 779 235 758 q 217 825 224 800 q 206 874 211 850 q 201 917 201 899 q 217 965 201 950 q 252 981 233 981 q 286 965 271 981 q 301 914 301 949 z "},"":{"ha":521,"x_min":31,"x_max":489,"o":"m 401 357 q 399 338 400 353 q 399 302 399 322 q 399 264 399 283 q 401 237 400 245 l 260 241 q 258 211 259 229 q 253 172 256 193 q 244 126 250 151 q 228 78 238 102 q 347 89 289 81 q 464 113 404 97 l 475 -26 l 68 -26 l 68 60 q 102 109 90 83 q 122 158 115 134 q 130 202 128 182 q 132 233 132 222 l 132 243 l 98 243 l 31 243 q 33 272 32 256 q 33 304 33 288 q 33 330 33 317 q 31 357 33 343 q 72 352 50 353 q 118 349 94 350 q 106 408 113 378 q 94 468 99 438 q 84 528 88 498 q 81 587 81 557 q 94 669 81 631 q 134 733 108 706 q 200 775 161 760 q 290 790 239 790 q 371 778 335 790 q 433 744 408 765 q 473 693 459 722 q 489 631 488 664 q 480 573 489 595 q 457 539 471 551 q 426 523 443 527 q 393 518 409 518 q 364 525 378 518 q 339 542 350 531 q 322 568 328 553 q 315 600 315 583 q 326 647 315 624 q 354 686 336 671 q 335 697 345 694 q 315 703 325 701 q 294 707 304 706 q 255 697 273 707 q 227 672 238 688 q 209 633 215 656 q 203 585 203 611 q 208 530 203 559 q 219 471 212 501 q 235 409 227 441 q 249 346 243 378 q 339 348 298 346 q 401 357 380 351 z "},"":{"ha":897,"x_min":29,"x_max":839,"o":"m 642 -49 q 656 237 651 95 q 661 522 661 380 q 659 708 661 615 q 652 895 656 800 l 572 895 q 562 710 565 802 q 559 526 559 618 q 566 251 559 388 q 582 -24 572 115 l 396 -24 q 403 147 399 62 q 408 318 406 232 q 369 311 388 313 q 334 307 349 309 q 300 306 316 306 q 207 326 255 306 q 120 388 159 346 q 55 495 80 430 q 29 652 29 561 q 54 799 29 735 q 122 906 78 863 q 229 971 166 949 q 367 993 291 993 q 598 989 500 993 q 764 985 696 985 q 798 985 781 985 q 828 986 814 985 q 820 775 823 880 q 817 564 817 669 q 822 260 817 410 q 839 -43 827 111 l 642 -49 m 411 549 q 409 712 411 631 q 403 876 407 793 q 395 878 399 878 q 387 878 391 878 q 339 871 361 878 q 300 858 317 865 q 264 839 280 850 q 238 811 250 829 q 219 771 227 793 q 208 722 212 748 q 204 667 204 695 q 213 579 204 623 q 242 501 222 536 q 292 445 262 467 q 366 424 323 424 q 386 425 375 424 q 410 429 397 426 q 411 488 411 458 q 411 549 411 518 z "},"":{"ha":777,"x_min":3,"x_max":775,"o":"m 775 163 q 751 78 774 116 q 692 14 728 41 q 612 -27 656 -12 q 525 -41 568 -41 q 432 -27 474 -41 q 360 13 391 -12 q 314 74 330 39 q 297 149 297 109 q 306 197 297 176 q 329 233 315 218 q 360 255 342 248 q 395 262 377 262 q 433 257 412 262 q 472 239 454 252 q 502 206 490 227 q 514 157 514 186 q 508 127 513 142 q 493 102 503 115 q 464 79 483 89 q 484 68 473 72 q 503 62 494 64 q 521 60 512 60 q 581 87 561 60 q 602 164 602 115 q 584 217 602 189 q 543 273 567 245 q 493 323 519 300 q 452 361 468 347 q 414 397 435 376 q 374 445 393 418 q 343 505 355 471 q 330 578 330 538 q 341 660 330 618 q 364 744 351 702 q 387 827 376 785 q 397 907 397 868 q 378 982 397 953 q 323 1011 358 1011 q 303 1002 313 1011 q 286 970 294 993 q 273 907 279 947 q 263 807 267 868 q 258 660 260 745 q 256 460 256 574 q 260 309 258 388 q 263 236 262 275 q 267 156 264 197 q 271 70 269 114 q 275 -17 273 26 q 217 -14 243 -14 q 167 -14 190 -14 q 128 -14 145 -14 q 100 -16 111 -15 q 77 -17 86 -16 q 91 98 85 35 q 98 223 96 161 q 102 337 101 284 q 103 422 103 390 q 104 535 104 481 q 103 644 103 590 l 5 647 q 7 677 7 663 q 7 705 7 692 q 6 746 7 728 q 5 778 5 764 q 3 806 3 793 l 102 808 q 114 935 104 876 q 151 1038 125 994 q 222 1107 176 1082 q 339 1132 267 1132 q 437 1114 397 1132 q 503 1067 477 1096 q 539 1001 528 1038 q 550 925 550 964 q 538 855 550 891 q 513 782 527 819 q 488 704 499 744 q 476 624 476 665 q 493 550 476 583 q 534 489 509 516 q 586 438 558 461 q 636 397 614 416 q 682 357 658 378 q 727 310 707 336 q 762 250 748 283 q 775 174 775 217 l 775 163 z "},"":{"ha":591,"x_min":32,"x_max":557,"o":"m 289 -39 q 173 -9 222 -39 q 93 72 125 20 q 47 196 62 124 q 32 353 32 268 q 50 533 32 451 q 101 674 67 615 q 186 766 136 733 q 302 799 237 799 q 317 798 310 799 q 332 796 324 798 q 275 884 305 844 q 216 957 245 924 q 158 1013 186 989 q 109 1054 131 1038 q 74 1080 87 1071 q 57 1090 60 1089 l 279 1107 q 391 979 345 1045 q 468 847 437 912 q 517 721 499 782 q 543 610 534 661 q 554 524 552 560 q 557 471 557 488 q 554 368 557 423 q 541 256 551 312 q 514 148 532 200 q 466 55 496 96 q 393 -11 437 14 q 289 -39 349 -37 m 392 380 q 394 426 393 404 q 395 469 395 448 q 390 562 395 521 q 375 631 385 603 q 348 675 364 660 q 310 690 332 690 q 264 665 286 690 q 228 590 243 639 q 202 471 212 541 q 193 313 193 401 q 199 211 193 256 q 215 134 204 165 q 242 86 226 102 q 279 69 258 69 q 324 92 305 69 q 357 155 343 114 q 379 253 370 196 q 392 380 387 311 z "},"":{"ha":668,"x_min":46,"x_max":625,"o":"m 625 134 l 625 -20 l 354 -20 l 354 212 q 383 248 370 225 q 406 298 396 270 q 421 358 415 326 q 432 421 428 390 q 443 579 441 494 q 435 710 443 652 q 414 807 428 768 q 379 868 399 847 q 332 889 358 889 q 284 870 306 889 q 247 813 262 852 q 223 714 232 774 q 215 572 215 654 q 231 431 220 498 q 242 372 236 402 q 257 314 249 342 q 277 263 266 287 q 301 222 288 239 l 301 -20 l 57 -20 l 50 136 q 107 126 81 130 q 163 123 134 123 l 186 123 l 186 172 q 125 225 149 189 q 85 303 100 260 q 61 392 69 347 q 50 476 54 438 q 46 541 47 515 q 46 570 46 566 q 59 732 46 663 q 95 850 73 802 q 146 930 117 899 q 207 979 175 962 q 273 1003 239 997 q 336 1010 306 1010 q 402 1005 369 1010 q 467 984 436 1000 q 525 938 498 968 q 573 858 553 908 q 605 734 593 808 q 616 558 616 661 q 615 506 616 537 q 609 438 614 474 q 594 365 604 402 q 570 293 585 327 q 531 231 554 258 q 476 187 508 203 l 476 118 q 490 117 484 117 q 504 118 496 118 q 563 121 534 118 q 625 134 591 125 z "},"":{"ha":688,"x_min":31,"x_max":656,"o":"m 481 -33 q 451 34 462 -4 q 433 113 439 73 q 399 56 418 82 q 359 12 381 31 q 312 -16 338 -6 q 254 -26 286 -26 q 175 -8 214 -26 q 103 43 135 9 q 51 122 71 76 q 31 225 31 168 q 47 330 31 286 q 93 409 64 375 q 157 470 121 444 q 233 523 194 497 q 311 575 272 548 q 382 636 349 602 q 399 663 391 647 q 414 696 407 676 q 427 743 421 715 q 416 809 422 782 q 398 854 409 837 q 370 881 387 872 q 332 889 354 889 q 267 864 297 889 q 296 835 286 851 q 312 804 307 819 q 319 768 318 786 q 308 714 319 736 q 280 680 297 693 q 240 661 262 667 q 197 656 218 656 q 155 666 176 656 q 115 695 133 676 q 86 743 98 715 q 75 807 75 771 q 93 878 75 844 q 143 940 110 913 q 226 984 177 967 q 338 1000 275 1000 q 448 988 399 1000 q 533 944 498 976 q 587 855 568 911 q 606 710 606 798 q 604 572 606 646 q 602 422 602 498 q 604 277 602 349 q 612 145 606 205 q 628 39 618 85 q 656 -29 639 -7 l 481 -33 m 424 279 l 429 533 q 339 441 378 481 q 276 368 301 401 q 238 304 250 334 q 225 243 225 275 q 231 208 225 224 q 246 180 236 192 q 270 160 256 168 q 300 153 283 153 q 346 165 326 153 q 381 196 366 177 q 407 236 396 214 q 424 278 418 258 l 424 279 z "},"\"":{"ha":463,"x_min":35,"x_max":429,"o":"m 429 1022 q 413 896 420 960 q 401 777 406 831 q 392 654 396 714 l 289 654 q 281 783 286 718 q 276 840 279 810 q 270 902 273 871 q 263 963 267 932 q 256 1022 260 994 q 277 1020 268 1021 q 295 1020 286 1020 q 313 1019 303 1019 q 335 1019 322 1019 q 361 1020 351 1019 q 381 1020 372 1020 q 402 1021 391 1021 q 429 1022 413 1021 m 208 1022 q 192 896 199 960 q 181 777 186 831 q 172 654 176 714 l 69 654 q 60 783 66 718 q 55 840 58 810 q 49 902 52 871 q 42 963 46 932 q 35 1022 39 994 q 56 1020 47 1021 q 74 1020 65 1020 q 92 1019 83 1019 q 114 1019 102 1019 q 140 1020 130 1019 q 160 1020 151 1020 q 181 1021 170 1021 q 208 1022 192 1021 z "},"#":{"ha":644,"x_min":45,"x_max":600,"o":"m 375 810 q 382 810 376 810 q 400 811 389 810 q 424 812 410 812 q 452 814 437 813 q 526 819 484 817 l 521 643 l 599 647 l 599 510 l 515 507 l 513 415 q 576 416 553 416 q 600 418 600 416 l 597 269 l 509 267 l 504 153 l 378 146 q 377 179 377 161 q 376 216 376 195 q 376 264 376 238 l 294 262 l 293 163 l 160 155 l 158 260 l 45 257 l 47 406 q 56 406 48 406 q 79 406 64 406 q 113 406 94 406 q 157 407 133 406 l 155 493 l 46 489 l 46 624 l 154 628 l 153 800 l 302 798 l 300 635 l 374 637 l 374 741 q 374 791 374 773 q 375 810 374 810 m 297 498 l 296 410 l 375 412 q 374 456 375 434 q 374 501 374 478 l 297 498 z "},"'":{"ha":243,"x_min":35,"x_max":208,"o":"m 208 1022 q 192 896 199 960 q 181 777 186 831 q 172 654 176 714 l 69 654 q 60 783 66 718 q 55 840 58 810 q 49 902 52 871 q 42 963 46 932 q 35 1022 39 994 q 56 1020 47 1021 q 74 1020 65 1020 q 92 1019 83 1019 q 114 1019 102 1019 q 140 1020 130 1019 q 160 1020 151 1020 q 181 1021 170 1021 q 208 1022 192 1021 z "},"(":{"ha":403,"x_min":29,"x_max":404,"o":"m 404 1017 q 303 901 343 964 q 240 770 263 838 q 207 636 216 703 q 197 509 197 569 q 209 358 197 434 q 243 210 220 281 q 302 75 267 138 q 387 -39 338 11 l 285 -153 q 169 0 217 -73 q 89 152 120 74 q 44 317 58 230 q 29 509 29 404 q 48 677 29 593 q 102 837 66 760 q 187 981 137 913 q 300 1101 237 1048 l 404 1017 z "},")":{"ha":403,"x_min":-1,"x_max":374,"o":"m 103 1101 q 216 981 166 1048 q 301 837 266 913 q 355 677 336 760 q 374 509 374 593 q 359 317 374 404 q 313 152 345 230 q 234 0 282 74 q 118 -153 186 -73 l 16 -39 q 101 75 65 11 q 160 210 136 138 q 194 358 183 281 q 205 509 205 434 q 196 636 205 569 q 163 770 186 703 q 100 901 140 838 q -1 1017 60 964 l 103 1101 z "},"*":{"ha":504,"x_min":29,"x_max":472,"o":"m 171 979 l 176 979 q 190 979 181 979 q 210 980 199 979 q 234 980 221 980 q 259 981 247 981 q 322 983 288 982 l 310 860 q 346 885 328 872 q 379 907 364 897 q 405 924 395 918 q 418 930 416 930 q 419 925 417 931 q 425 908 421 918 q 433 884 429 897 q 444 856 438 870 q 472 779 456 823 l 347 747 l 457 673 l 364 541 l 253 704 l 175 536 l 62 656 l 165 741 l 29 768 q 58 840 45 808 q 68 867 63 854 q 78 891 73 880 q 85 909 82 902 q 87 917 87 916 q 99 909 89 916 q 123 893 109 902 q 155 872 138 884 q 189 851 172 861 q 182 896 186 873 q 177 938 179 919 q 173 968 174 956 q 171 979 171 980 z "},"+":{"ha":612,"x_min":36,"x_max":575,"o":"m 406 182 q 395 183 404 182 q 375 183 387 183 q 348 184 363 184 q 317 184 333 184 q 253 184 283 184 q 210 182 222 183 q 213 276 212 227 q 216 379 215 326 l 153 379 l 36 379 q 39 429 37 402 q 40 486 40 456 q 36 566 40 524 q 121 555 75 559 q 220 549 168 551 l 220 604 l 220 721 q 270 718 243 720 q 326 717 297 717 q 406 721 363 717 q 395 640 399 684 q 389 547 391 595 q 447 549 419 548 q 499 553 475 551 q 543 558 524 555 q 575 566 562 562 q 573 555 574 564 q 573 535 573 547 q 572 508 572 523 q 572 476 572 492 q 572 443 572 460 q 573 412 572 427 q 573 387 573 398 q 575 370 574 376 q 484 373 531 372 q 387 376 437 375 q 389 315 388 345 q 393 260 391 286 q 398 215 395 235 q 406 182 401 195 z "},",":{"ha":256,"x_min":37,"x_max":216,"o":"m 216 64 q 210 13 216 35 q 195 -30 205 -10 q 170 -68 184 -50 q 136 -106 155 -87 l 81 -79 q 91 -65 85 -73 q 101 -47 96 -58 q 111 -22 106 -37 q 58 7 79 -17 q 37 64 37 31 q 44 99 37 83 q 64 127 52 115 q 93 147 76 140 q 127 154 109 154 q 162 147 146 154 q 190 127 178 140 q 209 99 202 115 q 216 64 216 83 z "},"-":{"ha":653,"x_min":57,"x_max":596,"o":"m 596 566 q 594 555 595 564 q 593 535 593 547 q 593 508 593 523 q 593 476 593 492 q 593 443 593 460 q 593 412 593 427 q 594 387 593 398 q 596 370 595 376 q 393 377 501 375 q 174 379 286 379 l 57 379 q 60 429 58 402 q 61 486 61 456 q 57 566 61 524 q 123 557 87 561 q 197 552 159 554 q 275 548 235 549 q 354 547 315 547 q 430 548 393 547 q 498 552 467 549 q 555 557 530 554 q 596 566 580 561 z "},".":{"ha":254,"x_min":37,"x_max":216,"o":"m 216 64 q 209 30 216 45 q 190 1 202 14 q 162 -18 178 -11 q 127 -25 146 -25 q 93 -18 109 -25 q 64 1 76 -11 q 44 30 52 14 q 37 64 37 45 q 44 99 37 83 q 64 127 52 115 q 93 147 76 140 q 127 154 109 154 q 162 147 146 154 q 190 127 178 140 q 209 99 202 115 q 216 64 216 83 z "},"/":{"ha":607,"x_min":21,"x_max":587,"o":"m 587 975 q 537 865 566 932 q 475 717 509 799 q 406 543 441 635 q 335 355 370 450 q 270 166 301 260 q 214 -9 238 73 q 154 -2 184 -5 q 97 3 128 1 q 37 5 66 5 l 21 5 q 97 159 59 75 q 172 331 136 242 q 243 511 209 420 q 306 688 277 602 q 358 851 335 774 q 397 989 382 928 l 587 975 z "},":":{"ha":293,"x_min":57,"x_max":236,"o":"m 236 596 q 229 562 236 578 q 210 533 222 545 q 182 514 198 522 q 147 507 165 507 q 112 514 128 507 q 83 533 96 522 q 64 562 71 545 q 57 596 57 578 q 64 631 57 614 q 83 660 71 648 q 112 679 96 672 q 147 686 128 686 q 182 679 165 686 q 210 660 198 672 q 229 631 222 648 q 236 596 236 614 m 236 64 q 229 30 236 45 q 210 1 222 14 q 182 -18 198 -11 q 147 -25 165 -25 q 112 -18 128 -25 q 83 1 96 -11 q 64 30 71 14 q 57 64 57 45 q 64 99 57 83 q 83 127 71 115 q 112 147 96 140 q 147 154 128 154 q 182 147 165 154 q 210 127 198 140 q 229 99 222 115 q 236 64 236 83 z "},";":{"ha":294,"x_min":57,"x_max":236,"o":"m 236 64 q 230 13 235 35 q 214 -30 224 -10 q 189 -68 204 -50 q 155 -106 174 -87 l 100 -79 q 111 -65 105 -73 q 120 -47 115 -58 q 131 -22 125 -37 q 78 7 99 -17 q 57 64 57 31 q 64 99 57 83 q 83 127 71 115 q 112 147 96 140 q 147 154 128 154 q 182 147 165 154 q 210 127 198 140 q 229 99 222 115 q 236 64 236 83 m 236 596 q 229 562 236 578 q 210 533 222 545 q 182 514 198 522 q 147 507 165 507 q 112 514 128 507 q 83 533 96 522 q 64 562 71 545 q 57 596 57 578 q 64 631 57 614 q 83 660 71 648 q 112 679 96 672 q 147 686 128 686 q 182 679 165 686 q 210 660 198 672 q 229 631 222 648 q 236 596 236 614 z "},"<":{"ha":532,"x_min":31,"x_max":492,"o":"m 456 163 q 296 237 374 201 q 227 268 263 252 q 156 299 191 284 q 89 326 121 313 q 31 347 57 338 q 35 463 35 407 q 34 510 35 488 q 33 549 33 532 q 31 583 31 568 q 80 611 52 594 q 140 648 109 628 q 205 691 172 669 q 269 736 238 714 q 421 846 342 787 l 492 640 q 414 613 456 629 q 328 577 372 597 q 239 534 283 557 q 154 486 194 511 q 217 449 185 466 q 289 414 250 431 q 377 380 328 397 q 492 342 426 363 l 456 163 z "},"=":{"ha":657,"x_min":58,"x_max":597,"o":"m 597 704 q 596 694 596 702 q 595 674 595 686 q 595 647 595 662 q 595 615 595 631 q 595 582 595 599 q 595 551 595 566 q 596 526 595 537 q 597 509 596 515 q 395 516 503 514 q 175 518 287 518 l 58 518 q 61 568 60 541 q 62 625 62 595 q 58 704 62 662 q 124 696 89 699 q 198 690 160 692 q 277 687 237 688 q 355 686 317 686 q 431 687 395 686 q 499 690 468 688 q 556 696 531 692 q 597 704 581 699 m 597 427 q 596 416 596 425 q 595 396 595 408 q 595 369 595 384 q 595 338 595 354 q 595 274 595 304 q 597 231 595 243 q 395 238 503 236 q 175 240 287 240 l 58 240 q 61 291 60 263 q 62 347 62 318 q 58 427 62 385 q 124 418 89 422 q 198 413 160 415 q 277 409 237 410 q 355 408 317 408 q 431 409 395 408 q 499 413 468 410 q 556 418 531 415 q 597 427 581 422 z "},">":{"ha":532,"x_min":40,"x_max":501,"o":"m 40 342 q 155 380 106 363 q 243 414 204 397 q 314 449 282 431 q 378 486 347 466 q 293 534 338 511 q 204 577 249 557 q 118 613 160 597 q 40 640 75 629 l 111 846 q 263 736 190 787 q 327 691 294 714 q 392 648 360 669 q 451 611 423 628 q 501 583 479 594 q 499 549 500 568 q 497 463 497 516 q 501 347 497 407 q 442 326 475 338 q 375 299 410 313 q 305 268 340 284 q 236 237 269 252 q 77 163 159 201 l 40 342 z "},"[":{"ha":403,"x_min":58,"x_max":379,"o":"m 379 -109 q 211 -107 289 -109 q 58 -103 134 -106 q 73 216 68 58 q 77 534 77 374 q 76 676 77 608 q 73 810 75 744 q 68 945 71 877 q 58 1086 64 1013 q 100 1088 77 1087 q 150 1090 124 1089 q 203 1092 176 1090 q 255 1093 230 1093 q 376 1097 314 1095 l 379 943 q 322 945 352 945 q 250 946 293 946 q 242 744 245 844 q 240 543 240 644 q 241 419 240 484 q 243 287 241 353 q 247 155 245 220 q 252 31 249 90 l 379 33 l 379 -109 z "},"\\":{"ha":607,"x_min":20,"x_max":586,"o":"m 210 989 q 249 851 225 928 q 301 688 272 774 q 364 511 330 602 q 435 331 398 420 q 510 159 471 242 q 586 5 548 75 l 570 5 q 510 3 541 5 q 453 -2 479 1 q 393 -9 422 -5 q 337 166 369 73 q 272 355 306 260 q 201 543 237 450 q 132 717 165 635 q 70 865 98 799 q 20 975 41 932 l 210 989 z "},"]":{"ha":403,"x_min":24,"x_max":345,"o":"m 24 33 l 151 31 q 156 155 154 90 q 159 287 158 220 q 162 419 161 353 q 163 543 163 484 q 160 744 163 644 q 153 946 158 844 q 80 945 110 946 q 24 943 51 945 l 26 1097 q 148 1093 89 1095 q 200 1092 173 1093 q 253 1090 227 1090 q 302 1088 279 1089 q 345 1086 326 1087 q 335 945 338 1013 q 330 810 332 877 q 327 676 328 744 q 326 534 326 608 q 330 216 326 374 q 345 -103 334 58 q 191 -107 269 -106 q 24 -109 114 -109 l 24 33 z "},"^":{"ha":464,"x_min":0,"x_max":464,"o":"m 464 541 l 290 488 q 268 605 280 546 q 246 714 256 665 q 229 797 236 763 q 222 836 222 830 q 197 694 209 761 q 187 635 192 665 q 177 577 182 605 q 169 524 173 549 q 163 482 165 499 q 121 499 141 492 q 82 513 102 507 q 43 525 63 519 q 0 538 22 531 q 25 606 12 570 q 50 679 37 642 q 74 752 62 715 q 96 821 85 788 q 143 977 120 899 q 181 974 162 975 q 218 974 201 974 q 252 974 236 974 q 280 975 269 975 q 306 977 294 976 q 366 800 336 884 q 391 726 378 764 q 418 654 405 689 q 443 590 431 620 q 464 541 454 561 z "},"_":{"ha":654,"x_min":58,"x_max":597,"o":"m 597 -78 q 596 -88 596 -80 q 595 -108 595 -96 q 595 -135 595 -120 q 595 -167 595 -151 q 595 -200 595 -183 q 595 -231 595 -216 q 596 -256 595 -245 q 597 -273 596 -267 q 395 -266 503 -268 q 175 -264 287 -264 l 58 -264 q 61 -214 60 -241 q 62 -157 62 -186 q 58 -78 62 -120 q 124 -86 89 -83 q 198 -92 160 -90 q 277 -95 237 -94 q 355 -96 317 -96 q 431 -95 395 -96 q 499 -92 468 -94 q 556 -86 531 -90 q 597 -78 581 -83 z "},"{":{"ha":411,"x_min":22,"x_max":397,"o":"m 397 957 q 360 967 380 965 q 319 970 340 970 q 285 962 301 970 q 257 941 269 954 q 239 910 245 928 q 232 873 232 892 q 241 819 232 852 q 260 750 250 785 q 279 681 270 714 q 288 624 288 647 q 278 569 288 595 q 253 523 269 543 q 213 489 236 503 q 161 469 189 475 q 212 446 190 463 q 250 406 235 429 q 274 356 266 383 q 282 301 282 329 q 275 249 282 281 q 259 183 268 218 q 243 117 250 149 q 236 65 236 85 q 262 -1 236 22 q 339 -25 288 -25 q 355 -25 347 -25 q 370 -24 363 -24 q 385 -22 377 -23 l 355 -196 q 256 -171 304 -188 q 171 -124 208 -154 q 110 -51 133 -95 q 87 53 87 -7 q 96 106 87 80 q 113 158 104 132 q 131 211 123 184 q 139 265 139 237 q 132 309 139 288 q 110 344 124 329 q 77 368 96 359 q 33 376 57 376 l 22 376 l 22 539 q 67 548 47 539 q 100 573 86 557 q 120 610 113 589 q 127 656 127 631 q 121 702 127 679 q 108 750 115 726 q 95 803 101 775 q 89 864 89 831 q 104 970 89 923 q 150 1050 119 1017 q 225 1102 180 1084 q 332 1120 271 1120 q 355 1119 343 1120 q 379 1117 368 1118 l 397 957 z "},"|":{"ha":317,"x_min":57,"x_max":268,"o":"m 264 1120 q 241 858 247 989 q 236 595 236 727 q 243 253 236 422 q 268 -86 250 84 l 215 -86 q 137 -87 174 -86 q 57 -93 101 -89 q 61 -62 59 -87 q 65 4 63 -36 q 68 94 66 44 q 72 197 70 144 q 74 302 73 250 q 76 399 75 355 q 78 478 77 444 q 78 528 78 512 q 75 824 78 677 q 57 1120 72 972 q 103 1117 82 1118 q 146 1117 125 1117 q 203 1118 175 1117 q 264 1120 231 1118 z "},"}":{"ha":411,"x_min":14,"x_max":389,"o":"m 32 1117 q 56 1119 43 1118 q 79 1120 68 1120 q 186 1102 140 1120 q 261 1050 231 1084 q 307 970 292 1017 q 322 864 322 923 q 316 803 322 831 q 303 750 310 775 q 290 702 296 726 q 283 656 283 679 q 291 610 283 631 q 311 573 298 589 q 344 548 325 557 q 389 539 363 539 l 389 376 l 378 376 q 334 368 353 376 q 300 344 314 359 q 279 309 287 329 q 272 265 272 288 q 280 211 272 237 q 298 158 288 184 q 315 106 307 132 q 323 53 323 80 q 301 -51 323 -7 q 241 -124 278 -95 q 155 -171 203 -154 q 56 -196 106 -188 l 26 -22 q 41 -24 33 -23 q 56 -25 47 -24 q 72 -25 64 -25 q 149 -1 123 -25 q 175 65 175 22 q 168 117 175 85 q 152 183 161 149 q 136 249 143 218 q 129 301 129 281 q 137 356 129 329 q 161 406 145 383 q 199 446 176 429 q 250 469 222 463 q 199 489 222 475 q 159 523 176 503 q 133 569 142 543 q 123 624 123 595 q 132 681 123 647 q 151 750 141 714 q 170 819 161 785 q 179 873 179 852 q 172 910 179 892 q 154 941 165 928 q 126 962 142 954 q 92 970 110 970 q 51 967 71 970 q 14 957 31 965 l 32 1117 z "},"~":{"ha":707,"x_min":31,"x_max":677,"o":"m 677 514 q 671 501 677 513 q 652 470 665 488 q 623 429 640 451 q 582 389 605 408 q 531 358 559 370 q 471 346 503 346 q 415 361 439 346 q 367 396 390 377 q 321 430 345 414 q 268 446 297 446 q 197 419 229 446 q 138 345 165 393 l 31 449 q 65 519 47 487 q 104 574 82 551 q 154 611 126 597 q 222 624 182 624 q 299 609 265 624 q 361 577 333 595 q 413 545 389 559 q 460 530 437 530 q 488 535 475 530 q 513 548 501 540 q 534 566 524 556 q 553 587 545 576 q 586 644 572 612 l 677 514 z "},"":{"ha":492,"x_min":28,"x_max":463,"o":"m 463 932 q 461 922 461 930 q 460 904 460 915 q 460 879 460 892 q 460 850 460 865 q 460 820 460 835 q 460 791 460 804 q 461 767 460 778 q 463 750 461 756 q 392 753 425 752 q 328 755 359 754 q 326 675 326 715 q 326 595 326 635 q 333 253 326 422 q 358 -86 340 84 l 306 -86 q 228 -87 264 -86 q 147 -93 191 -89 q 151 -62 149 -87 q 155 4 153 -36 q 158 94 157 44 q 162 197 160 144 q 164 302 163 250 q 166 399 165 355 q 168 478 168 444 q 168 528 168 512 q 168 643 168 585 q 167 760 168 701 l 134 760 l 28 760 q 31 810 29 783 q 32 867 32 838 q 28 946 32 904 q 91 938 57 941 q 161 933 125 935 q 155 1026 159 980 q 147 1120 151 1073 q 194 1117 172 1118 q 236 1117 215 1117 q 294 1118 266 1117 q 354 1120 321 1118 q 344 1024 348 1071 q 336 929 340 977 q 387 929 364 929 q 427 930 410 930 q 463 932 446 931 z "},"":{"ha":319,"x_min":29,"x_max":290,"o":"m 208 827 q 194 861 208 848 q 158 875 179 875 q 125 861 140 875 q 110 827 110 848 q 114 809 110 817 q 125 793 118 800 q 140 783 132 787 q 158 779 149 779 q 194 793 179 779 q 208 827 208 808 m 290 827 q 280 777 290 800 q 251 736 269 754 q 210 709 233 719 q 160 699 186 699 q 110 709 134 699 q 68 736 86 719 q 40 777 50 754 q 29 827 29 800 q 40 878 29 854 q 68 919 50 901 q 110 947 86 937 q 160 957 134 957 q 210 947 186 957 q 251 919 233 937 q 280 878 269 901 q 290 827 290 854 z "},"":{"ha":404,"x_min":71,"x_max":334,"o":"m 334 497 q 323 447 334 471 q 296 406 313 423 q 254 377 278 388 q 204 367 231 367 q 152 377 176 367 q 110 406 128 388 q 81 447 92 423 q 71 497 71 471 q 81 549 71 525 q 110 591 92 573 q 152 619 128 609 q 204 629 176 629 q 254 619 231 629 q 296 591 278 609 q 323 549 313 573 q 334 497 334 525 z "},"":{"ha":243,"x_min":0,"x_max":243,"o":"m 134 1276 q 170 1250 151 1264 q 205 1222 189 1235 q 243 1192 224 1207 l 64 999 l 0 1046 l 134 1276 z "},"":{"ha":328,"x_min":0,"x_max":328,"o":"m 144 1072 q 139 1045 144 1058 q 123 1022 133 1032 q 100 1007 113 1013 q 72 1002 87 1002 q 44 1007 58 1002 q 21 1022 31 1013 q 6 1045 12 1032 q 0 1072 0 1058 q 6 1100 0 1087 q 21 1123 12 1114 q 44 1139 31 1133 q 72 1145 58 1145 q 100 1139 87 1145 q 123 1123 113 1133 q 139 1100 133 1114 q 144 1072 144 1087 m 328 1072 q 322 1045 328 1058 q 306 1022 316 1032 q 283 1007 296 1013 q 256 1002 270 1002 q 228 1007 241 1002 q 204 1022 214 1013 q 189 1045 195 1032 q 183 1072 183 1058 q 189 1100 183 1087 q 204 1123 195 1114 q 228 1139 214 1133 q 256 1145 241 1145 q 283 1139 270 1145 q 306 1123 296 1133 q 322 1100 316 1114 q 328 1072 328 1087 z "},"":{"ha":637,"x_min":49,"x_max":587,"o":"m 587 427 q 586 416 586 425 q 585 396 585 408 q 585 369 585 384 q 585 338 585 354 q 585 274 585 304 q 587 231 585 243 q 456 236 524 234 q 315 239 387 237 l 262 97 q 210 104 237 101 q 157 110 186 108 q 100 113 128 113 l 83 113 q 118 177 101 146 q 150 240 134 209 l 49 240 q 52 291 50 263 q 53 347 53 318 q 49 427 53 385 q 134 416 87 420 q 232 410 181 412 q 255 465 245 438 q 277 518 266 492 l 165 518 l 49 518 q 52 568 50 541 q 53 625 53 595 q 49 704 53 662 q 112 696 78 699 q 184 690 146 692 q 261 687 222 688 q 338 686 300 686 q 357 749 348 718 q 376 811 367 780 l 553 798 q 528 745 541 771 q 503 690 515 719 q 552 696 530 692 q 587 704 573 700 q 586 694 586 702 q 585 674 585 686 q 585 647 585 662 q 585 615 585 631 q 585 582 585 599 q 585 551 585 566 q 586 526 585 537 q 587 509 586 515 q 508 512 549 511 q 425 515 468 514 l 380 408 q 445 410 414 409 q 503 414 476 412 q 551 419 530 416 q 587 427 573 422 z "},"":{"ha":889,"x_min":36,"x_max":854,"o":"m 852 505 q 853 494 852 500 q 854 484 854 489 q 841 408 854 443 q 802 346 827 372 q 741 305 777 320 q 660 290 705 290 q 600 298 630 290 q 540 319 569 306 q 486 351 511 333 q 440 389 460 368 q 395 350 420 370 q 341 314 370 330 q 284 288 313 298 q 228 278 255 278 q 150 294 185 278 q 89 339 115 311 q 50 407 64 368 q 36 492 36 446 q 49 564 36 529 q 86 627 62 600 q 143 670 110 654 q 218 686 177 686 q 282 677 250 686 q 345 653 315 669 q 402 616 376 637 q 449 571 429 595 q 495 606 469 588 q 549 638 521 623 q 608 662 578 652 q 664 671 637 671 q 731 658 699 671 q 789 624 764 646 q 832 571 815 602 q 852 505 849 541 m 642 541 q 623 535 637 541 q 592 522 610 530 q 556 503 575 513 q 522 484 537 493 q 550 465 535 474 q 581 447 566 455 q 610 434 596 439 q 633 429 623 429 q 659 433 646 429 q 682 443 671 436 q 699 460 692 450 q 705 485 705 471 q 700 509 705 499 q 685 527 694 519 q 665 537 676 534 q 642 541 654 541 m 248 432 q 266 436 254 432 q 292 448 278 441 q 320 464 306 455 q 347 482 335 473 q 326 497 338 489 q 301 511 315 505 q 274 522 288 518 q 244 526 259 526 q 227 523 236 526 q 211 514 218 520 q 198 500 203 509 q 193 482 193 492 q 210 443 193 454 q 248 432 226 432 z "},"":{"ha":639,"x_min":50,"x_max":589,"o":"m 419 182 q 409 183 417 182 q 389 183 401 183 q 362 184 377 184 q 330 184 347 184 q 297 184 314 184 q 267 183 281 184 q 241 183 252 183 q 224 182 230 182 q 228 276 226 227 q 231 379 229 326 l 167 379 l 50 379 q 53 429 52 402 q 54 486 54 456 q 50 566 54 524 q 136 555 89 559 q 233 549 182 551 l 233 604 l 233 721 q 283 718 256 720 q 340 717 311 717 q 419 721 378 717 q 409 640 413 684 q 403 547 405 595 q 513 552 463 548 q 589 566 563 557 q 587 555 587 564 q 586 535 587 547 q 586 508 586 523 q 586 476 586 492 q 586 443 586 460 q 586 412 586 427 q 587 387 587 398 q 589 370 587 376 q 497 373 545 372 q 401 376 450 375 q 404 315 402 345 q 407 260 405 286 q 412 215 409 235 q 419 182 415 195 m 589 132 q 587 122 587 130 q 586 102 587 114 q 586 74 586 90 q 586 43 586 59 q 586 10 586 26 q 586 -21 586 -7 q 587 -46 587 -35 q 589 -64 587 -58 q 387 -56 494 -58 q 167 -54 279 -54 l 50 -54 q 53 -4 52 -31 q 54 53 54 23 q 50 132 54 90 q 116 124 81 127 q 190 118 151 121 q 268 115 228 116 q 347 114 308 114 q 423 115 387 114 q 491 118 460 116 q 548 124 523 121 q 589 132 572 127 z "},"":{"ha":714,"x_min":26,"x_max":686,"o":"m 572 -11 l 553 -11 q 473 -15 511 -11 q 393 -28 436 -20 q 406 253 401 121 q 411 507 411 384 q 403 825 411 669 l 306 821 q 303 696 303 758 q 302 574 302 635 q 308 281 302 426 q 322 -11 313 136 l 302 -11 q 223 -15 261 -11 q 143 -28 186 -20 q 156 253 151 121 q 161 507 161 384 q 159 662 161 587 q 153 814 157 738 q 92 811 121 812 q 37 807 62 809 q 36 849 37 830 q 34 887 35 869 q 31 923 33 905 q 26 965 29 942 l 119 965 q 261 966 186 965 q 412 968 337 966 q 558 971 488 969 q 686 977 629 973 q 682 918 683 942 q 681 868 681 894 l 681 832 l 555 829 q 553 701 553 764 q 553 574 553 637 q 558 281 553 426 q 572 -11 563 136 z "},"":{"ha":707,"x_min":7,"x_max":697,"o":"m 697 604 q 650 610 677 608 q 589 614 623 612 q 581 323 581 468 q 584 147 581 235 q 595 -31 588 60 l 412 -36 q 422 309 422 139 q 420 464 422 386 q 414 621 418 541 q 361 622 388 621 q 309 623 334 623 q 301 472 303 546 q 298 323 298 398 q 302 147 298 235 q 313 -31 307 60 l 131 -36 q 138 137 136 52 q 140 309 140 222 q 132 621 140 463 q 61 618 94 619 q 7 615 28 616 l 12 790 q 68 788 35 789 q 141 786 101 787 q 227 785 182 785 q 319 785 273 785 q 431 785 375 785 q 536 786 486 785 q 627 789 586 787 q 694 791 668 790 l 697 604 z "},"":{"ha":654,"x_min":-9,"x_max":664,"o":"m 411 69 q 398 -51 411 3 q 357 -143 385 -104 q 282 -203 328 -182 q 171 -224 237 -224 q 92 -210 125 -224 q 35 -175 58 -197 q 2 -125 13 -153 q -9 -72 -9 -98 q -2 -20 -9 -44 q 19 21 5 4 q 50 48 32 39 q 89 58 68 58 q 127 51 109 58 q 159 32 146 44 q 181 4 173 20 q 189 -29 189 -12 q 189 -39 189 -31 q 185 -59 188 -47 q 177 -84 182 -71 q 163 -111 172 -98 q 215 -95 196 -111 q 242 -52 233 -79 q 254 15 252 -24 q 256 97 256 53 q 255 262 256 179 q 252 423 254 345 q 249 574 251 502 q 246 709 248 647 q 244 822 245 772 q 243 905 243 871 q 256 1025 243 971 q 298 1118 269 1079 q 373 1177 327 1156 q 484 1198 418 1198 q 562 1185 528 1198 q 618 1149 596 1171 q 652 1101 641 1128 q 664 1047 664 1074 q 656 995 664 1019 q 635 954 648 971 q 604 927 622 937 q 566 917 586 917 q 526 924 545 917 q 494 943 508 931 q 473 971 481 955 q 465 1004 465 987 q 466 1014 465 1006 q 469 1033 466 1021 q 476 1059 471 1045 q 492 1086 481 1073 q 439 1070 458 1086 q 411 1026 420 1054 q 400 959 402 998 q 399 878 399 921 q 399 862 399 871 q 399 839 399 854 q 399 799 399 823 q 400 735 399 774 q 402 638 401 695 q 404 500 403 581 q 407 313 405 419 q 411 69 409 207 z "},"":{"ha":663,"x_min":47,"x_max":604,"o":"m 604 175 l 554 175 q 518 175 534 175 q 485 174 502 174 q 451 172 469 173 q 411 168 433 170 q 415 236 413 201 q 418 303 416 267 q 422 376 420 340 q 295 378 359 378 q 164 379 230 379 l 47 379 q 50 429 49 402 q 52 486 52 456 q 47 566 52 524 q 113 557 77 561 q 187 552 149 554 q 265 548 225 549 q 345 547 305 547 q 420 548 384 547 q 489 552 457 549 q 545 557 520 554 q 586 566 570 561 l 585 564 l 587 566 q 593 427 590 496 q 599 301 596 357 q 604 175 602 235 z "},"":{"ha":692,"x_min":-1,"x_max":710,"o":"m 189 427 q 204 354 197 391 q 219 281 211 321 q 237 199 228 241 q 296 337 267 266 q 353 479 326 408 q 405 621 380 551 q 451 757 429 692 q 489 881 472 823 q 519 989 507 940 l 710 975 q 660 865 689 932 q 598 717 631 799 q 528 543 564 635 q 458 355 492 450 q 392 166 423 260 q 336 -9 361 73 q 277 -2 307 -5 q 220 3 251 1 q 160 5 189 5 l 154 5 q 146 3 149 4 q 143 3 144 3 l -1 412 l 189 427 z "},"":{"ha":722,"x_min":39,"x_max":686,"o":"m 686 664 q 680 651 686 663 q 661 620 673 638 q 631 579 649 601 q 590 539 613 557 q 539 508 568 520 q 479 496 511 496 q 424 511 448 496 q 376 546 399 527 q 329 581 353 565 q 277 596 306 596 q 205 570 238 596 q 146 494 173 543 l 39 599 q 73 669 56 637 q 112 724 90 701 q 162 761 134 747 q 231 774 191 774 q 307 759 273 774 q 369 727 341 745 q 421 695 397 710 q 468 681 445 681 q 521 698 498 681 q 561 737 545 715 q 595 794 580 762 l 686 664 m 686 349 q 680 335 686 348 q 661 304 673 323 q 631 264 649 286 q 590 223 613 242 q 539 193 568 205 q 479 180 511 180 q 424 196 448 180 q 376 231 399 212 q 329 265 353 250 q 277 281 306 281 q 205 254 238 281 q 146 179 173 228 l 39 283 q 73 353 56 321 q 112 409 90 385 q 162 445 134 432 q 231 458 191 458 q 307 444 273 458 q 369 412 341 429 q 421 380 397 395 q 468 366 445 366 q 496 370 483 366 q 521 383 509 375 q 543 401 532 391 q 561 422 553 412 q 595 479 580 448 l 686 349 z "},"":{"ha":843,"x_min":31,"x_max":803,"o":"m 371 78 q 243 138 306 110 q 188 163 217 151 q 132 188 159 176 q 78 209 104 199 q 31 227 52 219 q 34 274 33 250 q 35 318 35 297 q 34 356 35 339 q 33 387 33 374 q 31 415 31 402 q 70 437 47 423 q 118 467 93 450 q 170 502 144 484 q 222 537 197 519 q 343 625 280 578 l 400 446 q 275 403 342 429 q 143 338 208 377 q 192 309 168 321 q 244 286 215 297 q 310 263 273 275 q 400 235 347 252 l 371 78 m 774 78 q 646 138 709 110 q 591 163 620 151 q 534 188 562 176 q 480 209 507 199 q 433 227 454 219 q 436 274 435 250 q 437 318 437 297 q 437 356 437 339 q 435 387 436 374 q 433 415 434 402 q 473 437 450 423 q 521 467 496 450 q 573 502 547 484 q 625 537 600 519 q 746 625 683 578 l 803 446 q 678 403 745 429 q 546 338 611 377 q 594 309 571 321 q 647 286 618 297 q 713 263 675 275 q 803 235 750 252 l 774 78 z "},"":{"ha":843,"x_min":40,"x_max":812,"o":"m 443 235 q 533 263 496 252 q 599 286 570 275 q 651 309 628 297 q 700 338 675 321 q 568 403 635 377 q 443 446 500 429 l 500 625 q 621 537 563 578 q 673 502 646 519 q 724 467 699 484 q 772 437 749 450 q 812 415 795 423 q 810 387 811 402 q 808 318 808 361 q 809 274 808 297 q 812 227 810 250 q 765 209 791 219 q 711 188 739 199 q 654 163 683 176 q 600 138 626 151 q 472 78 537 110 l 443 235 m 40 235 q 130 263 93 252 q 196 286 168 275 q 249 309 225 297 q 297 338 272 321 q 165 403 232 377 q 40 446 98 429 l 97 625 q 218 537 160 578 q 270 502 243 519 q 321 467 296 484 q 369 437 347 450 q 410 415 392 423 q 408 387 408 402 q 406 318 406 361 q 407 274 406 297 q 410 227 408 250 q 362 209 388 219 q 308 188 336 199 q 252 163 280 176 q 197 138 223 151 q 69 78 134 110 l 40 235 z "},"":{"ha":737,"x_min":57,"x_max":681,"o":"m 681 566 q 679 555 680 564 q 678 535 678 547 q 677 508 677 523 q 677 476 677 492 q 677 443 677 460 q 678 412 677 427 q 679 387 678 398 q 681 370 680 376 q 574 374 634 372 q 449 377 515 376 q 315 378 383 378 q 183 379 247 379 l 57 379 q 60 429 58 402 q 61 486 61 456 q 57 566 61 524 q 127 557 87 561 q 211 552 166 554 q 303 548 255 549 q 397 547 351 547 q 488 548 444 547 q 570 552 532 549 q 636 557 607 554 q 681 566 665 561 z "},"":{"ha":1014,"x_min":57,"x_max":957,"o":"m 957 566 q 955 555 956 564 q 955 535 955 547 q 954 508 954 523 q 954 476 954 492 q 954 443 954 460 q 955 412 954 427 q 955 387 955 398 q 957 370 956 376 q 876 373 926 371 q 763 375 825 374 q 630 377 701 376 q 487 378 559 378 q 345 379 414 378 q 214 379 275 379 l 57 379 q 60 429 58 402 q 61 486 61 456 q 57 566 61 524 q 138 557 87 561 q 253 552 189 554 q 389 548 317 549 q 534 547 462 547 q 676 548 608 547 q 802 552 745 549 q 900 557 859 554 q 957 566 941 561 z "},"":{"ha":453,"x_min":31,"x_max":425,"o":"m 245 856 q 252 907 246 884 q 267 950 257 930 q 292 988 277 970 q 326 1025 307 1006 l 382 999 q 371 985 376 993 q 361 966 366 977 q 351 942 355 956 q 380 931 367 939 q 404 912 394 924 q 419 886 414 901 q 425 856 425 872 q 418 820 425 837 q 399 791 411 804 q 370 772 387 779 q 335 765 353 765 q 300 772 317 765 q 272 791 284 779 q 253 820 260 804 q 245 856 245 837 m 31 856 q 37 907 31 884 q 52 950 42 930 q 77 988 62 970 q 111 1025 92 1006 l 167 999 q 155 985 161 993 q 145 966 151 977 q 136 942 140 956 q 165 931 152 939 q 188 912 178 924 q 204 886 198 901 q 210 856 210 872 q 202 820 210 837 q 183 791 195 804 q 155 772 171 779 q 119 765 138 765 q 85 772 101 765 q 57 791 68 779 q 38 820 45 804 q 31 856 31 837 z "},"":{"ha":449,"x_min":25,"x_max":419,"o":"m 204 928 q 198 881 203 902 q 182 840 193 859 q 157 802 172 821 q 123 765 142 784 l 68 791 q 79 805 73 797 q 89 823 83 812 q 98 847 94 833 q 46 878 67 854 q 25 935 25 902 q 32 970 25 954 q 52 998 39 986 q 80 1018 64 1010 q 115 1025 96 1025 q 150 1018 134 1025 q 178 998 166 1010 q 197 967 190 985 q 204 928 204 949 m 419 935 q 413 883 418 906 q 397 841 408 861 q 373 802 387 821 q 339 765 358 784 l 283 791 q 294 805 288 797 q 303 823 298 812 q 314 847 309 833 q 261 878 282 854 q 240 935 240 902 q 247 970 240 954 q 267 998 254 986 q 295 1018 279 1010 q 330 1025 312 1025 q 365 1018 349 1025 q 393 998 381 1010 q 412 970 405 986 q 419 935 419 954 z "},"":{"ha":239,"x_min":32,"x_max":211,"o":"m 32 861 q 38 908 33 887 q 54 949 43 930 q 78 986 64 968 q 113 1023 93 1004 l 168 997 q 157 983 162 991 q 147 965 152 975 q 138 940 142 954 q 190 911 169 935 q 211 854 211 887 q 204 819 211 836 q 184 790 197 802 q 156 771 172 778 q 121 764 140 764 q 86 771 102 764 q 58 791 70 778 q 39 822 46 804 q 32 861 32 840 z "},"":{"ha":235,"x_min":26,"x_max":205,"o":"m 205 926 q 199 879 205 901 q 184 839 194 858 q 159 801 174 819 q 125 764 144 783 l 69 790 q 80 804 75 795 q 90 821 85 811 q 100 846 95 831 q 47 877 68 852 q 26 933 26 901 q 34 968 26 952 q 53 997 41 985 q 81 1016 65 1009 q 117 1023 98 1023 q 151 1016 135 1023 q 179 996 168 1009 q 198 965 191 983 q 205 926 205 947 z "},"":{"ha":610,"x_min":35,"x_max":574,"o":"m 574 566 q 572 555 572 564 q 571 535 572 547 q 571 508 571 523 q 571 476 571 492 q 571 443 571 460 q 571 412 571 427 q 572 387 572 398 q 574 370 572 376 q 371 377 479 375 q 151 379 263 379 l 35 379 q 37 429 36 402 q 39 486 39 456 q 35 566 39 524 q 101 557 65 561 q 175 552 136 554 q 253 548 213 549 q 332 547 293 547 q 408 548 371 547 q 476 552 444 549 q 532 557 507 554 q 574 566 557 561 m 390 681 q 383 646 390 663 q 364 618 376 630 q 336 598 352 606 q 301 591 319 591 q 266 598 283 591 q 237 618 250 606 q 218 646 225 630 q 211 681 211 663 q 218 716 211 699 q 237 745 225 732 q 266 764 250 757 q 301 771 283 771 q 336 764 319 771 q 364 745 352 757 q 383 716 376 732 q 390 681 390 699 m 390 241 q 383 207 390 223 q 364 179 376 191 q 336 160 352 167 q 301 153 319 153 q 266 160 283 153 q 237 179 250 167 q 218 207 225 191 q 211 241 211 223 q 218 277 211 260 q 237 305 225 293 q 266 325 250 317 q 301 332 283 332 q 336 325 319 332 q 364 305 352 317 q 383 277 376 293 q 390 241 390 260 z "},"":{"ha":460,"x_min":3,"x_max":458,"o":"m 458 864 q 314 540 395 734 q 140 102 233 347 q 106 109 125 106 q 67 114 90 112 q 20 117 45 117 l 3 117 q 63 238 32 172 q 126 375 95 304 q 188 517 158 446 q 244 655 218 589 q 291 779 270 722 q 323 878 311 836 l 458 864 z "},"":{"ha":440,"x_min":31,"x_max":400,"o":"m 371 78 q 243 138 306 110 q 188 163 217 151 q 132 188 159 176 q 78 209 104 199 q 31 227 52 219 q 34 274 33 250 q 35 318 35 297 q 34 356 35 339 q 33 387 33 374 q 31 415 31 402 q 70 437 47 423 q 118 467 93 450 q 170 502 144 484 q 222 537 197 519 q 343 625 280 578 l 400 446 q 275 403 342 429 q 143 338 208 377 q 192 309 168 321 q 244 286 215 297 q 310 263 273 275 q 400 235 347 252 l 371 78 z "},"":{"ha":440,"x_min":40,"x_max":410,"o":"m 40 235 q 130 263 93 252 q 196 286 168 275 q 249 309 225 297 q 297 338 272 321 q 165 403 232 377 q 40 446 98 429 l 97 625 q 218 537 160 578 q 270 502 243 519 q 321 467 296 484 q 369 437 347 450 q 410 415 392 423 q 408 387 408 402 q 406 318 406 361 q 407 274 406 297 q 410 227 408 250 q 362 209 388 219 q 308 188 336 199 q 252 163 280 176 q 197 138 223 151 q 69 78 134 110 l 40 235 z "},"":{"ha":517,"x_min":40,"x_max":475,"o":"m 475 932 q 473 922 473 930 q 472 904 473 915 q 472 879 472 892 q 472 850 472 865 q 472 820 472 835 q 472 791 472 804 q 473 767 473 778 q 475 750 473 756 q 405 753 437 752 q 340 755 372 754 q 339 675 339 715 q 339 595 339 635 q 340 415 339 504 q 346 237 342 326 q 398 238 374 237 q 439 239 421 238 q 475 240 459 239 q 473 231 473 238 q 472 212 473 223 q 472 187 472 201 q 472 158 472 173 q 472 99 472 127 q 475 58 473 71 l 357 64 q 363 -11 359 26 q 371 -86 367 -48 l 318 -86 q 278 -86 297 -86 q 240 -87 259 -87 q 201 -90 221 -88 q 160 -93 182 -91 q 162 -76 161 -90 q 165 -41 163 -62 q 168 7 166 -20 q 171 68 170 35 l 146 68 l 40 68 q 43 118 41 91 q 45 175 45 146 q 43 214 45 194 q 40 254 42 233 q 104 247 71 250 q 175 241 138 243 q 177 334 176 289 q 179 418 178 380 q 180 485 180 456 q 180 528 180 513 q 180 643 180 585 q 179 760 180 701 l 146 760 l 40 760 q 43 810 41 783 q 45 867 45 838 q 43 905 45 886 q 40 946 42 925 q 103 938 70 941 q 174 933 137 935 q 168 1026 172 980 q 160 1120 164 1073 q 207 1117 185 1118 q 249 1117 228 1117 q 306 1118 278 1117 q 367 1120 334 1118 q 356 1024 360 1071 q 349 929 352 977 q 399 929 376 929 q 439 930 422 930 q 475 932 459 931 z "},"":{"ha":268,"x_min":45,"x_max":224,"o":"m 224 498 q 217 464 224 480 q 197 436 210 448 q 169 417 185 424 q 135 410 153 410 q 100 417 116 410 q 71 436 83 424 q 52 464 59 448 q 45 498 45 480 q 52 534 45 517 q 71 562 59 550 q 100 582 83 574 q 135 589 116 589 q 169 582 153 589 q 197 562 185 574 q 217 534 210 550 q 224 498 224 517 z "},"":{"ha":256,"x_min":37,"x_max":216,"o":"m 216 64 q 210 13 216 35 q 195 -30 205 -10 q 170 -68 184 -50 q 136 -106 155 -87 l 81 -79 q 91 -65 85 -73 q 101 -47 96 -58 q 111 -22 106 -37 q 58 7 79 -17 q 37 64 37 31 q 44 99 37 83 q 64 127 52 115 q 93 147 76 140 q 127 154 109 154 q 162 147 146 154 q 190 127 178 140 q 209 99 202 115 q 216 64 216 83 z "},"":{"ha":471,"x_min":37,"x_max":432,"o":"m 216 64 q 210 13 216 35 q 195 -30 205 -10 q 170 -68 184 -50 q 136 -106 155 -87 l 81 -79 q 91 -65 85 -73 q 101 -47 96 -58 q 111 -22 106 -37 q 58 7 79 -17 q 37 64 37 31 q 44 99 37 83 q 64 127 52 115 q 93 147 76 140 q 127 154 109 154 q 162 147 146 154 q 190 127 178 140 q 209 99 202 115 q 216 64 216 83 m 432 64 q 426 13 431 35 q 410 -30 420 -10 q 385 -68 400 -50 q 351 -106 370 -87 l 296 -79 q 307 -65 301 -73 q 316 -47 311 -58 q 326 -22 321 -37 q 274 7 295 -17 q 253 64 253 31 q 260 99 253 83 q 279 127 267 115 q 308 147 292 140 q 343 154 324 154 q 378 147 361 154 q 406 127 394 140 q 425 99 418 115 q 432 64 432 83 z "},"":{"ha":342,"x_min":0,"x_max":342,"o":"m 342 1054 q 307 1043 322 1048 q 278 1034 292 1038 q 251 1024 264 1029 q 222 1015 238 1019 q 208 1067 216 1040 q 190 1116 199 1093 q 176 1154 182 1138 q 170 1175 170 1170 q 152 1111 160 1142 q 137 1057 144 1084 q 125 1011 130 1029 q 94 1024 109 1019 q 64 1034 79 1029 q 33 1043 49 1039 q 0 1053 18 1047 q 39 1126 18 1087 q 79 1200 60 1166 q 123 1280 101 1240 q 152 1278 138 1279 q 178 1278 165 1278 q 200 1278 189 1278 q 218 1279 210 1278 q 233 1280 227 1280 q 275 1189 254 1232 q 293 1151 283 1171 q 310 1114 302 1132 q 327 1080 319 1096 q 342 1054 335 1065 z "},"":{"ha":400,"x_min":0,"x_max":400,"o":"m 400 1133 q 366 1079 385 1103 q 324 1042 349 1059 q 268 1025 299 1025 q 232 1035 248 1025 q 201 1058 216 1045 q 171 1080 186 1070 q 138 1090 156 1090 q 100 1074 114 1090 q 68 1025 85 1057 l 0 1092 q 22 1137 11 1116 q 46 1172 33 1157 q 78 1195 60 1187 q 122 1203 96 1203 q 170 1194 150 1203 q 205 1174 189 1185 q 234 1154 220 1163 q 261 1145 247 1145 q 295 1156 280 1145 q 320 1181 309 1167 q 342 1217 332 1196 l 400 1133 z "},"":{"ha":318,"x_min":0,"x_max":318,"o":"m 318 1165 l 318 1039 l 0 1044 q 1 1067 1 1055 q 2 1089 2 1077 q 3 1116 3 1102 q 2 1142 3 1129 q 0 1165 1 1155 q 54 1164 22 1164 q 121 1164 85 1164 q 191 1164 156 1164 q 255 1164 227 1164 q 318 1165 288 1164 z "},"":{"ha":301,"x_min":1,"x_max":300,"o":"m 300 1253 l 300 1227 q 292 1149 300 1190 q 267 1075 284 1109 q 219 1020 249 1042 q 146 999 189 999 q 81 1016 108 999 q 36 1061 54 1032 q 10 1127 18 1089 q 1 1207 1 1165 q 2 1233 1 1219 q 4 1260 2 1246 l 110 1274 q 109 1250 109 1262 q 109 1225 109 1238 q 110 1186 109 1205 q 117 1152 112 1167 q 130 1127 121 1137 q 153 1118 138 1118 q 176 1130 166 1118 q 191 1161 185 1142 q 200 1204 197 1180 q 203 1251 203 1227 l 203 1270 q 234 1262 217 1265 q 266 1257 251 1259 q 300 1253 283 1254 z "},"":{"ha":144,"x_min":0,"x_max":144,"o":"m 144 1072 q 139 1045 144 1058 q 123 1022 133 1032 q 100 1007 113 1013 q 72 1002 87 1002 q 44 1007 58 1002 q 21 1022 31 1013 q 6 1045 12 1032 q 0 1072 0 1058 q 6 1100 0 1087 q 21 1123 12 1114 q 44 1139 31 1133 q 72 1145 58 1145 q 100 1139 87 1145 q 123 1123 113 1133 q 139 1100 133 1114 q 144 1072 144 1087 z "},"":{"ha":261,"x_min":0,"x_max":261,"o":"m 179 1125 q 164 1160 179 1146 q 129 1174 150 1174 q 96 1160 111 1174 q 81 1125 81 1146 q 85 1107 81 1116 q 96 1092 89 1099 q 111 1081 102 1085 q 129 1078 119 1078 q 164 1092 150 1078 q 179 1125 179 1106 m 261 1125 q 251 1076 261 1099 q 222 1035 240 1053 q 180 1007 204 1017 q 131 997 157 997 q 81 1007 104 997 q 39 1035 57 1017 q 11 1076 21 1053 q 0 1125 0 1099 q 11 1176 0 1152 q 39 1217 21 1200 q 81 1245 57 1235 q 131 1255 104 1255 q 180 1245 157 1255 q 222 1217 204 1235 q 251 1176 240 1200 q 261 1125 261 1152 z "},"":{"ha":180,"x_min":0,"x_max":180,"o":"m 180 -172 q 170 -215 180 -197 q 143 -247 160 -234 q 104 -266 126 -259 q 60 -272 83 -272 q 34 -270 45 -272 q 16 -265 23 -268 q 0 -258 7 -262 l 0 -183 q 10 -189 3 -186 q 25 -194 17 -192 q 41 -196 33 -195 q 54 -197 50 -197 q 81 -192 70 -197 q 93 -167 93 -186 q 89 -152 93 -158 q 77 -142 84 -146 q 62 -137 71 -138 q 47 -135 54 -135 q 28 -136 38 -135 q 8 -140 18 -137 l 66 14 l 115 14 l 92 -83 q 156 -107 132 -83 q 180 -172 180 -132 z "},"":{"ha":447,"x_min":0,"x_max":447,"o":"m 134 1276 q 170 1250 151 1264 q 205 1222 189 1235 q 243 1192 224 1207 l 64 999 l 0 1046 l 134 1276 m 338 1276 q 374 1250 355 1264 q 410 1222 393 1235 q 447 1192 429 1207 l 268 999 l 204 1046 l 338 1276 z "},"":{"ha":218,"x_min":0,"x_max":218,"o":"m 218 -176 q 157 -224 186 -208 q 92 -240 127 -240 q 54 -232 71 -240 q 25 -210 37 -224 q 7 -179 14 -197 q 0 -142 0 -161 q 4 -107 0 -127 q 21 -64 9 -87 q 56 -15 34 -41 q 113 39 78 12 l 160 21 q 140 -2 153 13 q 112 -37 126 -17 q 88 -79 98 -56 q 78 -123 78 -101 q 85 -141 78 -135 q 103 -147 92 -147 q 137 -134 123 -147 q 164 -106 151 -120 l 218 -176 z "},"":{"ha":342,"x_min":0,"x_max":342,"o":"m 342 1238 q 327 1211 335 1227 q 310 1178 319 1196 q 293 1140 302 1160 q 275 1103 283 1121 q 233 1011 254 1059 q 218 1013 227 1012 q 200 1014 210 1013 q 178 1014 189 1014 q 152 1013 165 1014 q 123 1011 138 1013 q 79 1091 101 1051 q 39 1165 60 1126 q 0 1239 18 1204 q 33 1249 18 1244 q 64 1258 49 1253 q 94 1267 79 1262 q 125 1280 109 1273 q 137 1235 130 1263 q 152 1181 144 1208 q 170 1117 160 1150 q 176 1138 170 1122 q 190 1176 182 1154 q 208 1224 199 1198 q 222 1276 216 1251 q 251 1267 238 1272 q 278 1258 264 1263 q 307 1248 292 1253 q 342 1238 322 1242 z "},"":{"ha":319,"x_min":57,"x_max":260,"o":"m 210 -86 q 174 -86 190 -86 q 141 -87 157 -87 q 106 -90 124 -88 q 66 -93 88 -91 q 73 90 71 -2 q 76 171 75 128 q 78 257 77 214 q 80 341 79 300 q 81 419 81 382 l 81 465 l 243 465 q 245 389 244 431 q 249 301 247 347 q 252 209 250 256 q 254 120 253 163 q 260 -86 257 19 l 210 -86 m 254 1120 q 249 1015 252 1076 q 244 885 246 954 q 240 747 241 817 q 239 612 239 676 l 77 612 q 74 683 75 644 q 71 763 73 722 q 67 847 69 805 q 64 930 66 890 q 57 1120 61 1023 q 103 1117 82 1118 q 143 1117 123 1117 q 195 1118 169 1117 q 254 1120 222 1118 z "},"":{"ha":657,"x_min":58,"x_max":597,"o":"m 597 566 q 596 555 596 564 q 595 535 595 547 q 595 508 595 523 q 595 476 595 492 q 595 443 595 460 q 595 412 595 427 q 596 387 595 398 q 597 370 596 376 q 395 377 503 375 q 175 379 287 379 l 58 379 q 61 429 60 402 q 62 486 62 456 q 58 566 62 524 q 124 557 89 561 q 198 552 160 554 q 277 548 237 549 q 355 547 317 547 q 431 548 395 547 q 499 552 468 549 q 556 557 531 554 q 597 566 581 561 z "},"":{"ha":593,"x_min":29,"x_max":561,"o":"m 561 332 q 548 321 558 330 q 525 299 538 313 q 496 271 511 286 q 466 240 480 255 q 439 213 451 225 q 422 193 428 200 q 358 263 392 227 q 288 339 324 300 q 223 274 255 307 q 161 210 192 242 q 102 274 135 239 q 29 342 70 309 q 97 395 60 365 q 170 460 133 425 q 109 521 139 491 q 49 581 79 551 q 113 638 78 606 q 180 713 148 671 q 231 649 202 682 q 292 579 259 615 q 365 661 334 623 q 410 722 396 699 q 420 710 411 720 q 442 686 429 700 q 471 657 455 673 q 502 627 486 642 q 529 601 517 612 q 549 583 542 589 q 481 522 516 554 q 411 457 447 490 q 496 379 457 412 q 561 332 536 345 z "},"":{"ha":595,"x_min":-93,"x_max":581,"o":"m 328 -14 q 315 -134 328 -79 q 273 -227 302 -188 q 199 -286 245 -265 q 87 -307 153 -307 q 8 -294 42 -307 q -48 -258 -26 -280 q -82 -209 -71 -236 q -93 -155 -93 -182 q -85 -103 -93 -127 q -65 -62 -78 -79 q -34 -35 -52 -45 q 5 -25 -16 -25 q 44 -32 26 -25 q 76 -51 62 -39 q 98 -79 90 -63 q 106 -113 106 -95 q 105 -122 106 -115 q 102 -142 104 -130 q 94 -167 100 -153 q 79 -195 89 -181 q 131 -179 113 -195 q 159 -135 150 -163 q 170 -69 168 -107 q 172 14 172 -31 q 171 183 172 98 q 169 349 170 269 q 165 504 167 430 q 163 640 163 578 q 121 637 142 639 q 81 633 100 635 l 74 794 q 117 790 95 792 q 160 787 138 789 l 160 822 q 173 942 160 888 q 215 1034 186 996 q 289 1094 243 1073 q 400 1116 335 1116 q 479 1102 445 1116 q 535 1066 513 1088 q 569 1017 557 1044 q 581 964 581 990 q 573 912 581 936 q 552 870 566 888 q 521 843 539 853 q 482 833 503 833 q 443 841 461 833 q 411 860 425 848 q 390 887 397 871 q 382 921 382 903 q 382 930 382 922 q 385 950 382 938 q 393 976 388 962 q 408 1003 398 989 q 356 987 374 1003 q 328 942 337 970 q 317 876 319 914 q 315 794 315 838 l 315 786 q 397 788 356 786 q 479 794 437 791 l 471 633 q 394 639 432 637 q 317 643 355 642 l 328 -14 z "},"":{"ha":289,"x_min":37,"x_max":250,"o":"m 37 -233 q 74 149 58 -37 q 98 521 90 335 l 204 521 q 217 142 206 333 q 250 -233 229 -49 l 37 -233 m 60 679 q 67 713 60 697 q 86 742 74 730 q 114 761 98 754 q 149 768 130 768 q 184 761 168 768 q 212 742 200 754 q 232 713 224 730 q 239 679 239 697 q 232 644 239 661 q 212 615 224 627 q 184 596 200 603 q 149 589 168 589 q 114 596 130 589 q 86 615 98 603 q 67 644 74 627 q 60 679 60 661 z "},"":{"ha":621,"x_min":28,"x_max":596,"o":"m 28 36 q 43 130 28 89 q 83 205 58 170 q 137 274 107 241 q 195 345 166 307 q 247 427 223 382 q 285 530 271 471 l 397 533 q 378 409 393 462 q 341 314 362 356 q 297 236 320 271 q 255 165 274 200 q 222 91 235 130 q 210 1 210 52 q 223 -55 210 -31 q 257 -97 237 -80 q 300 -123 277 -115 q 343 -132 323 -132 q 359 -129 350 -132 q 377 -122 366 -126 q 401 -109 388 -117 q 374 -75 384 -92 q 361 -44 365 -58 q 355 -12 355 -28 q 365 40 355 18 q 391 77 374 62 q 429 100 407 92 q 478 107 452 107 q 522 98 500 107 q 559 73 543 90 q 586 33 576 56 q 596 -20 596 9 q 572 -114 596 -73 q 509 -183 549 -155 q 419 -224 470 -210 q 313 -239 368 -239 q 209 -225 260 -239 q 118 -180 158 -212 q 53 -96 77 -149 q 28 36 28 -43 m 236 689 q 244 726 236 709 q 265 757 252 744 q 296 778 278 770 q 334 786 314 786 q 371 778 353 786 q 401 757 388 770 q 422 726 414 744 q 429 689 429 709 q 422 652 429 669 q 401 621 414 634 q 371 600 388 608 q 334 593 353 593 q 296 600 314 593 q 265 621 278 608 q 244 652 252 634 q 236 689 236 669 z "},"":{"ha":281,"x_min":40,"x_max":240,"o":"m 240 787 q 223 558 229 671 q 218 330 218 444 q 222 149 218 238 q 232 -31 226 60 l 50 -36 q 58 139 56 52 q 60 314 60 226 q 55 549 60 432 q 40 785 51 667 l 240 787 z "},"":{"ha":408,"x_min":28,"x_max":376,"o":"m 267 507 q 261 532 263 519 q 258 558 260 545 q 205 515 235 530 q 139 501 174 501 q 101 506 121 501 q 66 524 82 511 q 39 559 50 537 q 29 614 29 581 q 39 662 29 641 q 63 698 48 682 q 97 725 79 713 q 135 746 116 736 q 171 762 154 755 q 200 778 189 770 q 235 807 220 791 q 260 840 250 823 q 253 889 258 871 q 239 918 248 908 q 218 932 230 928 q 189 936 205 936 q 156 926 170 934 q 134 908 142 919 q 151 894 145 902 q 161 880 157 886 q 165 864 164 872 q 147 822 165 837 q 100 807 128 807 q 51 829 71 807 q 32 886 32 852 q 41 923 32 903 q 70 958 50 942 q 122 985 90 975 q 197 996 153 996 q 274 981 242 996 q 326 942 306 966 q 356 886 347 918 q 366 819 366 854 q 365 759 366 791 q 364 692 364 726 q 367 593 364 641 q 376 513 369 545 l 267 507 m 376 343 l 28 349 q 29 364 28 356 q 30 380 30 372 q 31 400 31 389 q 30 421 31 410 q 28 441 29 431 q 84 440 50 440 q 157 440 118 440 q 234 440 195 440 q 305 441 273 440 q 376 441 342 441 l 376 343 m 260 745 q 242 728 252 736 q 224 715 233 721 q 193 695 209 706 q 162 673 176 685 q 140 649 149 662 q 131 623 131 637 q 141 592 131 605 q 171 579 152 579 q 200 587 187 579 q 224 606 214 594 q 242 630 235 617 q 256 656 250 644 q 257 700 256 677 q 260 745 258 723 z "},"":{"ha":419,"x_min":22,"x_max":396,"o":"m 396 758 q 384 656 396 703 q 347 575 371 610 q 288 522 323 541 q 210 503 254 503 q 133 522 168 503 q 74 575 98 541 q 36 656 50 610 q 22 758 22 703 q 35 859 22 813 q 72 937 48 904 q 131 987 96 969 q 210 1006 165 1006 q 290 987 255 1006 q 348 937 324 969 q 384 859 372 904 q 396 758 396 813 m 285 758 q 281 837 285 802 q 270 897 278 871 q 247 935 261 922 q 210 949 232 949 q 172 935 186 949 q 149 897 157 922 q 137 837 140 871 q 134 758 134 802 q 137 679 134 715 q 149 616 140 643 q 173 574 158 589 q 210 559 187 559 q 248 574 233 559 q 271 616 262 589 q 282 679 279 643 q 285 758 285 715 m 383 343 l 35 349 q 36 364 35 356 q 37 380 37 372 q 37 400 37 389 q 37 421 37 410 q 35 441 36 431 q 91 440 56 440 q 164 440 125 440 q 241 440 203 440 q 312 441 280 440 q 383 441 349 441 l 383 343 z "},"":{"ha":917,"x_min":49,"x_max":897,"o":"m 897 -16 q 678 -12 771 -13 q 519 -11 585 -11 q 452 -11 480 -11 q 404 -12 423 -12 q 367 -12 382 -12 l 367 -11 l 367 -7 q 385 139 375 66 q 403 289 395 212 q 306 293 351 293 q 262 292 283 293 q 227 290 242 292 q 231 216 229 255 q 237 136 234 176 q 245 57 241 96 q 254 -17 249 18 l 62 -22 q 64 29 64 3 q 64 81 64 55 q 61 185 64 133 q 56 290 59 237 q 51 396 54 342 q 49 504 49 449 q 53 621 49 562 q 67 735 56 680 q 97 839 78 791 q 146 924 116 888 q 221 981 177 960 q 325 1002 265 1002 q 383 996 357 1002 q 432 979 409 989 q 572 976 511 977 q 685 974 634 974 q 773 975 736 974 q 834 977 810 976 q 880 981 862 979 q 880 968 880 981 q 881 935 880 956 q 883 887 882 913 q 889 833 885 861 q 751 843 810 841 q 650 846 692 846 q 618 846 632 846 q 593 844 604 846 q 591 713 591 774 q 591 595 591 651 l 591 578 q 677 582 639 579 q 741 587 715 584 q 794 595 771 591 q 793 584 793 590 q 793 571 793 578 q 793 554 793 564 q 794 502 793 532 q 800 437 795 472 q 674 449 726 447 q 591 452 621 452 q 594 231 591 314 q 599 107 597 148 q 723 114 669 109 q 814 125 777 119 q 871 136 852 131 q 890 142 890 140 q 890 134 890 138 q 889 125 889 131 q 889 113 889 120 q 890 62 889 94 q 897 -16 892 30 m 218 433 q 258 432 239 432 q 297 432 278 432 q 414 436 370 432 q 422 536 418 485 q 427 644 427 587 q 403 818 427 759 q 332 878 379 878 q 242 808 273 878 q 212 591 212 739 q 214 521 212 559 q 218 433 215 484 z "},"":{"ha":886,"x_min":29,"x_max":861,"o":"m 861 146 q 843 71 861 106 q 793 9 825 35 q 720 -31 762 -16 q 631 -46 678 -46 q 564 -37 597 -46 q 498 -5 530 -27 q 441 53 467 17 q 396 142 414 89 q 313 11 368 57 q 186 -36 258 -36 q 132 -27 159 -36 q 81 2 104 -19 q 44 59 58 23 q 29 151 29 96 q 43 232 29 197 q 78 292 56 266 q 127 336 100 317 q 181 370 154 355 q 232 398 208 385 q 272 424 256 411 q 324 474 302 448 q 359 530 346 501 q 350 607 357 577 q 331 655 342 637 q 303 681 319 673 q 265 688 286 688 q 213 674 234 688 q 178 642 191 661 q 204 618 195 631 q 218 595 213 606 q 224 568 223 582 q 198 498 224 522 q 131 473 172 473 q 92 483 110 473 q 61 511 75 493 q 41 553 48 528 q 33 606 33 577 q 46 666 33 634 q 87 725 59 698 q 161 771 116 753 q 269 789 205 789 q 372 767 329 789 q 444 710 415 745 q 530 778 483 758 q 625 798 578 798 q 711 783 671 798 q 783 740 752 768 q 831 670 813 711 q 848 574 848 628 q 828 475 848 525 q 769 381 808 425 q 672 300 730 336 q 539 243 614 264 q 551 166 543 201 q 570 107 558 132 q 598 69 582 83 q 635 56 614 56 q 661 60 648 56 q 683 71 671 64 q 701 93 694 79 q 674 114 684 101 q 661 138 665 127 q 654 167 655 152 q 667 220 654 199 q 697 252 680 240 q 733 268 715 263 q 762 272 751 272 q 791 267 774 272 q 823 249 808 262 q 850 211 839 235 q 861 146 861 186 m 690 530 q 692 551 692 541 q 693 572 693 562 q 689 619 693 597 q 676 657 684 641 q 655 683 667 673 q 627 693 643 693 q 581 668 599 693 q 552 600 563 642 q 537 503 541 558 q 533 389 533 448 l 533 339 q 613 395 583 362 q 661 458 644 427 q 690 530 682 493 m 358 370 q 333 343 346 356 q 307 321 321 330 q 263 289 287 307 q 220 252 240 271 q 187 211 200 232 q 174 167 174 189 q 189 115 174 136 q 231 93 203 93 q 275 106 256 93 q 310 139 295 119 q 336 182 326 159 q 353 224 347 205 q 354 296 353 259 q 358 370 356 333 z "},"":{"ha":700,"x_min":33,"x_max":667,"o":"m 642 975 q 617 924 631 954 q 587 860 603 895 q 647 693 628 788 q 667 486 667 597 q 646 283 667 378 q 586 117 626 188 q 487 5 546 46 q 350 -36 427 -36 q 280 -26 312 -36 q 220 0 248 -17 l 196 -65 q 147 -35 170 -49 q 107 -11 127 -22 q 75 5 87 1 q 99 49 87 26 q 123 97 111 72 q 56 270 79 170 q 33 486 33 370 q 53 689 33 594 q 111 854 72 784 q 210 966 151 925 q 350 1007 270 1007 q 434 994 396 1007 q 504 957 473 981 q 515 987 511 972 q 524 1014 519 1001 l 642 975 m 350 893 q 285 861 311 893 q 242 774 258 829 q 218 645 226 719 q 211 486 211 570 q 213 387 211 435 q 222 297 216 340 q 283 430 253 362 q 343 563 314 497 q 398 691 372 629 q 447 808 425 753 q 408 871 431 848 q 350 893 384 893 m 489 486 q 487 560 489 524 q 484 629 486 595 q 430 508 457 570 q 376 381 403 445 q 322 253 349 317 q 271 129 295 189 q 350 78 302 78 q 414 110 387 78 q 457 198 440 142 q 481 327 474 253 q 489 486 489 401 z "},"":{"ha":586,"x_min":31,"x_max":557,"o":"m 545 787 q 522 742 534 766 q 497 688 511 717 q 542 569 528 637 q 557 419 557 501 q 556 396 557 408 q 555 374 555 385 q 532 209 551 285 q 480 79 513 134 q 399 -7 447 24 q 288 -39 351 -39 q 235 -34 259 -39 q 189 -20 211 -29 l 165 -79 q 117 -49 140 -63 q 77 -25 97 -37 q 45 -8 56 -14 q 65 26 54 5 q 92 72 77 46 q 45 196 60 125 q 31 353 31 267 q 48 533 31 451 q 100 674 66 615 q 185 766 134 733 q 301 799 235 799 q 408 774 361 799 q 418 802 414 788 q 427 827 423 815 l 545 787 m 309 690 q 263 665 284 690 q 226 590 242 639 q 201 471 210 541 q 192 313 192 401 l 192 271 q 237 367 214 317 q 282 466 260 417 q 325 563 304 515 q 363 654 345 611 q 338 681 352 671 q 309 690 325 690 m 393 454 q 314 272 355 366 q 236 90 274 179 q 278 69 254 69 q 323 92 304 69 q 355 155 342 114 q 377 253 369 196 q 390 380 385 311 l 393 454 z "},"":{"ha":633,"x_min":41,"x_max":595,"o":"m 45 904 q 69 1026 45 974 q 132 1114 93 1079 q 221 1167 172 1149 q 321 1185 270 1185 q 418 1171 372 1185 q 499 1131 464 1157 q 554 1068 534 1105 q 575 987 575 1032 q 560 916 575 942 q 525 876 545 889 q 483 858 505 862 q 449 854 462 854 q 414 861 432 854 q 382 879 397 867 q 358 909 368 891 q 349 950 349 926 q 352 980 349 965 q 360 1008 355 993 q 376 1036 366 1023 q 355 1051 366 1046 q 336 1059 345 1057 q 317 1063 326 1062 q 278 1056 298 1063 q 243 1035 259 1049 q 217 1001 227 1021 q 207 953 207 980 q 217 894 207 920 q 249 843 227 868 q 304 793 271 819 q 385 739 338 768 q 479 669 439 704 q 545 598 519 635 q 583 521 570 562 q 595 435 595 481 q 581 330 595 375 q 545 250 568 285 q 583 174 570 214 q 595 87 595 134 q 568 -57 595 1 q 498 -148 541 -114 q 404 -196 456 -182 q 301 -210 351 -210 q 203 -196 250 -210 q 120 -154 157 -182 q 63 -84 84 -126 q 41 14 41 -43 q 55 87 41 58 q 87 134 68 116 q 130 158 107 151 q 171 165 152 165 q 212 159 191 165 q 251 139 233 153 q 279 100 268 124 q 290 40 290 76 q 289 28 290 39 q 282 1 288 16 q 261 -28 275 -14 q 221 -50 247 -43 q 241 -71 230 -62 q 265 -85 253 -79 q 288 -94 277 -91 q 309 -97 300 -97 q 349 -91 326 -97 q 391 -70 371 -85 q 425 -32 411 -56 q 439 29 439 -7 q 424 105 439 72 q 387 164 410 138 q 336 209 364 189 q 282 243 309 228 q 240 267 264 253 q 189 301 215 281 q 137 345 163 320 q 91 401 111 370 q 57 471 70 433 q 45 557 45 510 q 59 656 45 612 q 100 733 74 700 q 60 809 75 767 q 45 904 45 851 m 439 376 q 424 452 439 419 q 387 511 410 486 q 336 556 364 536 q 282 590 309 575 q 248 608 267 597 q 210 632 229 618 q 207 620 208 626 q 207 606 207 613 q 217 547 207 573 q 249 496 227 521 q 304 446 271 471 q 385 392 338 421 l 437 355 q 438 365 437 359 q 439 376 439 370 z "},"":{"ha":532,"x_min":24,"x_max":501,"o":"m 460 368 q 457 349 458 365 q 457 314 457 334 q 457 276 457 294 q 460 250 458 258 q 401 252 431 252 q 340 253 372 253 q 342 226 342 239 q 343 199 343 212 q 412 203 381 200 q 460 210 442 205 q 457 191 458 206 q 457 155 457 175 q 457 117 457 136 q 460 90 458 98 l 350 94 q 355 32 352 63 q 361 -29 357 1 l 196 -36 q 200 31 198 -3 q 204 97 203 64 l 175 97 q 131 96 153 97 q 87 96 109 96 q 90 125 89 109 q 90 157 90 140 q 90 183 90 170 q 87 210 90 196 q 144 204 113 206 q 208 200 175 201 q 209 227 208 214 q 210 256 210 241 l 87 256 q 90 284 89 269 q 90 317 90 300 q 90 342 90 330 q 87 368 90 355 q 136 362 109 365 q 191 358 162 360 q 110 566 152 464 q 24 771 68 668 q 109 775 64 772 q 193 783 155 777 q 230 582 213 682 q 275 385 247 482 q 316 582 299 484 q 349 778 334 681 q 425 769 387 772 q 501 766 463 766 q 431 563 463 664 q 370 358 399 462 q 422 362 399 359 q 460 368 445 365 z "},"":{"ha":608,"x_min":54,"x_max":572,"o":"m 396 -7 q 399 45 397 20 q 403 93 401 70 q 354 31 380 52 q 305 -2 328 9 q 253 -17 279 -14 q 224 -14 239 -17 q 228 -133 226 -76 q 231 -233 230 -189 q 235 -328 233 -283 l 186 -328 q 154 -328 168 -328 q 124 -329 139 -328 q 93 -331 110 -330 q 54 -335 76 -333 q 56 -168 55 -254 q 56 -91 56 -132 q 57 -7 56 -50 q 57 79 57 35 q 57 163 57 122 q 56 238 57 203 q 56 307 56 274 q 56 372 56 340 q 60 433 57 403 q 66 559 62 498 q 71 612 68 585 q 75 666 73 640 q 80 716 77 692 q 86 758 83 740 l 258 739 q 233 595 242 659 q 220 487 224 532 q 215 396 216 435 q 219 284 215 332 q 234 204 223 236 q 263 157 244 173 q 310 142 281 142 q 349 169 330 145 q 366 195 357 179 q 383 234 374 211 q 399 288 391 257 q 415 361 408 319 q 416 440 416 401 q 416 526 416 480 q 416 633 416 575 q 415 762 416 690 l 570 760 q 564 664 566 708 q 561 582 562 621 q 559 510 559 544 q 558 444 558 476 q 559 349 558 395 q 563 249 561 302 q 567 134 565 197 q 572 -9 570 71 l 396 -7 z "},"":{"ha":997,"x_min":33,"x_max":978,"o":"m 880 437 q 754 449 807 447 q 672 452 702 452 q 673 326 672 381 q 674 229 673 271 q 676 157 675 186 q 679 107 677 127 q 803 114 748 109 q 895 125 857 119 q 951 136 932 131 q 971 142 971 140 q 970 134 970 138 q 970 125 970 131 q 970 113 970 120 q 971 62 970 94 q 978 -16 972 30 q 875 -14 922 -14 q 786 -14 828 -14 q 649 -15 704 -14 q 559 -18 593 -17 q 494 -22 518 -20 l 497 12 q 429 -23 466 -11 q 350 -36 393 -36 q 212 5 271 -36 q 113 117 153 46 q 53 283 73 188 q 33 486 33 378 q 53 689 33 594 q 111 854 72 784 q 210 966 151 925 q 350 1007 270 1007 q 429 995 393 1007 q 496 962 465 983 q 495 971 496 966 q 494 981 494 977 q 646 976 579 977 q 765 974 713 974 q 854 975 817 974 q 915 977 891 976 q 961 981 943 979 q 961 968 961 981 q 962 935 961 956 q 964 887 962 913 q 970 833 966 861 q 832 843 891 841 q 730 846 772 846 q 700 846 713 846 q 675 844 686 846 q 673 703 673 769 q 672 578 672 637 q 758 582 720 579 q 821 587 795 584 q 875 595 852 591 q 874 584 874 590 q 873 571 873 578 q 873 554 873 564 q 875 502 873 532 q 880 437 876 472 m 489 486 q 482 645 489 570 q 459 774 475 719 q 417 861 444 829 q 350 893 390 893 q 285 861 311 893 q 242 774 258 829 q 218 645 226 719 q 211 486 211 570 q 218 327 211 401 q 242 198 226 253 q 286 110 259 142 q 350 78 312 78 q 414 110 387 78 q 457 198 440 142 q 481 327 474 253 q 489 486 489 401 z "},"":{"ha":922,"x_min":31,"x_max":897,"o":"m 897 146 q 879 71 897 106 q 829 9 861 35 q 756 -31 798 -16 q 667 -46 714 -46 q 614 -40 641 -46 q 562 -22 587 -35 q 513 12 536 -9 q 469 62 489 33 q 392 -12 437 14 q 288 -39 347 -39 q 172 -9 220 -39 q 92 72 123 20 q 45 196 60 124 q 31 353 31 268 q 48 533 31 451 q 100 674 66 615 q 185 766 134 733 q 301 799 235 799 q 406 776 361 799 q 482 711 450 753 q 568 778 521 758 q 661 798 615 798 q 747 783 707 798 q 819 740 788 768 q 867 670 849 711 q 885 574 885 628 q 865 475 885 525 q 806 381 845 425 q 708 300 766 336 q 575 243 650 264 q 587 166 579 201 q 606 107 594 132 q 634 69 618 83 q 671 56 650 56 q 696 60 684 56 q 719 71 707 64 q 737 93 730 79 q 710 114 720 101 q 696 138 701 127 q 690 167 691 152 q 703 220 690 199 q 734 252 716 240 q 770 268 751 263 q 799 272 788 272 q 827 267 810 272 q 859 249 844 262 q 886 211 875 235 q 897 146 897 186 m 390 380 q 392 426 391 404 q 393 469 393 448 q 389 562 393 521 q 373 631 384 603 q 347 675 363 660 q 309 690 331 690 q 263 665 284 690 q 226 590 242 639 q 201 471 210 541 q 192 313 192 401 q 197 211 192 256 q 214 134 203 165 q 240 86 224 102 q 278 69 256 69 q 323 92 304 69 q 355 155 342 114 q 377 253 369 196 q 390 380 385 311 m 726 530 q 728 551 728 541 q 729 572 729 562 q 725 619 729 597 q 712 657 720 641 q 691 683 703 673 q 663 693 679 693 q 617 668 635 693 q 588 600 599 642 q 574 503 578 558 q 570 389 570 448 l 570 339 q 649 395 619 362 q 697 458 680 427 q 726 530 717 493 z "},"":{"ha":669,"x_min":24,"x_max":629,"o":"m 461 513 q 454 494 459 510 q 445 458 450 477 q 436 419 440 438 q 432 393 433 401 q 372 395 403 395 q 307 396 340 396 l 307 374 l 307 343 q 374 347 344 345 q 422 353 405 349 q 416 334 420 350 q 406 299 411 319 q 398 261 401 279 q 393 235 394 243 q 355 235 374 235 q 315 237 335 236 q 331 159 321 195 q 356 96 341 123 q 392 54 372 69 q 440 39 413 39 q 481 52 463 40 q 511 82 497 61 q 528 142 526 103 q 507 138 517 138 q 481 143 494 138 q 459 159 469 149 q 444 183 450 170 q 437 214 437 197 q 449 256 437 239 q 476 283 460 273 q 506 297 491 293 q 526 301 520 301 q 549 297 532 301 q 584 279 566 294 q 616 234 602 264 q 629 154 629 205 q 611 65 629 103 q 564 3 592 28 q 500 -34 535 -22 q 433 -46 466 -46 q 347 -30 389 -46 q 268 21 304 -14 q 204 111 232 56 q 163 240 177 165 l 92 240 l 24 240 q 40 292 31 263 q 53 353 49 321 q 99 348 74 349 q 151 345 124 346 l 151 379 l 151 399 l 132 399 l 64 399 q 79 451 71 422 q 92 513 87 480 q 124 507 106 509 q 161 504 142 505 q 202 634 174 581 q 267 721 230 687 q 345 769 303 754 q 428 785 387 785 q 511 771 476 785 q 569 736 547 758 q 603 689 592 715 q 614 637 614 663 q 589 559 614 587 q 528 532 564 532 q 497 537 513 532 q 470 553 482 543 q 450 578 458 563 q 443 612 443 593 q 446 635 443 623 q 452 657 448 645 q 465 682 456 670 q 448 694 457 690 q 432 701 439 699 q 415 704 423 703 q 374 688 391 704 q 344 645 356 672 q 324 580 332 617 q 313 501 317 543 q 399 504 359 501 q 461 513 439 506 z "},"":{"ha":882,"x_min":57,"x_max":822,"o":"m 714 475 q 720 553 718 517 q 724 615 722 589 q 725 671 725 646 q 724 699 725 683 q 723 730 724 712 q 721 770 722 748 q 683 634 702 701 q 659 503 664 568 l 557 503 q 522 660 539 588 q 484 800 505 732 q 482 736 481 764 q 482 688 482 707 q 481 665 482 675 q 480 636 480 655 q 484 583 481 616 q 494 492 486 550 l 378 489 q 390 615 387 564 q 393 697 393 666 q 391 742 393 728 q 390 760 390 756 q 390 802 390 777 q 389 852 389 826 q 387 904 388 878 q 385 949 386 929 l 433 949 q 475 949 456 949 q 507 949 493 949 q 534 950 522 949 q 561 793 546 867 q 599 646 576 718 q 650 808 629 733 q 681 956 671 883 q 708 954 695 954 q 730 954 720 954 q 795 956 774 954 q 815 958 807 957 q 810 893 812 926 q 807 831 808 861 q 806 777 806 802 q 806 734 806 751 q 806 693 806 722 q 809 628 807 665 q 813 553 810 592 q 822 481 817 514 l 714 475 m 248 484 q 202 481 224 484 q 157 475 181 478 q 164 604 162 543 q 167 721 167 664 q 166 802 167 762 q 161 880 165 842 l 64 875 q 61 914 62 898 q 57 953 59 930 l 127 953 q 239 954 184 953 q 353 958 293 955 q 350 931 351 943 q 349 907 349 920 q 349 898 349 903 q 350 888 350 893 l 252 885 q 250 829 250 857 q 250 772 250 801 q 262 484 250 627 l 248 484 z "},"":{"ha":449,"x_min":37,"x_max":411,"o":"m 37 757 q 52 846 37 810 q 92 906 66 883 q 151 940 117 929 q 224 950 185 950 q 297 939 262 950 q 356 904 331 928 q 396 844 382 881 q 411 757 411 808 q 396 669 411 706 q 356 609 382 633 q 297 575 331 586 q 224 564 262 564 q 151 574 185 564 q 92 609 117 585 q 52 669 66 632 q 37 757 37 705 m 83 760 q 94 686 83 716 q 124 635 105 655 q 169 607 143 616 q 222 597 194 597 q 276 607 251 597 q 319 636 301 616 q 349 686 338 656 q 359 760 359 717 q 349 834 359 803 q 319 884 338 865 q 276 913 301 904 q 222 922 251 922 q 169 913 194 922 q 124 885 143 905 q 94 835 105 866 q 83 760 83 804 m 252 632 q 245 644 247 637 q 241 656 243 651 q 240 669 240 663 l 240 676 q 238 697 240 686 q 232 720 237 709 q 217 738 227 730 q 193 745 208 745 l 186 745 l 186 636 l 132 635 q 136 672 135 649 q 138 716 138 695 q 138 752 138 738 q 139 764 138 766 q 138 812 138 789 q 137 851 137 832 q 135 880 136 871 q 173 887 158 885 q 197 888 188 888 q 210 887 206 888 q 212 886 213 886 q 242 883 227 886 q 269 871 257 879 q 289 849 281 863 q 297 817 297 836 q 288 794 294 805 q 273 775 283 785 q 249 761 264 766 q 272 747 264 756 q 283 727 280 739 q 286 702 286 715 q 287 675 286 688 q 292 651 288 663 q 307 631 296 639 l 252 632 m 249 815 q 241 835 247 826 q 226 848 235 842 q 201 854 217 854 q 193 854 197 854 q 183 852 189 854 l 183 775 q 191 774 188 774 q 197 774 194 774 q 224 780 214 774 q 239 794 234 787 q 249 815 246 803 z "},"":{"ha":648,"x_min":45,"x_max":604,"o":"m 45 479 q 67 614 45 559 q 126 703 89 669 q 215 753 164 737 q 323 768 266 768 q 433 752 382 768 q 522 701 484 736 q 582 611 560 666 q 604 479 604 557 q 582 349 604 404 q 522 258 560 294 q 433 206 484 223 q 323 189 382 189 q 215 205 266 189 q 126 257 164 222 q 67 347 89 292 q 45 479 45 401 m 114 484 q 130 372 114 418 q 174 296 146 326 q 240 253 202 267 q 321 239 277 239 q 401 253 363 239 q 467 297 439 267 q 511 373 495 327 q 528 484 528 419 q 511 594 528 548 q 467 670 495 640 q 401 713 439 699 q 321 726 363 726 q 240 713 277 726 q 174 672 202 701 q 130 596 146 643 q 114 484 114 550 m 446 372 q 435 329 446 347 q 407 299 424 311 q 370 282 390 288 q 332 277 350 277 q 272 288 301 277 q 219 324 242 300 q 182 387 197 349 q 168 479 168 425 q 183 570 168 533 q 220 630 197 607 q 272 662 243 652 q 329 672 300 672 q 378 666 357 672 q 411 649 398 659 q 431 627 425 640 q 437 603 437 615 q 422 566 437 580 q 386 551 408 551 q 369 554 378 551 q 354 562 361 557 q 342 573 347 566 q 338 590 338 581 q 339 601 338 595 q 350 624 341 612 q 341 630 346 628 q 331 633 336 632 q 321 635 326 635 q 290 621 302 635 q 271 585 278 608 q 261 534 264 563 q 258 476 258 506 q 262 418 258 446 q 275 366 266 389 q 298 329 283 343 q 335 315 313 315 q 359 321 348 316 q 376 336 368 326 q 385 366 383 347 q 378 364 381 364 q 374 364 376 364 q 347 374 359 364 q 335 400 335 385 q 341 420 335 412 q 357 433 348 428 q 373 439 366 437 q 385 441 381 441 q 398 440 389 441 q 419 431 408 438 q 437 410 429 424 q 446 372 446 396 z "},"":{"ha":615,"x_min":50,"x_max":602,"o":"m 602 530 q 568 373 601 441 q 483 259 535 305 q 366 189 430 213 q 237 165 301 165 l 224 165 q 228 80 225 132 q 236 -43 230 29 q 163 -37 196 -39 q 104 -36 130 -36 q 81 -36 91 -36 q 64 -37 71 -37 q 50 -37 56 -37 q 56 69 54 16 q 61 173 59 122 q 64 272 63 224 q 66 361 65 319 q 69 549 68 459 q 68 739 69 649 q 66 818 67 778 q 65 894 66 857 q 63 962 64 930 q 60 1014 62 993 l 244 1031 l 244 838 q 306 836 269 838 q 382 825 342 833 q 461 797 422 816 q 532 744 500 778 q 582 657 563 709 q 602 530 602 606 m 427 525 q 415 613 427 576 q 380 674 404 650 q 320 710 357 698 q 235 725 284 722 q 230 600 232 666 q 227 472 229 534 q 225 356 226 410 q 224 269 224 303 q 313 292 275 273 q 376 345 351 311 q 414 424 401 378 q 427 525 427 469 z "},"":{"ha":602,"x_min":29,"x_max":568,"o":"m 29 -272 q 39 -130 35 -207 q 47 32 43 -53 q 53 207 50 117 q 57 388 56 296 q 60 569 59 479 q 61 745 61 660 q 60 910 61 831 q 57 1055 59 988 l 211 1057 q 204 866 207 970 q 199 646 201 762 q 269 747 228 710 q 355 785 311 785 q 446 763 406 785 q 513 693 486 741 q 554 572 540 646 q 568 395 568 498 q 549 195 568 276 q 496 64 529 114 q 423 -7 464 14 q 339 -29 382 -29 q 294 -19 317 -28 q 249 5 273 -12 q 199 52 224 21 q 204 -122 201 -39 q 211 -275 207 -205 l 29 -272 m 197 347 l 197 187 q 215 159 205 174 q 236 133 225 145 q 260 114 248 121 q 286 106 273 106 q 327 122 307 106 q 362 175 347 139 q 388 267 378 210 q 397 403 397 323 q 391 515 397 468 q 374 593 385 562 q 348 638 363 624 q 317 653 333 653 q 289 642 302 653 q 263 614 275 631 q 240 576 250 597 q 221 534 229 555 q 206 496 212 514 q 197 469 200 479 l 197 347 z "},"":{"ha":668,"x_min":-1,"x_max":636,"o":"m 636 465 q 616 274 636 355 q 563 137 595 194 q 489 45 530 81 q 408 -9 448 10 q 331 -36 368 -28 q 272 -43 295 -43 q 248 -42 267 -43 q 202 -39 229 -41 q 141 -32 175 -37 q 69 -18 106 -27 l 72 399 l 71 399 l -1 399 q 1 436 0 416 q 3 478 3 456 q 2 509 3 492 q -1 541 1 525 q 35 536 16 538 q 74 533 54 534 q 73 583 73 549 q 71 659 72 616 q 68 749 70 702 q 65 841 67 797 q 62 920 64 884 q 58 974 60 955 q 155 978 111 977 q 231 979 199 979 q 372 960 311 979 q 478 906 433 941 q 553 824 523 872 q 602 720 583 777 q 628 598 621 663 q 636 465 636 533 m 336 541 q 334 517 334 537 q 334 472 334 497 q 334 424 334 447 q 336 392 334 401 l 236 396 l 240 75 q 266 68 254 70 q 289 66 277 66 q 367 88 334 66 q 419 158 399 109 q 450 288 440 208 q 460 486 460 368 q 449 682 460 606 q 413 800 437 758 q 349 857 388 842 q 253 872 309 872 l 232 872 l 235 533 q 275 535 256 534 q 307 538 294 536 q 336 541 323 539 z "},"":{"ha":590,"x_min":31,"x_max":555,"o":"m 447 1078 q 450 1065 447 1075 q 457 1042 452 1055 q 467 1013 461 1029 q 477 982 472 997 q 488 956 483 968 q 496 937 493 943 q 460 927 477 931 q 429 918 444 922 q 499 771 473 843 q 537 638 524 699 q 552 534 549 578 q 555 471 555 490 l 555 468 q 550 347 555 408 q 531 229 544 286 q 497 124 518 173 q 447 39 477 75 q 378 -18 417 3 q 288 -39 338 -39 q 172 -9 220 -39 q 92 72 123 20 q 45 196 60 124 q 31 353 31 268 q 48 533 31 451 q 100 674 66 615 q 185 766 134 733 q 301 799 235 799 q 316 798 309 799 q 330 796 323 798 q 283 871 307 838 q 235 854 260 863 q 175 833 209 845 q 156 897 167 862 q 127 966 145 931 q 158 974 143 970 q 191 982 174 978 q 141 1027 164 1008 q 99 1061 117 1047 q 69 1082 81 1074 q 56 1090 58 1089 l 278 1107 q 313 1072 296 1089 q 346 1035 330 1054 q 386 1051 368 1043 q 418 1065 404 1059 q 447 1078 434 1072 m 390 380 q 392 426 391 404 q 393 469 393 448 q 389 562 393 521 q 373 631 384 603 q 347 675 363 660 q 309 690 331 690 q 263 665 284 690 q 226 590 242 639 q 201 471 210 541 q 192 313 192 401 q 197 211 192 256 q 214 134 203 165 q 240 86 224 102 q 278 69 256 69 q 323 92 304 69 q 355 155 342 114 q 377 253 369 196 q 390 380 385 311 z "},"":{"ha":541,"x_min":-9,"x_max":526,"o":"m 328 596 q 325 571 326 591 q 325 526 325 551 q 325 479 325 503 q 328 447 326 456 q 277 431 300 437 q 235 416 254 424 q 237 221 235 302 q 241 97 239 140 l 244 97 q 348 105 297 97 q 438 123 398 113 q 526 150 485 135 q 526 131 526 142 q 525 106 525 121 q 525 69 525 91 q 525 20 525 47 q 526 -43 525 -7 q 434 -41 477 -41 q 353 -41 391 -41 q 220 -43 275 -41 q 128 -46 165 -45 q 57 -50 86 -48 q 67 62 62 5 q 74 173 71 119 q 79 276 77 227 q 82 364 81 325 l -9 330 q -7 369 -8 348 q -5 411 -5 389 q -9 472 -5 441 q 36 484 12 477 q 83 498 60 491 q 82 573 83 523 q 78 689 81 624 q 70 826 75 753 q 57 966 65 898 l 257 977 q 243 759 248 865 q 236 555 238 653 q 273 571 256 564 q 302 584 290 578 q 328 596 316 591 z "},"":{"ha":345,"x_min":-3,"x_max":335,"o":"m 335 596 q 332 571 332 591 q 332 526 332 551 q 332 479 332 503 q 335 447 332 456 l 227 412 l 227 300 q 227 155 227 232 q 228 -17 227 77 l 74 -14 q 79 174 77 83 q 81 361 81 264 q 41 347 62 355 q -3 330 21 339 q 0 369 -1 348 q 1 411 1 389 q -3 472 1 441 q 38 483 17 477 q 81 496 59 488 q 79 618 80 555 q 77 749 78 681 q 74 891 75 817 q 71 1047 73 966 l 248 1043 q 240 897 243 964 q 234 770 237 830 q 230 656 232 710 q 228 550 229 602 q 271 568 252 559 q 304 583 290 576 q 335 596 321 590 z "},"%":{"ha":920,"x_min":31,"x_max":889,"o":"m 408 676 q 396 576 408 623 q 359 496 383 530 q 299 443 334 463 q 220 424 264 424 q 138 443 174 424 q 79 496 103 463 q 43 576 55 530 q 31 676 31 623 q 43 775 31 729 q 79 854 55 821 q 138 907 102 888 q 220 926 173 926 q 302 907 267 926 q 361 854 338 888 q 396 775 385 821 q 408 676 408 729 m 889 304 q 876 205 889 251 q 839 124 863 159 q 780 71 815 90 q 700 52 745 52 q 619 71 654 52 q 560 124 584 90 q 524 205 536 159 q 511 304 511 251 q 524 403 511 357 q 559 482 536 448 q 618 535 583 515 q 700 554 654 554 q 783 535 747 554 q 842 482 819 515 q 877 403 865 448 q 889 304 889 357 m 681 864 q 536 540 618 734 q 363 102 455 347 q 328 109 347 106 q 290 114 312 112 q 241 117 267 117 l 225 117 q 286 238 254 172 q 349 375 317 304 q 410 517 380 446 q 466 655 440 589 q 513 779 492 722 q 546 878 534 836 l 681 864 m 285 676 q 281 764 285 729 q 269 819 277 798 q 248 849 260 840 q 220 857 236 857 q 172 814 189 857 q 154 676 154 771 q 158 590 154 625 q 171 534 162 555 q 191 504 179 513 q 220 494 203 494 q 247 503 235 494 q 268 531 259 511 q 280 587 276 552 q 285 676 285 623 m 765 304 q 761 392 765 357 q 749 447 757 427 q 728 476 741 468 q 700 485 716 485 q 652 442 669 485 q 635 304 635 399 q 639 218 635 253 q 651 162 643 183 q 671 131 659 140 q 700 122 684 122 q 727 131 715 122 q 748 160 739 139 q 761 216 756 180 q 765 304 765 251 z "},"":{"ha":313,"x_min":8,"x_max":260,"o":"m 260 437 l 129 428 q 132 465 130 440 q 136 520 134 489 q 140 589 138 552 q 143 664 142 626 q 145 738 144 701 q 147 804 146 774 l 89 734 l 8 804 q 37 834 20 816 q 71 871 55 853 q 111 914 90 892 l 249 918 q 247 852 248 886 q 245 787 245 818 q 249 605 245 690 q 260 437 252 520 z "},"":{"ha":821,"x_min":25,"x_max":782,"o":"m 629 39 q 631 97 631 67 q 632 160 632 127 l 437 160 l 435 214 q 450 236 440 219 q 473 275 460 252 q 501 326 486 298 q 530 382 516 354 q 604 529 564 449 l 743 529 q 741 477 742 503 q 740 426 740 451 q 739 380 739 401 q 739 342 739 358 q 739 328 739 335 q 738 309 739 321 q 738 280 738 298 q 739 233 738 262 l 782 233 l 782 160 l 743 160 q 751 49 745 113 l 629 39 m 637 864 q 493 540 574 734 q 319 102 412 347 q 285 109 304 106 q 247 114 269 112 q 199 117 224 117 l 182 117 q 242 238 211 172 q 306 375 274 304 q 367 517 337 446 q 423 655 397 589 q 470 779 449 722 q 503 878 490 836 l 637 864 m 146 428 q 148 447 146 428 q 151 497 149 466 q 155 568 153 528 q 159 650 157 608 q 162 732 161 692 q 164 804 163 772 l 106 734 l 25 804 q 54 834 37 816 q 87 871 71 853 q 127 914 106 892 l 265 918 q 263 852 264 886 q 262 787 262 818 q 265 605 262 690 q 277 437 268 520 l 146 428 m 632 260 l 632 395 l 557 233 l 632 233 l 632 260 z "},"":{"ha":897,"x_min":25,"x_max":859,"o":"m 846 118 q 846 85 846 110 q 851 25 847 60 q 772 26 808 26 q 705 26 736 26 q 617 26 654 26 q 557 24 581 25 q 511 22 530 23 q 511 25 511 23 q 510 33 510 27 q 513 66 510 45 q 529 113 517 87 q 567 170 542 140 q 633 229 591 199 q 680 265 659 247 q 718 304 702 283 q 744 348 734 324 q 753 399 753 371 q 747 435 753 420 q 730 458 741 450 q 706 470 720 467 q 677 473 692 473 q 665 472 671 473 q 652 468 659 471 q 637 461 644 466 q 648 447 644 454 q 654 433 652 439 q 657 418 657 425 q 651 397 657 406 q 634 382 644 388 q 613 373 625 376 q 590 370 601 370 q 567 372 581 370 q 539 380 553 374 q 515 400 525 387 q 505 436 505 414 q 519 477 505 458 q 556 511 533 496 q 610 533 580 525 q 675 541 641 541 q 741 531 708 541 q 800 502 774 521 q 842 456 826 484 q 859 395 859 429 q 843 320 859 353 q 804 262 827 288 q 753 215 781 236 q 701 175 726 194 q 654 131 670 150 q 629 100 637 113 q 714 104 675 101 q 783 110 754 106 q 829 115 812 113 q 846 118 846 117 m 637 864 q 493 540 574 734 q 319 102 412 347 q 285 109 304 106 q 247 114 269 112 q 199 117 224 117 l 182 117 q 242 238 211 172 q 306 375 274 304 q 367 517 337 446 q 423 655 397 589 q 470 779 449 722 q 503 878 490 836 l 637 864 m 146 428 q 148 447 146 428 q 151 497 149 466 q 155 568 153 528 q 159 650 157 608 q 162 732 161 692 q 164 804 163 772 l 106 734 l 25 804 q 54 834 37 816 q 87 871 71 853 q 127 914 106 892 l 265 918 q 263 852 264 886 q 262 787 262 818 q 265 605 262 690 q 277 437 268 520 l 146 428 z "},"":{"ha":1336,"x_min":31,"x_max":1305,"o":"m 408 676 q 396 576 408 623 q 359 496 383 530 q 299 443 334 463 q 220 424 264 424 q 138 443 174 424 q 79 496 103 463 q 43 576 55 530 q 31 676 31 623 q 43 775 31 729 q 79 854 55 821 q 138 907 102 888 q 220 926 173 926 q 302 907 267 926 q 361 854 338 888 q 396 775 385 821 q 408 676 408 729 m 889 304 q 876 205 889 251 q 839 124 863 159 q 780 71 815 90 q 700 52 745 52 q 619 71 654 52 q 560 124 584 90 q 524 205 536 159 q 511 304 511 251 q 524 403 511 357 q 559 482 536 448 q 618 535 583 515 q 700 554 654 554 q 783 535 747 554 q 842 482 819 515 q 877 403 865 448 q 889 304 889 357 m 1305 304 q 1293 205 1305 251 q 1256 124 1280 159 q 1197 71 1232 90 q 1117 52 1162 52 q 1036 71 1071 52 q 976 124 1000 90 q 940 205 952 159 q 928 304 928 251 q 940 403 928 357 q 976 482 952 448 q 1035 535 1000 515 q 1117 554 1070 554 q 1200 535 1164 554 q 1258 482 1235 515 q 1294 403 1282 448 q 1305 304 1305 357 m 681 864 q 536 540 618 734 q 363 102 455 347 q 328 109 347 106 q 290 114 312 112 q 241 117 267 117 l 225 117 q 286 238 254 172 q 349 375 317 304 q 410 517 380 446 q 466 655 440 589 q 513 779 492 722 q 546 878 534 836 l 681 864 m 285 676 q 281 764 285 729 q 269 819 277 798 q 248 849 260 840 q 220 857 236 857 q 172 814 189 857 q 154 676 154 771 q 158 590 154 625 q 171 534 162 555 q 191 504 179 513 q 220 494 203 494 q 247 503 235 494 q 268 531 259 511 q 280 587 276 552 q 285 676 285 623 m 765 304 q 761 392 765 357 q 749 447 757 427 q 728 476 741 468 q 700 485 716 485 q 652 442 669 485 q 635 304 635 399 q 639 218 635 253 q 651 162 643 183 q 671 131 659 140 q 700 122 684 122 q 727 131 715 122 q 748 160 739 139 q 761 216 756 180 q 765 304 765 251 m 1182 304 q 1178 392 1182 357 q 1166 447 1174 427 q 1145 476 1158 468 q 1117 485 1133 485 q 1069 442 1086 485 q 1051 304 1051 399 q 1055 218 1051 253 q 1068 162 1059 183 q 1088 131 1076 140 q 1117 122 1101 122 q 1144 131 1132 122 q 1165 160 1156 139 q 1178 216 1173 180 q 1182 304 1182 251 z "},"":{"ha":444,"x_min":46,"x_max":399,"o":"m 386 511 q 387 478 386 503 q 392 418 387 454 q 313 419 349 419 q 245 419 276 419 q 157 418 194 419 q 97 417 121 418 q 52 415 70 416 q 51 418 51 416 q 50 427 50 420 q 54 459 50 439 q 70 507 57 480 q 107 563 82 533 q 174 623 132 593 q 220 659 199 640 q 258 697 242 677 q 284 741 275 718 q 293 791 293 764 q 287 828 293 813 q 271 851 281 842 q 247 863 260 859 q 218 867 233 867 q 205 865 212 867 q 192 862 199 864 q 178 854 184 859 q 189 840 184 847 q 195 826 193 833 q 197 811 197 819 q 191 790 197 799 q 175 774 184 781 q 154 765 165 768 q 131 762 142 762 q 108 764 122 762 q 80 773 94 766 q 56 794 66 781 q 46 829 46 807 q 60 871 46 852 q 97 904 73 890 q 151 925 120 918 q 215 933 181 933 q 281 923 248 933 q 340 895 315 913 q 382 849 366 876 q 399 787 399 822 q 384 713 399 745 q 345 654 368 680 q 294 608 321 629 q 241 568 266 587 q 194 524 210 543 q 170 493 178 506 q 255 497 215 494 q 323 503 294 500 q 369 508 353 506 q 386 511 386 511 z "},"":{"ha":433,"x_min":41,"x_max":392,"o":"m 168 707 l 176 707 q 204 709 186 707 q 240 723 222 712 q 271 755 258 734 q 285 814 285 777 q 278 839 285 827 q 260 858 271 850 q 237 870 250 866 q 212 875 224 875 q 199 873 206 874 q 185 869 193 871 q 171 861 178 867 q 182 847 178 854 q 188 834 186 840 q 191 819 191 827 q 184 798 191 807 q 169 783 178 789 q 148 774 159 777 q 126 771 136 771 q 102 773 117 771 q 75 782 88 775 q 51 802 61 789 q 41 838 41 815 q 55 879 41 860 q 92 912 68 898 q 145 934 115 926 q 210 942 176 942 q 275 932 242 942 q 334 904 308 922 q 376 858 359 885 q 392 796 392 831 q 384 752 392 772 q 361 716 375 732 q 329 688 347 700 q 293 669 311 677 q 329 653 311 663 q 361 629 347 643 q 384 597 375 615 q 392 555 392 578 q 376 494 392 521 q 334 448 359 467 q 275 419 308 429 q 210 410 242 410 q 145 417 176 410 q 92 439 115 425 q 55 473 68 454 q 41 514 41 492 q 51 550 41 537 q 75 570 61 564 q 102 579 88 577 q 126 581 117 581 q 148 577 136 581 q 169 568 159 574 q 184 553 178 562 q 191 533 191 545 q 189 519 191 526 q 183 505 187 513 q 172 490 179 497 q 186 482 179 485 q 199 478 194 479 q 212 476 206 476 q 237 480 224 476 q 260 493 250 485 q 278 513 271 502 q 285 539 285 525 q 277 585 285 566 q 257 615 269 604 q 230 633 245 627 q 203 642 216 640 q 180 645 190 645 q 168 646 170 646 l 168 707 z "},"":{"ha":897,"x_min":37,"x_max":864,"o":"m 164 707 l 172 707 q 200 709 182 707 q 236 723 218 712 q 267 755 254 734 q 281 814 281 777 q 274 839 281 827 q 256 858 267 850 q 233 870 245 866 q 208 875 220 875 q 195 873 202 874 q 181 869 189 871 q 167 861 174 867 q 177 847 174 854 q 183 834 181 840 q 186 819 186 827 q 180 798 186 807 q 164 783 174 789 q 144 774 155 777 q 122 771 132 771 q 98 773 113 771 q 71 782 84 775 q 47 802 57 789 q 37 838 37 815 q 51 879 37 860 q 87 912 64 898 q 141 934 111 926 q 205 942 172 942 q 271 932 238 942 q 329 904 303 922 q 371 858 355 885 q 387 796 387 831 q 379 752 387 772 q 356 716 370 732 q 325 688 342 700 q 289 669 307 677 q 325 653 307 663 q 356 629 342 643 q 379 597 370 615 q 387 555 387 578 q 371 494 387 521 q 329 448 355 467 q 271 419 303 429 q 205 410 238 410 q 141 417 172 410 q 87 439 111 425 q 51 473 64 454 q 37 514 37 492 q 47 550 37 537 q 71 570 57 564 q 98 579 84 577 q 122 581 113 581 q 144 577 132 581 q 164 568 155 574 q 180 553 174 562 q 186 533 186 545 q 184 519 186 526 q 179 505 182 513 q 168 490 175 497 q 182 482 175 485 q 195 478 189 479 q 208 476 201 476 q 233 480 220 476 q 256 493 245 485 q 274 513 267 502 q 281 539 281 525 q 273 585 281 566 q 253 615 264 604 q 226 633 241 627 q 199 642 212 640 q 176 645 186 645 q 164 646 166 646 l 164 707 m 711 39 q 713 97 713 67 q 714 160 714 127 l 519 160 l 517 214 q 532 236 522 219 q 555 275 543 252 q 583 326 568 298 q 612 382 598 354 q 686 529 646 449 l 825 529 q 823 477 823 503 q 821 426 822 451 q 821 380 821 401 q 821 342 821 358 q 820 328 821 335 q 820 309 820 321 q 819 280 819 298 q 821 233 819 262 l 864 233 l 864 160 l 825 160 q 833 49 827 113 l 711 39 m 720 864 q 575 540 656 734 q 401 102 494 347 q 367 109 386 106 q 329 114 351 112 q 281 117 307 117 l 264 117 q 325 238 293 172 q 388 375 356 304 q 449 517 419 446 q 505 655 479 589 q 552 779 531 722 q 585 878 572 836 l 720 864 m 714 260 l 714 395 l 639 233 l 714 233 l 714 260 z "},"":{"ha":610,"x_min":32,"x_max":585,"o":"m 583 233 q 548 106 576 157 q 479 25 520 56 q 390 -17 439 -5 q 292 -29 340 -29 q 194 -15 241 -29 q 111 26 146 -1 q 53 96 75 54 q 32 195 32 138 q 45 267 32 238 q 78 314 58 296 q 120 339 98 332 q 161 346 142 346 q 202 340 181 346 q 241 319 223 334 q 270 281 258 305 q 281 221 281 257 q 280 209 281 220 q 272 181 279 197 q 251 152 265 166 q 211 131 237 137 q 255 95 230 107 q 298 83 281 83 q 339 90 316 83 q 381 110 361 96 q 415 149 401 125 q 429 210 429 173 q 415 286 429 252 q 377 344 400 319 q 327 389 355 370 q 272 424 298 408 q 230 448 254 434 q 179 481 205 462 q 127 525 153 500 q 80 582 101 550 q 47 652 60 613 q 35 737 35 690 q 59 860 35 807 q 122 947 83 912 q 211 1000 161 983 q 311 1018 260 1018 q 408 1004 362 1018 q 489 964 454 990 q 545 902 524 938 q 566 821 566 865 q 551 749 566 775 q 515 709 536 722 q 473 691 494 695 q 439 688 452 688 q 405 694 422 688 q 373 712 387 700 q 349 742 358 724 q 339 783 339 760 q 342 813 340 798 q 351 841 345 826 q 367 869 356 856 q 346 884 356 879 q 327 892 336 890 q 307 896 317 895 q 269 889 288 896 q 234 869 250 882 q 208 834 218 855 q 197 786 197 814 q 208 727 197 753 q 239 677 218 701 q 295 627 261 652 q 375 572 328 602 q 470 503 430 538 q 535 432 509 469 q 572 355 560 395 q 585 268 585 315 q 585 251 585 260 q 583 233 585 243 m 479 1295 q 465 1268 473 1284 q 448 1235 456 1253 q 430 1197 439 1217 q 412 1160 421 1178 q 371 1068 392 1116 q 355 1069 364 1069 q 337 1070 348 1070 q 315 1071 327 1071 q 290 1070 303 1071 q 261 1068 276 1069 q 216 1148 239 1108 q 176 1222 197 1183 q 138 1296 155 1261 q 171 1305 155 1301 q 201 1315 186 1310 q 231 1324 216 1319 q 262 1337 246 1330 q 275 1292 267 1320 q 290 1238 282 1265 q 307 1174 298 1207 q 313 1195 307 1179 q 328 1233 319 1211 q 345 1281 336 1255 q 360 1333 354 1308 q 389 1324 376 1329 q 416 1315 402 1320 q 445 1305 430 1310 q 479 1295 460 1299 z "},"":{"ha":536,"x_min":16,"x_max":515,"o":"m 515 611 q 504 558 515 580 q 476 523 492 536 q 442 503 460 509 q 412 497 425 497 q 383 502 400 497 q 351 517 366 506 q 325 548 336 529 q 314 597 314 568 q 320 629 315 614 q 335 657 325 643 q 363 684 345 672 q 338 711 351 701 q 317 725 326 720 q 296 732 305 730 q 258 723 275 732 q 229 701 241 715 q 211 669 217 687 q 204 631 204 650 q 208 585 204 606 q 223 544 211 565 q 260 498 235 523 q 326 441 284 474 q 399 378 368 409 q 451 317 431 347 q 481 257 471 288 q 492 195 492 227 q 487 148 492 173 q 472 96 483 122 q 445 46 462 70 q 402 3 427 22 q 342 -27 376 -16 q 264 -39 308 -39 q 151 -19 197 -39 q 74 29 104 1 q 30 88 43 57 q 16 143 16 119 q 22 190 16 168 q 41 228 28 212 q 75 253 54 244 q 125 262 96 262 q 169 255 149 262 q 204 233 189 248 q 227 197 218 218 q 235 150 235 176 q 230 126 234 138 q 218 104 227 116 q 196 81 210 92 q 215 70 205 73 q 231 64 224 66 q 248 62 239 62 q 268 67 256 62 q 291 83 280 73 q 309 110 302 94 q 317 147 317 125 q 313 187 317 169 q 297 224 309 205 q 263 267 286 243 q 204 322 241 290 q 139 386 168 355 q 91 450 111 416 q 62 519 72 483 q 52 600 52 556 q 69 684 52 644 q 118 756 86 725 q 195 807 150 788 q 297 825 241 825 q 395 808 354 825 q 463 761 437 790 q 503 692 490 731 q 515 611 515 654 m 436 1091 q 421 1065 429 1080 q 405 1031 413 1049 q 387 994 396 1013 q 369 956 378 975 q 328 865 349 913 q 312 866 321 865 q 294 867 304 867 q 272 867 283 867 q 246 867 260 867 q 218 865 233 866 q 173 945 195 905 q 133 1019 154 979 q 94 1093 112 1058 q 127 1102 112 1097 q 158 1111 143 1107 q 188 1121 173 1116 q 219 1134 203 1126 q 231 1089 224 1116 q 246 1035 239 1061 q 264 970 254 1004 q 270 991 264 975 q 284 1030 276 1008 q 302 1078 293 1052 q 317 1130 311 1104 q 346 1121 332 1126 q 373 1112 359 1116 q 401 1101 387 1107 q 436 1091 416 1096 z "},"":{"ha":610,"x_min":-8,"x_max":589,"o":"m 589 966 q 532 809 559 888 q 482 651 506 730 q 435 492 458 572 q 389 332 412 412 q 399 152 393 241 q 414 -28 404 62 l 207 -36 q 220 174 216 70 q 227 383 224 277 q 115 681 174 534 q -8 972 57 827 q 98 977 42 974 q 203 987 155 980 q 226 863 215 925 q 249 738 237 800 q 275 613 261 675 q 306 492 288 551 q 358 737 335 614 q 399 981 381 861 q 589 966 492 968 m 399 1301 q 435 1275 416 1289 q 471 1247 454 1260 q 508 1217 490 1232 l 329 1024 l 265 1071 l 399 1301 z "},"":{"ha":608,"x_min":40,"x_max":570,"o":"m 570 732 q 563 651 566 692 q 558 569 560 610 q 553 490 555 528 q 550 417 551 452 q 545 261 547 336 q 540 103 541 181 q 535 -46 540 24 q 517 -178 530 -117 q 474 -283 504 -239 q 394 -353 444 -328 q 264 -378 343 -378 q 169 -360 204 -378 q 114 -318 133 -343 q 89 -266 95 -294 q 83 -216 83 -238 q 91 -173 83 -193 q 111 -138 98 -153 q 142 -115 123 -123 q 184 -106 161 -106 q 229 -115 210 -106 q 262 -140 249 -125 q 282 -174 275 -155 q 289 -212 289 -193 q 284 -235 288 -223 q 272 -256 281 -244 q 249 -279 264 -268 q 264 -284 257 -283 q 278 -285 271 -285 q 315 -274 296 -285 q 351 -241 334 -264 q 378 -185 367 -219 q 390 -104 389 -151 q 390 -5 390 -54 q 392 103 391 44 q 342 35 369 59 q 292 -1 316 11 q 237 -17 265 -14 q 150 8 187 -17 q 88 79 113 33 q 52 190 64 125 q 40 335 40 255 q 71 758 40 557 l 243 739 q 232 690 237 717 q 223 635 227 664 q 216 578 219 607 q 210 523 213 549 q 200 396 204 460 q 204 284 200 332 q 219 204 208 236 q 248 157 229 173 q 294 142 266 142 q 334 170 315 145 q 351 197 342 181 q 368 237 359 214 q 385 293 377 261 q 400 368 393 326 q 403 465 402 421 q 404 549 404 509 q 402 641 404 597 q 396 734 400 686 l 570 732 m 425 1069 q 461 1042 442 1057 q 497 1015 481 1027 q 534 984 516 1000 l 355 791 l 292 838 l 425 1069 z "},"":{"ha":529,"x_min":22,"x_max":497,"o":"m 494 817 q 422 648 459 735 q 350 472 386 561 q 280 295 314 384 q 215 122 245 207 q 357 125 286 123 q 497 138 429 126 l 496 -29 l 36 -29 l 22 115 q 193 470 113 294 q 339 828 272 646 q 188 819 262 827 q 37 796 113 810 l 35 971 l 494 971 l 494 817 m 432 1255 q 417 1228 425 1244 q 400 1195 409 1213 q 383 1157 392 1177 q 365 1120 374 1138 q 323 1028 345 1076 q 308 1029 317 1029 q 290 1030 300 1030 q 268 1031 279 1031 q 242 1030 256 1031 q 214 1028 229 1029 q 169 1108 191 1068 q 129 1182 150 1143 q 90 1256 108 1221 q 123 1265 108 1261 q 154 1275 139 1270 q 184 1284 169 1279 q 215 1297 199 1290 q 227 1252 220 1280 q 242 1198 235 1225 q 260 1134 250 1167 q 266 1155 260 1139 q 280 1193 272 1171 q 298 1241 289 1215 q 313 1293 307 1267 q 341 1284 328 1289 q 369 1275 355 1280 q 397 1265 382 1270 q 432 1255 412 1259 z "},"":{"ha":513,"x_min":26,"x_max":486,"o":"m 481 619 q 401 493 437 555 q 332 367 364 430 q 273 240 300 304 q 220 111 245 177 q 351 121 285 115 q 482 136 416 127 l 486 -24 q 319 -20 403 -20 q 176 -22 248 -20 q 31 -31 104 -25 l 26 100 q 108 228 70 164 q 179 354 146 291 q 242 482 213 418 q 300 612 272 546 q 171 604 233 611 q 40 583 109 596 l 32 746 q 88 745 60 745 q 144 745 116 745 q 307 748 227 745 q 472 758 387 751 l 481 619 m 431 1025 q 416 998 424 1014 q 399 965 408 983 q 381 927 391 947 q 363 890 372 908 q 322 798 343 846 q 307 800 315 799 q 289 801 299 800 q 267 801 278 801 q 241 800 254 801 q 212 798 227 800 q 168 878 190 838 q 127 952 149 913 q 89 1026 106 991 q 122 1036 106 1031 q 153 1045 138 1040 q 182 1055 168 1049 q 214 1067 197 1060 q 226 1022 218 1050 q 241 968 233 995 q 258 904 249 937 q 264 925 258 909 q 279 963 271 941 q 296 1011 288 985 q 311 1063 305 1038 q 340 1055 327 1059 q 367 1045 353 1050 q 396 1035 381 1040 q 431 1025 411 1029 z "},"":{"ha":640,"x_min":49,"x_max":591,"o":"m 64 81 q 61 185 64 133 q 56 290 59 237 q 51 396 54 342 q 49 504 49 449 q 53 621 49 562 q 67 735 56 680 q 97 839 78 791 q 146 924 116 888 q 221 981 177 960 q 325 1002 265 1002 q 424 984 382 1002 q 495 935 466 966 q 544 861 525 903 q 573 770 562 819 q 587 669 583 722 q 591 564 591 616 q 591 540 591 550 q 590 518 591 530 q 589 490 590 506 q 587 447 588 473 q 584 383 585 421 q 580 290 582 345 q 575 158 578 234 q 570 -18 572 83 l 367 -11 q 388 144 378 66 q 403 289 397 222 q 306 293 351 293 q 262 292 283 293 q 227 290 242 292 q 231 216 229 255 q 237 136 234 176 q 245 57 241 96 q 254 -17 249 18 l 62 -22 q 64 29 64 3 q 64 81 64 55 m 218 433 q 258 432 239 432 q 297 432 278 432 q 414 436 370 432 q 422 533 418 484 q 427 637 427 582 q 402 816 427 755 q 332 878 378 878 q 284 859 306 878 q 247 803 262 841 q 221 706 231 764 q 212 568 212 648 q 214 509 212 541 q 218 433 216 477 m 301 1120 q 295 1093 301 1105 q 280 1070 290 1080 q 257 1055 270 1060 q 229 1049 243 1049 q 201 1055 214 1049 q 178 1070 188 1060 q 162 1093 168 1080 q 157 1120 157 1105 q 162 1148 157 1135 q 178 1171 168 1161 q 201 1186 188 1181 q 229 1192 214 1192 q 257 1186 243 1192 q 280 1171 270 1181 q 295 1148 290 1161 q 301 1120 301 1135 m 484 1120 q 478 1093 484 1105 q 463 1070 473 1080 q 440 1055 453 1060 q 412 1049 427 1049 q 384 1055 397 1049 q 361 1070 371 1060 q 346 1093 351 1080 q 340 1120 340 1105 q 346 1148 340 1135 q 361 1171 351 1161 q 384 1186 371 1181 q 412 1192 397 1192 q 440 1186 427 1192 q 463 1171 453 1181 q 478 1148 473 1161 q 484 1120 484 1135 z "},"":{"ha":640,"x_min":49,"x_max":591,"o":"m 64 81 q 61 185 64 133 q 56 290 59 237 q 51 396 54 342 q 49 504 49 449 q 53 621 49 562 q 67 735 56 680 q 97 839 78 791 q 146 924 116 888 q 221 981 177 960 q 325 1002 265 1002 q 424 984 382 1002 q 495 935 466 966 q 544 861 525 903 q 573 770 562 819 q 587 669 583 722 q 591 564 591 616 q 591 540 591 550 q 590 518 591 530 q 589 490 590 506 q 587 447 588 473 q 584 383 585 421 q 580 290 582 345 q 575 158 578 234 q 570 -18 572 83 l 367 -11 q 388 144 378 66 q 403 289 397 222 q 306 293 351 293 q 262 292 283 293 q 227 290 242 292 q 231 216 229 255 q 237 136 234 176 q 245 57 241 96 q 254 -17 249 18 l 62 -22 q 64 29 64 3 q 64 81 64 55 m 218 433 q 258 432 239 432 q 297 432 278 432 q 414 436 370 432 q 422 533 418 484 q 427 637 427 582 q 402 816 427 755 q 332 878 378 878 q 284 859 306 878 q 247 803 262 841 q 221 706 231 764 q 212 568 212 648 q 214 509 212 541 q 218 433 216 477 m 370 1179 q 355 1214 370 1200 q 319 1228 340 1228 q 286 1214 301 1228 q 271 1179 271 1200 q 275 1161 271 1170 q 286 1146 279 1153 q 301 1136 293 1139 q 319 1132 310 1132 q 355 1146 340 1132 q 370 1179 370 1160 m 452 1179 q 441 1130 452 1153 q 413 1089 431 1107 q 371 1061 395 1072 q 321 1051 347 1051 q 271 1061 295 1051 q 230 1089 248 1072 q 201 1130 212 1107 q 191 1179 191 1153 q 201 1230 191 1206 q 230 1272 212 1254 q 271 1299 248 1289 q 321 1310 295 1310 q 371 1299 347 1310 q 413 1272 395 1289 q 441 1230 431 1254 q 452 1179 452 1206 z "},"":{"ha":646,"x_min":32,"x_max":629,"o":"m 461 -172 q 451 -215 461 -197 q 424 -247 441 -234 q 385 -266 407 -259 q 340 -272 363 -272 q 315 -270 326 -272 q 296 -265 304 -268 q 281 -258 288 -262 l 281 -183 q 291 -189 283 -186 q 306 -194 298 -192 q 322 -196 314 -195 q 335 -197 330 -197 q 362 -192 351 -197 q 374 -167 374 -186 q 369 -152 374 -158 q 358 -142 365 -146 q 343 -137 351 -138 q 328 -135 335 -135 q 308 -136 318 -135 q 289 -140 298 -137 l 326 -39 q 215 9 268 -27 q 121 109 161 45 q 56 266 80 172 q 32 485 32 359 q 46 653 32 579 q 86 783 61 727 q 144 879 111 840 q 216 944 178 919 q 296 980 255 968 q 378 991 338 991 q 482 975 438 991 q 554 931 526 958 q 596 872 583 905 q 610 808 610 840 q 601 752 610 777 q 578 711 593 728 q 545 685 564 694 q 503 676 525 676 q 465 683 484 676 q 431 703 446 690 q 407 734 416 715 q 397 777 397 753 q 401 805 398 790 q 409 833 404 818 q 427 864 415 848 q 405 879 416 873 q 384 888 393 885 q 361 892 372 890 q 314 876 334 892 q 279 830 294 859 q 254 762 264 802 q 238 677 243 723 q 229 580 232 631 q 227 478 227 530 q 235 326 227 401 q 263 192 243 251 q 314 96 282 132 q 393 60 347 60 q 445 76 422 62 q 465 91 455 82 q 482 114 474 100 q 495 146 490 128 q 501 189 500 165 q 475 184 490 184 q 443 192 458 184 q 416 211 428 199 q 396 241 404 224 q 389 279 389 258 q 403 332 389 311 q 437 365 418 353 q 474 382 456 377 q 500 387 492 387 q 517 386 505 387 q 543 378 528 384 q 573 360 557 372 q 601 328 588 348 q 621 277 613 307 q 629 204 629 247 q 606 93 629 140 q 547 15 583 46 q 468 -31 511 -16 q 385 -46 425 -46 l 380 -46 l 372 -83 q 437 -107 412 -83 q 461 -172 461 -132 z "},"":{"ha":551,"x_min":49,"x_max":532,"o":"m 532 -16 q 430 -14 477 -14 q 340 -14 382 -14 q 203 -15 258 -14 q 113 -18 148 -17 q 49 -22 73 -20 q 57 69 54 23 q 64 160 61 115 q 68 246 66 205 q 72 324 71 288 q 75 488 75 410 q 72 654 75 569 q 68 731 71 691 q 64 814 66 772 q 57 898 61 856 q 49 981 54 941 q 200 976 134 977 q 319 974 267 974 q 408 975 371 974 q 469 977 446 976 q 515 981 497 979 q 515 968 515 981 q 516 935 515 956 q 518 887 517 913 q 524 833 520 861 q 386 843 445 841 q 285 846 327 846 q 254 846 267 846 q 229 844 241 846 q 227 703 228 769 q 227 578 227 637 q 311 582 274 579 q 375 587 349 584 q 429 595 406 591 q 429 584 429 590 q 428 571 428 578 q 428 554 428 564 q 429 502 428 532 q 435 437 431 472 q 309 449 361 447 q 227 452 256 452 q 227 326 227 381 q 229 229 228 271 q 231 157 230 186 q 233 107 232 127 q 357 114 302 109 q 448 125 411 119 q 505 136 486 131 q 525 142 525 140 q 524 134 524 138 q 524 125 524 131 q 524 113 524 120 q 525 62 524 94 q 532 -16 526 30 m 382 1299 q 419 1272 399 1286 q 454 1244 438 1257 q 492 1214 473 1230 l 313 1021 l 249 1068 l 382 1299 z "},"":{"ha":697,"x_min":53,"x_max":644,"o":"m 644 996 q 638 881 641 941 q 634 762 636 822 q 632 645 633 703 q 630 536 631 587 q 629 444 629 486 q 629 372 629 401 q 629 288 629 334 q 630 193 629 242 q 632 95 631 144 q 635 3 633 46 q 582 4 606 4 q 538 4 557 4 q 479 3 503 4 q 443 1 456 3 q 418 -1 427 0 q 409 43 416 13 q 393 115 403 73 q 370 206 383 156 q 343 311 357 256 q 313 421 328 365 q 282 530 297 477 q 252 631 267 583 q 225 717 237 679 q 217 556 220 630 q 213 428 214 483 q 211 311 211 364 q 213 215 211 266 q 218 116 214 172 q 229 3 222 60 q 143 5 177 5 q 90 5 110 5 l 57 5 q 62 212 60 127 q 65 354 64 296 q 67 446 66 411 q 67 502 67 480 q 67 536 67 523 q 66 562 66 549 q 66 643 66 596 q 64 744 66 690 q 60 856 63 798 q 53 971 58 914 q 167 972 122 971 q 238 975 212 974 q 286 979 269 977 q 300 911 290 958 q 325 805 311 865 q 358 673 340 744 q 396 531 376 603 q 435 392 415 460 q 472 271 454 325 q 477 388 475 328 q 480 500 479 448 q 481 592 481 553 q 481 646 481 631 q 478 769 480 707 q 476 824 477 795 q 473 881 475 852 q 469 938 471 910 q 464 990 467 966 l 644 996 m 549 1156 q 514 1101 534 1125 q 472 1064 497 1081 q 416 1047 448 1047 q 380 1057 396 1047 q 350 1080 364 1067 q 320 1103 335 1093 q 286 1113 304 1113 q 248 1096 262 1113 q 216 1047 234 1079 l 149 1114 q 170 1159 159 1139 q 195 1194 181 1179 q 227 1217 209 1209 q 271 1225 245 1225 q 318 1216 298 1225 q 353 1196 338 1207 q 382 1176 369 1185 q 410 1167 395 1167 q 443 1178 429 1167 q 469 1203 458 1190 q 490 1239 481 1219 l 549 1156 z "},"":{"ha":700,"x_min":33,"x_max":667,"o":"m 667 486 q 646 283 667 378 q 586 117 626 188 q 487 5 546 46 q 350 -36 427 -36 q 212 5 271 -36 q 113 117 153 46 q 53 283 73 188 q 33 486 33 378 q 53 689 33 594 q 111 854 72 784 q 210 966 151 925 q 350 1007 270 1007 q 493 966 433 1007 q 591 854 553 925 q 648 689 630 784 q 667 486 667 594 m 489 486 q 482 645 489 570 q 459 774 475 719 q 417 861 444 829 q 350 893 390 893 q 285 861 311 893 q 242 774 258 829 q 218 645 226 719 q 211 486 211 570 q 218 327 211 401 q 242 198 226 253 q 286 110 259 142 q 350 78 312 78 q 414 110 387 78 q 457 198 440 142 q 481 327 474 253 q 489 486 489 401 m 330 1109 q 325 1082 330 1095 q 309 1060 319 1069 q 286 1044 299 1050 q 258 1039 273 1039 q 230 1044 243 1039 q 207 1060 217 1050 q 192 1082 197 1069 q 186 1109 186 1095 q 192 1138 186 1124 q 207 1161 197 1151 q 230 1176 217 1171 q 258 1182 243 1182 q 286 1176 273 1182 q 309 1161 299 1171 q 325 1138 319 1151 q 330 1109 330 1124 m 513 1109 q 508 1082 513 1095 q 492 1060 502 1069 q 469 1044 482 1050 q 441 1039 456 1039 q 413 1044 427 1039 q 390 1060 400 1050 q 375 1082 380 1069 q 369 1109 369 1095 q 375 1138 369 1124 q 390 1161 380 1151 q 413 1176 400 1171 q 441 1182 427 1182 q 469 1176 456 1182 q 492 1161 482 1171 q 508 1138 502 1151 q 513 1109 513 1124 z "},"":{"ha":640,"x_min":47,"x_max":590,"o":"m 590 446 q 586 329 590 388 q 572 215 583 270 q 542 112 562 160 q 492 27 523 63 q 418 -30 462 -9 q 315 -50 375 -50 q 216 -32 258 -50 q 144 17 174 -14 q 96 90 115 47 q 66 181 77 132 q 52 282 56 229 q 47 387 47 335 q 48 411 47 401 q 49 433 48 421 q 51 461 50 445 q 53 504 52 478 q 56 569 54 530 q 60 663 58 607 q 65 794 62 718 q 71 970 67 869 l 273 962 q 254 783 263 858 q 239 651 245 708 q 227 551 232 594 q 218 467 221 507 q 213 383 214 426 q 211 285 211 340 q 233 127 211 181 q 309 74 256 74 q 397 143 366 74 q 428 359 428 212 q 416 671 428 521 q 386 968 405 821 l 578 974 q 576 922 576 947 q 576 871 576 897 q 578 733 576 800 q 583 610 581 666 q 588 511 586 554 q 590 446 590 469 m 298 1089 q 293 1062 298 1075 q 277 1039 287 1049 q 254 1024 267 1029 q 226 1019 241 1019 q 198 1024 212 1019 q 175 1039 185 1029 q 160 1062 165 1049 q 154 1089 154 1075 q 160 1117 154 1104 q 175 1140 165 1131 q 198 1156 185 1150 q 226 1162 212 1162 q 254 1156 241 1162 q 277 1140 267 1150 q 293 1117 287 1131 q 298 1089 298 1104 m 481 1089 q 476 1062 481 1075 q 460 1039 470 1049 q 437 1024 450 1029 q 410 1019 424 1019 q 381 1024 395 1019 q 358 1039 368 1029 q 343 1062 349 1049 q 337 1089 337 1075 q 343 1117 337 1104 q 358 1140 349 1131 q 381 1156 368 1150 q 410 1162 395 1162 q 437 1156 424 1162 q 460 1140 450 1150 q 476 1117 470 1131 q 481 1089 481 1104 z "},"":{"ha":559,"x_min":29,"x_max":525,"o":"m 368 -28 q 361 15 364 -7 q 355 60 357 37 q 281 -11 324 14 q 186 -36 237 -36 q 132 -27 159 -36 q 81 2 104 -19 q 44 59 58 23 q 29 151 29 96 q 43 232 29 197 q 78 292 56 266 q 127 336 100 317 q 181 370 154 355 q 232 398 208 385 q 272 424 256 411 q 324 474 302 448 q 359 530 346 501 q 350 607 357 577 q 331 655 342 637 q 303 681 319 673 q 265 688 286 688 q 213 674 234 688 q 178 642 191 661 q 204 618 195 631 q 218 595 213 606 q 224 568 223 582 q 198 498 224 522 q 131 473 172 473 q 92 483 110 473 q 61 511 75 493 q 41 553 48 528 q 33 606 33 577 q 46 666 33 634 q 87 725 59 698 q 161 771 116 753 q 269 789 205 789 q 378 764 333 789 q 453 698 424 739 q 495 604 482 657 q 509 493 509 550 q 508 400 509 450 q 507 297 507 350 q 508 209 507 253 q 511 124 509 165 q 516 46 513 83 q 525 -18 519 10 l 368 -28 m 358 370 q 307 321 334 341 q 263 289 287 307 q 220 252 240 271 q 187 211 200 232 q 174 167 174 189 q 189 115 174 136 q 231 93 203 93 q 275 106 256 93 q 310 140 295 120 q 336 183 326 160 q 353 225 347 206 l 358 370 m 363 1112 q 399 1085 380 1099 q 435 1057 418 1070 q 472 1027 454 1042 l 293 834 l 229 881 l 363 1112 z "},"":{"ha":559,"x_min":29,"x_max":525,"o":"m 368 -28 q 361 15 364 -7 q 355 60 357 37 q 281 -11 324 14 q 186 -36 237 -36 q 132 -27 159 -36 q 81 2 104 -19 q 44 59 58 23 q 29 151 29 96 q 43 232 29 197 q 78 292 56 266 q 127 336 100 317 q 181 370 154 355 q 232 398 208 385 q 272 424 256 411 q 324 474 302 448 q 359 530 346 501 q 350 607 357 577 q 331 655 342 637 q 303 681 319 673 q 265 688 286 688 q 213 674 234 688 q 178 642 191 661 q 204 618 195 631 q 218 595 213 606 q 224 568 223 582 q 198 498 224 522 q 131 473 172 473 q 92 483 110 473 q 61 511 75 493 q 41 553 48 528 q 33 606 33 577 q 46 666 33 634 q 87 725 59 698 q 161 771 116 753 q 269 789 205 789 q 378 764 333 789 q 453 698 424 739 q 495 604 482 657 q 509 493 509 550 q 508 400 509 450 q 507 297 507 350 q 508 209 507 253 q 511 124 509 165 q 516 46 513 83 q 525 -18 519 10 l 368 -28 m 358 370 q 307 321 334 341 q 263 289 287 307 q 220 252 240 271 q 187 211 200 232 q 174 167 174 189 q 189 115 174 136 q 231 93 203 93 q 275 106 256 93 q 310 140 295 120 q 336 183 326 160 q 353 225 347 206 l 358 370 m 290 888 l 227 842 l 47 1034 q 85 1065 66 1050 q 120 1092 101 1078 q 157 1119 140 1107 l 290 888 z "},"":{"ha":559,"x_min":29,"x_max":525,"o":"m 368 -28 q 361 15 364 -7 q 355 60 357 37 q 281 -11 324 14 q 186 -36 237 -36 q 132 -27 159 -36 q 81 2 104 -19 q 44 59 58 23 q 29 151 29 96 q 43 232 29 197 q 78 292 56 266 q 127 336 100 317 q 181 370 154 355 q 232 398 208 385 q 272 424 256 411 q 324 474 302 448 q 359 530 346 501 q 350 607 357 577 q 331 655 342 637 q 303 681 319 673 q 265 688 286 688 q 213 674 234 688 q 178 642 191 661 q 204 618 195 631 q 218 595 213 606 q 224 568 223 582 q 198 498 224 522 q 131 473 172 473 q 92 483 110 473 q 61 511 75 493 q 41 553 48 528 q 33 606 33 577 q 46 666 33 634 q 87 725 59 698 q 161 771 116 753 q 269 789 205 789 q 378 764 333 789 q 453 698 424 739 q 495 604 482 657 q 509 493 509 550 q 508 400 509 450 q 507 297 507 350 q 508 209 507 253 q 511 124 509 165 q 516 46 513 83 q 525 -18 519 10 l 368 -28 m 358 370 q 307 321 334 341 q 263 289 287 307 q 220 252 240 271 q 187 211 200 232 q 174 167 174 189 q 189 115 174 136 q 231 93 203 93 q 275 106 256 93 q 310 140 295 120 q 336 183 326 160 q 353 225 347 206 l 358 370 m 448 876 q 413 865 428 870 q 384 855 398 860 q 357 846 370 850 q 328 837 344 841 q 313 888 322 862 q 296 937 304 915 q 281 976 288 960 q 275 997 275 991 q 258 932 266 964 q 243 878 250 906 q 231 833 235 850 q 199 846 214 840 q 170 856 184 851 q 139 865 155 861 q 106 874 123 869 q 144 948 123 909 q 184 1022 165 987 q 229 1102 207 1062 q 258 1100 244 1101 q 283 1099 271 1099 q 306 1100 295 1099 q 323 1101 316 1100 q 339 1102 332 1101 q 380 1010 360 1054 q 398 973 389 992 q 416 936 408 954 q 433 902 425 918 q 448 876 441 886 z "},"":{"ha":559,"x_min":29,"x_max":525,"o":"m 368 -28 q 361 15 364 -7 q 355 60 357 37 q 281 -11 324 14 q 186 -36 237 -36 q 132 -27 159 -36 q 81 2 104 -19 q 44 59 58 23 q 29 151 29 96 q 43 232 29 197 q 78 292 56 266 q 127 336 100 317 q 181 370 154 355 q 232 398 208 385 q 272 424 256 411 q 324 474 302 448 q 359 530 346 501 q 350 607 357 577 q 331 655 342 637 q 303 681 319 673 q 265 688 286 688 q 213 674 234 688 q 178 642 191 661 q 204 618 195 631 q 218 595 213 606 q 224 568 223 582 q 198 498 224 522 q 131 473 172 473 q 92 483 110 473 q 61 511 75 493 q 41 553 48 528 q 33 606 33 577 q 46 666 33 634 q 87 725 59 698 q 161 771 116 753 q 269 789 205 789 q 378 764 333 789 q 453 698 424 739 q 495 604 482 657 q 509 493 509 550 q 508 400 509 450 q 507 297 507 350 q 508 209 507 253 q 511 124 509 165 q 516 46 513 83 q 525 -18 519 10 l 368 -28 m 358 370 q 307 321 334 341 q 263 289 287 307 q 220 252 240 271 q 187 211 200 232 q 174 167 174 189 q 189 115 174 136 q 231 93 203 93 q 275 106 256 93 q 310 140 295 120 q 336 183 326 160 q 353 225 347 206 l 358 370 m 257 905 q 251 878 257 890 q 236 855 245 865 q 213 840 226 845 q 184 834 199 834 q 157 840 170 834 q 134 855 144 845 q 118 878 124 865 q 113 905 113 890 q 118 933 113 920 q 134 956 124 946 q 157 971 144 966 q 184 977 170 977 q 213 971 199 977 q 236 956 226 966 q 251 933 245 946 q 257 905 257 920 m 440 905 q 434 878 440 890 q 419 855 429 865 q 396 840 409 845 q 368 834 382 834 q 340 840 353 834 q 317 855 327 845 q 301 878 307 865 q 296 905 296 890 q 301 933 296 920 q 317 956 307 946 q 340 971 327 966 q 368 977 353 977 q 396 971 382 977 q 419 956 409 966 q 434 933 429 946 q 440 905 440 920 z "},"":{"ha":559,"x_min":29,"x_max":525,"o":"m 368 -28 q 361 15 364 -7 q 355 60 357 37 q 281 -11 324 14 q 186 -36 237 -36 q 132 -27 159 -36 q 81 2 104 -19 q 44 59 58 23 q 29 151 29 96 q 43 232 29 197 q 78 292 56 266 q 127 336 100 317 q 181 370 154 355 q 232 398 208 385 q 272 424 256 411 q 324 474 302 448 q 359 530 346 501 q 350 607 357 577 q 331 655 342 637 q 303 681 319 673 q 265 688 286 688 q 213 674 234 688 q 178 642 191 661 q 204 618 195 631 q 218 595 213 606 q 224 568 223 582 q 198 498 224 522 q 131 473 172 473 q 92 483 110 473 q 61 511 75 493 q 41 553 48 528 q 33 606 33 577 q 46 666 33 634 q 87 725 59 698 q 161 771 116 753 q 269 789 205 789 q 378 764 333 789 q 453 698 424 739 q 495 604 482 657 q 509 493 509 550 q 508 400 509 450 q 507 297 507 350 q 508 209 507 253 q 511 124 509 165 q 516 46 513 83 q 525 -18 519 10 l 368 -28 m 358 370 q 307 321 334 341 q 263 289 287 307 q 220 252 240 271 q 187 211 200 232 q 174 167 174 189 q 189 115 174 136 q 231 93 203 93 q 275 106 256 93 q 310 140 295 120 q 336 183 326 160 q 353 225 347 206 l 358 370 m 477 949 q 442 895 462 919 q 400 858 425 875 q 345 841 376 841 q 308 851 324 841 q 278 874 292 861 q 248 897 263 886 q 214 907 233 907 q 176 890 191 907 q 144 841 162 873 l 77 908 q 98 953 87 932 q 123 988 109 973 q 155 1011 137 1003 q 199 1019 173 1019 q 246 1010 227 1019 q 281 990 266 1001 q 310 970 297 979 q 338 961 323 961 q 371 972 357 961 q 397 997 386 983 q 418 1033 409 1013 l 477 949 z "},"":{"ha":559,"x_min":29,"x_max":525,"o":"m 368 -28 q 361 15 364 -7 q 355 60 357 37 q 281 -11 324 14 q 186 -36 237 -36 q 132 -27 159 -36 q 81 2 104 -19 q 44 59 58 23 q 29 151 29 96 q 43 232 29 197 q 78 292 56 266 q 127 336 100 317 q 181 370 154 355 q 232 398 208 385 q 272 424 256 411 q 324 474 302 448 q 359 530 346 501 q 350 607 357 577 q 331 655 342 637 q 303 681 319 673 q 265 688 286 688 q 213 674 234 688 q 178 642 191 661 q 204 618 195 631 q 218 595 213 606 q 224 568 223 582 q 198 498 224 522 q 131 473 172 473 q 92 483 110 473 q 61 511 75 493 q 41 553 48 528 q 33 606 33 577 q 46 666 33 634 q 87 725 59 698 q 161 771 116 753 q 269 789 205 789 q 378 764 333 789 q 453 698 424 739 q 495 604 482 657 q 509 493 509 550 q 508 400 509 450 q 507 297 507 350 q 508 209 507 253 q 511 124 509 165 q 516 46 513 83 q 525 -18 519 10 l 368 -28 m 358 370 q 307 321 334 341 q 263 289 287 307 q 220 252 240 271 q 187 211 200 232 q 174 167 174 189 q 189 115 174 136 q 231 93 203 93 q 275 106 256 93 q 310 140 295 120 q 336 183 326 160 q 353 225 347 206 l 358 370 m 315 963 q 301 998 315 984 q 265 1012 286 1012 q 232 998 247 1012 q 217 963 217 984 q 221 945 217 954 q 232 930 225 937 q 247 919 239 923 q 265 916 256 916 q 301 930 286 916 q 315 963 315 944 m 397 963 q 387 913 397 937 q 358 873 376 890 q 317 845 340 855 q 267 835 293 835 q 217 845 241 835 q 175 873 193 855 q 147 913 157 890 q 136 963 136 937 q 147 1014 136 990 q 175 1055 157 1038 q 217 1083 193 1073 q 267 1093 241 1093 q 317 1083 293 1093 q 358 1055 340 1073 q 387 1014 376 1038 q 397 963 397 990 z "},"":{"ha":568,"x_min":31,"x_max":545,"o":"m 386 -172 q 376 -215 386 -197 q 349 -247 366 -234 q 310 -266 332 -259 q 265 -272 288 -272 q 240 -270 251 -272 q 221 -265 229 -268 q 205 -258 212 -262 l 205 -183 q 216 -189 208 -186 q 231 -194 223 -192 q 247 -196 239 -195 q 260 -197 255 -197 q 287 -192 275 -197 q 298 -167 298 -186 q 294 -152 298 -158 q 283 -142 290 -146 q 268 -137 276 -138 q 253 -135 260 -135 q 233 -136 243 -135 q 214 -140 223 -137 l 252 -40 q 170 -4 210 -31 q 99 73 130 22 q 49 201 68 124 q 31 389 31 279 q 43 536 31 473 q 76 645 55 600 q 125 720 98 690 q 185 768 153 750 q 250 792 216 785 q 314 799 283 799 q 402 782 360 799 q 476 734 444 764 q 526 663 507 704 q 545 576 545 623 q 532 502 545 530 q 502 461 519 475 q 467 443 485 447 q 437 439 449 439 q 410 443 426 439 q 378 457 393 446 q 352 489 363 469 q 342 543 342 510 q 349 579 342 562 q 365 610 354 594 q 396 636 376 625 q 371 675 385 662 q 344 696 357 689 q 314 705 329 703 q 269 682 289 705 q 234 617 248 659 q 212 517 220 576 q 204 389 204 459 q 209 258 204 319 q 226 152 214 197 q 257 81 237 107 q 306 56 277 56 q 337 63 321 56 q 366 81 351 68 q 393 117 381 94 q 357 145 370 128 q 339 177 345 161 q 332 215 332 195 q 345 268 332 248 q 375 300 357 288 q 411 316 393 312 q 440 321 429 321 q 469 316 452 321 q 501 298 486 311 q 528 259 517 284 q 539 195 539 235 q 520 113 539 155 q 469 36 501 71 q 395 -21 437 1 q 306 -46 353 -44 l 297 -83 q 361 -107 337 -83 q 386 -172 386 -132 z "},"":{"ha":557,"x_min":31,"x_max":532,"o":"m 532 146 q 513 71 532 106 q 464 9 495 35 q 391 -31 433 -16 q 301 -46 349 -46 q 237 -37 269 -46 q 174 -8 204 -28 q 118 45 144 12 q 72 127 92 79 q 42 240 53 175 q 31 389 31 304 q 42 529 31 468 q 72 635 53 590 q 117 712 92 681 q 173 762 143 743 q 234 789 202 781 q 296 798 265 798 q 382 783 341 798 q 453 740 422 768 q 502 670 484 711 q 519 574 519 628 q 499 475 519 525 q 440 381 479 425 q 343 300 401 336 q 210 243 285 264 q 221 166 214 201 q 241 107 229 132 q 269 69 253 83 q 306 56 285 56 q 332 60 319 56 q 354 71 342 64 q 372 93 365 79 q 345 114 355 101 q 331 138 336 127 q 325 167 326 152 q 338 220 325 199 q 368 252 351 240 q 404 268 386 263 q 433 272 422 272 q 461 267 445 272 q 494 249 478 262 q 520 211 509 235 q 532 146 532 186 m 364 572 q 360 619 364 597 q 347 657 355 641 q 326 683 338 673 q 297 693 313 693 q 252 668 269 693 q 223 600 234 642 q 208 503 212 558 q 204 389 204 448 l 204 339 q 268 382 239 357 q 319 438 298 408 q 352 502 340 468 q 364 572 364 536 m 384 1122 q 420 1095 401 1109 q 456 1067 439 1080 q 493 1037 475 1053 l 314 844 l 250 891 l 384 1122 z "},"":{"ha":557,"x_min":31,"x_max":532,"o":"m 532 146 q 513 71 532 106 q 464 9 495 35 q 391 -31 433 -16 q 301 -46 349 -46 q 237 -37 269 -46 q 174 -8 204 -28 q 118 45 144 12 q 72 127 92 79 q 42 240 53 175 q 31 389 31 304 q 42 529 31 468 q 72 635 53 590 q 117 712 92 681 q 173 762 143 743 q 234 789 202 781 q 296 798 265 798 q 382 783 341 798 q 453 740 422 768 q 502 670 484 711 q 519 574 519 628 q 499 475 519 525 q 440 381 479 425 q 343 300 401 336 q 210 243 285 264 q 221 166 214 201 q 241 107 229 132 q 269 69 253 83 q 306 56 285 56 q 332 60 319 56 q 354 71 342 64 q 372 93 365 79 q 345 114 355 101 q 331 138 336 127 q 325 167 326 152 q 338 220 325 199 q 368 252 351 240 q 404 268 386 263 q 433 272 422 272 q 461 267 445 272 q 494 249 478 262 q 520 211 509 235 q 532 146 532 186 m 364 572 q 360 619 364 597 q 347 657 355 641 q 326 683 338 673 q 297 693 313 693 q 252 668 269 693 q 223 600 234 642 q 208 503 212 558 q 204 389 204 448 l 204 339 q 268 382 239 357 q 319 438 298 408 q 352 502 340 468 q 364 572 364 536 m 319 888 l 256 842 l 77 1034 q 114 1065 95 1050 q 150 1092 130 1078 q 186 1119 169 1107 l 319 888 z "},"":{"ha":557,"x_min":31,"x_max":532,"o":"m 532 146 q 513 71 532 106 q 464 9 495 35 q 391 -31 433 -16 q 301 -46 349 -46 q 237 -37 269 -46 q 174 -8 204 -28 q 118 45 144 12 q 72 127 92 79 q 42 240 53 175 q 31 389 31 304 q 42 529 31 468 q 72 635 53 590 q 117 712 92 681 q 173 762 143 743 q 234 789 202 781 q 296 798 265 798 q 382 783 341 798 q 453 740 422 768 q 502 670 484 711 q 519 574 519 628 q 499 475 519 525 q 440 381 479 425 q 343 300 401 336 q 210 243 285 264 q 221 166 214 201 q 241 107 229 132 q 269 69 253 83 q 306 56 285 56 q 332 60 319 56 q 354 71 342 64 q 372 93 365 79 q 345 114 355 101 q 331 138 336 127 q 325 167 326 152 q 338 220 325 199 q 368 252 351 240 q 404 268 386 263 q 433 272 422 272 q 461 267 445 272 q 494 249 478 262 q 520 211 509 235 q 532 146 532 186 m 364 572 q 360 619 364 597 q 347 657 355 641 q 326 683 338 673 q 297 693 313 693 q 252 668 269 693 q 223 600 234 642 q 208 503 212 558 q 204 389 204 448 l 204 339 q 268 382 239 357 q 319 438 298 408 q 352 502 340 468 q 364 572 364 536 m 452 889 q 417 879 432 884 q 388 869 402 873 q 361 859 374 864 q 332 850 348 854 q 317 902 326 876 q 300 951 309 928 q 286 989 292 973 q 279 1010 279 1005 q 262 946 270 977 q 247 892 254 920 q 235 846 239 864 q 203 859 218 854 q 174 869 189 865 q 143 878 159 874 q 110 888 127 882 q 149 962 127 922 q 189 1036 170 1001 q 233 1116 211 1076 q 262 1114 248 1114 q 288 1113 275 1113 q 310 1113 299 1113 q 328 1114 320 1114 q 343 1116 336 1115 q 385 1024 364 1067 q 402 986 393 1006 q 420 949 412 967 q 437 916 429 931 q 452 889 445 900 z "},"":{"ha":557,"x_min":31,"x_max":532,"o":"m 532 146 q 513 71 532 106 q 464 9 495 35 q 391 -31 433 -16 q 301 -46 349 -46 q 237 -37 269 -46 q 174 -8 204 -28 q 118 45 144 12 q 72 127 92 79 q 42 240 53 175 q 31 389 31 304 q 42 529 31 468 q 72 635 53 590 q 117 712 92 681 q 173 762 143 743 q 234 789 202 781 q 296 798 265 798 q 382 783 341 798 q 453 740 422 768 q 502 670 484 711 q 519 574 519 628 q 499 475 519 525 q 440 381 479 425 q 343 300 401 336 q 210 243 285 264 q 221 166 214 201 q 241 107 229 132 q 269 69 253 83 q 306 56 285 56 q 332 60 319 56 q 354 71 342 64 q 372 93 365 79 q 345 114 355 101 q 331 138 336 127 q 325 167 326 152 q 338 220 325 199 q 368 252 351 240 q 404 268 386 263 q 433 272 422 272 q 461 267 445 272 q 494 249 478 262 q 520 211 509 235 q 532 146 532 186 m 364 572 q 360 619 364 597 q 347 657 355 641 q 326 683 338 673 q 297 693 313 693 q 252 668 269 693 q 223 600 234 642 q 208 503 212 558 q 204 389 204 448 l 204 339 q 268 382 239 357 q 319 438 298 408 q 352 502 340 468 q 364 572 364 536 m 261 916 q 255 889 261 902 q 240 866 250 876 q 217 851 230 857 q 189 846 203 846 q 161 851 174 846 q 138 866 148 857 q 122 889 128 876 q 117 916 117 902 q 122 944 117 931 q 138 967 128 958 q 161 983 148 977 q 189 989 174 989 q 217 983 203 989 q 240 967 230 977 q 255 944 250 958 q 261 916 261 931 m 444 916 q 438 889 444 902 q 423 866 433 876 q 400 851 413 857 q 372 846 387 846 q 344 851 357 846 q 321 866 331 857 q 306 889 311 876 q 300 916 300 902 q 306 944 300 931 q 321 967 311 958 q 344 983 331 977 q 372 989 357 989 q 400 983 387 989 q 423 967 413 977 q 438 944 433 958 q 444 916 444 931 z "},"":{"ha":279,"x_min":40,"x_max":340,"o":"m 240 787 q 223 558 229 671 q 218 330 218 444 q 222 149 218 238 q 232 -31 226 60 l 50 -36 q 58 139 56 52 q 60 314 60 226 q 55 549 60 432 q 40 785 51 667 l 240 787 m 231 1124 q 267 1098 248 1112 q 302 1070 286 1083 q 340 1040 321 1055 l 161 847 l 97 894 l 231 1124 z "},"":{"ha":279,"x_min":-60,"x_max":240,"o":"m 240 787 q 223 558 229 671 q 218 330 218 444 q 222 149 218 238 q 232 -31 226 60 l 50 -36 q 58 139 56 52 q 60 314 60 226 q 55 549 60 432 q 40 785 51 667 l 240 787 m 182 888 l 119 842 l -60 1034 q -23 1065 -42 1050 q 13 1092 -7 1078 q 50 1119 32 1107 l 182 888 z "},"":{"ha":279,"x_min":-30,"x_max":312,"o":"m 240 787 q 223 558 229 671 q 218 330 218 444 q 222 149 218 238 q 232 -31 226 60 l 50 -36 q 58 139 56 52 q 60 314 60 226 q 55 549 60 432 q 40 785 51 667 l 240 787 m 312 885 q 277 874 292 880 q 249 865 262 869 q 221 855 235 860 q 193 846 208 850 q 178 898 186 871 q 160 947 169 924 q 146 985 152 969 q 140 1006 140 1001 q 122 942 130 973 q 107 888 115 916 q 95 842 100 860 q 64 855 79 850 q 34 865 49 861 q 3 874 19 870 q -30 884 -12 878 q 9 958 -12 918 q 49 1031 30 997 q 94 1112 71 1072 q 122 1109 109 1110 q 148 1109 136 1109 q 170 1109 159 1109 q 188 1110 180 1109 q 203 1112 197 1111 q 245 1020 224 1063 q 263 982 254 1002 q 280 945 272 963 q 297 911 289 927 q 312 885 305 896 z "},"":{"ha":279,"x_min":-23,"x_max":304,"o":"m 240 787 q 223 558 229 671 q 218 330 218 444 q 222 149 218 238 q 232 -31 226 60 l 50 -36 q 58 139 56 52 q 60 314 60 226 q 55 549 60 432 q 40 785 51 667 l 240 787 m 121 918 q 116 890 121 903 q 100 868 110 878 q 77 852 90 858 q 49 847 64 847 q 21 852 35 847 q -2 868 8 858 q -17 890 -12 878 q -23 918 -23 903 q -17 946 -23 932 q -2 969 -12 959 q 21 984 8 979 q 49 990 35 990 q 77 984 64 990 q 100 969 90 979 q 116 946 110 959 q 121 918 121 932 m 304 918 q 299 890 304 903 q 283 868 293 878 q 260 852 273 858 q 233 847 247 847 q 204 852 218 847 q 181 868 191 858 q 166 890 172 878 q 160 918 160 903 q 166 946 160 932 q 181 969 172 959 q 204 984 191 979 q 233 990 218 990 q 260 984 247 990 q 283 969 273 979 q 299 946 293 959 q 304 918 304 932 z "},"":{"ha":606,"x_min":50,"x_max":567,"o":"m 227 751 l 222 696 q 270 753 245 733 q 317 781 296 772 q 354 789 339 789 q 370 790 368 790 q 457 767 420 790 q 519 700 494 744 q 555 594 543 656 q 567 452 567 531 q 565 333 567 393 q 558 212 564 272 q 545 95 553 152 q 522 -14 536 38 l 364 5 q 389 156 380 86 q 401 278 397 226 q 407 390 406 339 q 403 502 407 454 q 388 582 399 550 q 359 629 378 613 q 313 644 341 644 q 275 617 294 640 q 240 554 258 597 q 208 433 222 511 q 206 329 206 380 q 205 218 205 277 q 205 112 205 169 q 207 -17 205 55 l 53 -14 q 56 133 55 56 q 57 306 57 211 q 56 510 57 400 q 50 754 54 620 l 227 751 m 509 959 q 474 905 494 928 q 432 867 457 884 q 376 850 408 850 q 340 861 356 850 q 310 883 324 871 q 280 906 295 896 q 246 916 264 916 q 208 899 222 916 q 176 850 194 882 l 109 918 q 130 962 119 942 q 155 998 141 983 q 187 1021 169 1013 q 231 1029 205 1029 q 278 1020 258 1029 q 313 1000 298 1010 q 342 980 329 989 q 370 970 355 970 q 403 982 389 970 q 429 1006 418 993 q 450 1042 441 1022 l 509 959 z "},"":{"ha":586,"x_min":31,"x_max":557,"o":"m 288 -39 q 172 -9 220 -39 q 92 72 123 20 q 45 196 60 124 q 31 353 31 268 q 48 533 31 451 q 100 674 66 615 q 185 766 134 733 q 301 799 235 799 q 416 771 368 799 q 495 693 464 743 q 542 573 527 643 q 557 419 557 503 q 552 325 557 376 q 535 223 547 274 q 503 125 523 172 q 454 41 484 78 q 383 -17 424 5 q 288 -39 342 -39 m 393 469 q 389 562 393 521 q 373 631 384 603 q 347 675 363 660 q 309 690 331 690 q 263 665 284 690 q 226 590 242 639 q 201 471 210 541 q 192 313 192 401 q 197 211 192 256 q 214 134 203 165 q 240 86 224 102 q 278 69 256 69 q 317 87 300 69 q 346 136 334 105 q 368 207 359 166 q 382 291 377 247 q 391 382 388 336 q 393 469 393 428 m 417 1124 q 453 1098 434 1112 q 489 1070 473 1083 q 526 1040 508 1055 l 347 847 l 283 894 l 417 1124 z "},"":{"ha":586,"x_min":31,"x_max":557,"o":"m 288 -39 q 172 -9 220 -39 q 92 72 123 20 q 45 196 60 124 q 31 353 31 268 q 48 533 31 451 q 100 674 66 615 q 185 766 134 733 q 301 799 235 799 q 416 771 368 799 q 495 693 464 743 q 542 573 527 643 q 557 419 557 503 q 552 325 557 376 q 535 223 547 274 q 503 125 523 172 q 454 41 484 78 q 383 -17 424 5 q 288 -39 342 -39 m 393 469 q 389 562 393 521 q 373 631 384 603 q 347 675 363 660 q 309 690 331 690 q 263 665 284 690 q 226 590 242 639 q 201 471 210 541 q 192 313 192 401 q 197 211 192 256 q 214 134 203 165 q 240 86 224 102 q 278 69 256 69 q 317 87 300 69 q 346 136 334 105 q 368 207 359 166 q 382 291 377 247 q 391 382 388 336 q 393 469 393 428 m 328 886 l 264 840 l 85 1032 q 122 1063 103 1048 q 158 1090 138 1076 q 195 1117 177 1105 l 328 886 z "},"":{"ha":586,"x_min":31,"x_max":557,"o":"m 288 -39 q 172 -9 220 -39 q 92 72 123 20 q 45 196 60 124 q 31 353 31 268 q 48 533 31 451 q 100 674 66 615 q 185 766 134 733 q 301 799 235 799 q 416 771 368 799 q 495 693 464 743 q 542 573 527 643 q 557 419 557 503 q 552 325 557 376 q 535 223 547 274 q 503 125 523 172 q 454 41 484 78 q 383 -17 424 5 q 288 -39 342 -39 m 393 469 q 389 562 393 521 q 373 631 384 603 q 347 675 363 660 q 309 690 331 690 q 263 665 284 690 q 226 590 242 639 q 201 471 210 541 q 192 313 192 401 q 197 211 192 256 q 214 134 203 165 q 240 86 224 102 q 278 69 256 69 q 317 87 300 69 q 346 136 334 105 q 368 207 359 166 q 382 291 377 247 q 391 382 388 336 q 393 469 393 428 m 464 882 q 429 872 444 877 q 400 862 414 867 q 373 852 387 857 q 345 844 360 848 q 330 895 338 869 q 312 944 321 922 q 298 982 304 966 q 292 1004 292 998 q 274 939 282 970 q 259 885 267 913 q 247 840 252 857 q 216 852 231 847 q 186 863 201 858 q 155 871 171 867 q 122 881 140 876 q 161 955 140 916 q 201 1029 182 994 q 245 1109 223 1069 q 274 1107 260 1107 q 300 1106 288 1106 q 322 1106 311 1106 q 340 1107 332 1107 q 355 1109 349 1108 q 397 1017 376 1061 q 415 980 406 999 q 432 942 424 960 q 449 909 441 924 q 464 882 457 893 z "},"":{"ha":586,"x_min":31,"x_max":557,"o":"m 288 -39 q 172 -9 220 -39 q 92 72 123 20 q 45 196 60 124 q 31 353 31 268 q 48 533 31 451 q 100 674 66 615 q 185 766 134 733 q 301 799 235 799 q 416 771 368 799 q 495 693 464 743 q 542 573 527 643 q 557 419 557 503 q 552 325 557 376 q 535 223 547 274 q 503 125 523 172 q 454 41 484 78 q 383 -17 424 5 q 288 -39 342 -39 m 393 469 q 389 562 393 521 q 373 631 384 603 q 347 675 363 660 q 309 690 331 690 q 263 665 284 690 q 226 590 242 639 q 201 471 210 541 q 192 313 192 401 q 197 211 192 256 q 214 134 203 165 q 240 86 224 102 q 278 69 256 69 q 317 87 300 69 q 346 136 334 105 q 368 207 359 166 q 382 291 377 247 q 391 382 388 336 q 393 469 393 428 m 273 905 q 268 878 273 890 q 252 855 262 865 q 229 840 242 845 q 201 834 216 834 q 173 840 186 834 q 150 855 160 845 q 135 878 140 865 q 129 905 129 890 q 135 933 129 920 q 150 956 140 946 q 173 971 160 966 q 201 977 186 977 q 229 971 216 977 q 252 956 242 966 q 268 933 262 946 q 273 905 273 920 m 456 905 q 451 878 456 890 q 435 855 445 865 q 412 840 425 845 q 385 834 399 834 q 356 840 370 834 q 333 855 343 845 q 318 878 323 865 q 312 905 312 890 q 318 933 312 920 q 333 956 323 946 q 356 971 343 966 q 385 977 370 977 q 412 971 399 977 q 435 956 425 966 q 451 933 445 946 q 456 905 456 920 z "},"":{"ha":586,"x_min":31,"x_max":557,"o":"m 288 -39 q 172 -9 220 -39 q 92 72 123 20 q 45 196 60 124 q 31 353 31 268 q 48 533 31 451 q 100 674 66 615 q 185 766 134 733 q 301 799 235 799 q 416 771 368 799 q 495 693 464 743 q 542 573 527 643 q 557 419 557 503 q 552 325 557 376 q 535 223 547 274 q 503 125 523 172 q 454 41 484 78 q 383 -17 424 5 q 288 -39 342 -39 m 393 469 q 389 562 393 521 q 373 631 384 603 q 347 675 363 660 q 309 690 331 690 q 263 665 284 690 q 226 590 242 639 q 201 471 210 541 q 192 313 192 401 q 197 211 192 256 q 214 134 203 165 q 240 86 224 102 q 278 69 256 69 q 317 87 300 69 q 346 136 334 105 q 368 207 359 166 q 382 291 377 247 q 391 382 388 336 q 393 469 393 428 m 493 945 q 458 890 478 914 q 417 853 441 870 q 361 836 392 836 q 325 846 340 836 q 294 869 309 857 q 264 892 279 882 q 231 902 249 902 q 193 885 207 902 q 161 836 178 868 l 93 903 q 115 948 104 928 q 139 983 125 968 q 171 1006 153 998 q 215 1015 189 1015 q 262 1005 243 1015 q 298 985 282 996 q 327 965 313 975 q 354 956 340 956 q 388 967 373 956 q 413 992 402 979 q 435 1028 425 1008 l 493 945 z "},"":{"ha":606,"x_min":40,"x_max":557,"o":"m 380 -7 q 384 45 382 20 q 387 93 385 70 q 338 31 364 52 q 290 -2 312 9 q 237 -17 263 -14 q 150 8 187 -17 q 88 79 113 33 q 52 190 64 125 q 40 335 40 255 q 47 552 40 447 q 71 758 54 657 l 243 739 q 218 595 227 659 q 205 487 210 532 q 200 396 201 435 q 204 284 200 332 q 219 204 208 236 q 248 157 229 173 q 294 142 266 142 q 333 169 314 145 q 350 195 341 179 q 368 234 359 211 q 385 288 376 257 q 400 361 393 319 q 401 440 401 401 q 401 526 401 480 q 401 633 401 575 q 400 762 401 690 l 554 760 q 549 664 551 708 q 546 582 547 621 q 544 510 545 544 q 543 444 543 476 q 544 349 543 395 q 547 249 545 302 q 552 134 549 197 q 557 -9 554 71 l 380 -7 m 400 1091 q 436 1064 417 1079 q 472 1037 456 1050 q 509 1006 491 1022 l 330 814 l 267 861 l 400 1091 z "},"":{"ha":606,"x_min":40,"x_max":557,"o":"m 380 -7 q 384 45 382 20 q 387 93 385 70 q 338 31 364 52 q 290 -2 312 9 q 237 -17 263 -14 q 150 8 187 -17 q 88 79 113 33 q 52 190 64 125 q 40 335 40 255 q 47 552 40 447 q 71 758 54 657 l 243 739 q 218 595 227 659 q 205 487 210 532 q 200 396 201 435 q 204 284 200 332 q 219 204 208 236 q 248 157 229 173 q 294 142 266 142 q 333 169 314 145 q 350 195 341 179 q 368 234 359 211 q 385 288 376 257 q 400 361 393 319 q 401 440 401 401 q 401 526 401 480 q 401 633 401 575 q 400 762 401 690 l 554 760 q 549 664 551 708 q 546 582 547 621 q 544 510 545 544 q 543 444 543 476 q 544 349 543 395 q 547 249 545 302 q 552 134 549 197 q 557 -9 554 71 l 380 -7 m 354 849 l 290 802 l 111 995 q 149 1025 130 1010 q 184 1053 165 1038 q 221 1080 203 1067 l 354 849 z "},"":{"ha":606,"x_min":40,"x_max":557,"o":"m 380 -7 q 384 45 382 20 q 387 93 385 70 q 338 31 364 52 q 290 -2 312 9 q 237 -17 263 -14 q 150 8 187 -17 q 88 79 113 33 q 52 190 64 125 q 40 335 40 255 q 47 552 40 447 q 71 758 54 657 l 243 739 q 218 595 227 659 q 205 487 210 532 q 200 396 201 435 q 204 284 200 332 q 219 204 208 236 q 248 157 229 173 q 294 142 266 142 q 333 169 314 145 q 350 195 341 179 q 368 234 359 211 q 385 288 376 257 q 400 361 393 319 q 401 440 401 401 q 401 526 401 480 q 401 633 401 575 q 400 762 401 690 l 554 760 q 549 664 551 708 q 546 582 547 621 q 544 510 545 544 q 543 444 543 476 q 544 349 543 395 q 547 249 545 302 q 552 134 549 197 q 557 -9 554 71 l 380 -7 m 469 856 q 435 845 450 850 q 406 836 420 840 q 379 826 392 831 q 350 817 366 821 q 335 869 344 842 q 318 918 326 895 q 303 956 309 940 q 297 977 297 972 q 279 913 288 944 q 264 859 272 886 q 252 813 257 831 q 221 826 236 821 q 191 836 206 831 q 161 845 176 841 q 127 854 145 849 q 166 928 145 889 q 206 1002 187 968 q 251 1082 229 1042 q 279 1080 266 1081 q 305 1080 293 1080 q 327 1080 317 1080 q 345 1081 338 1080 q 361 1082 354 1082 q 402 991 382 1034 q 420 953 411 972 q 438 916 429 934 q 454 882 446 898 q 469 856 463 867 z "},"":{"ha":606,"x_min":40,"x_max":557,"o":"m 380 -7 q 384 45 382 20 q 387 93 385 70 q 338 31 364 52 q 290 -2 312 9 q 237 -17 263 -14 q 150 8 187 -17 q 88 79 113 33 q 52 190 64 125 q 40 335 40 255 q 47 552 40 447 q 71 758 54 657 l 243 739 q 218 595 227 659 q 205 487 210 532 q 200 396 201 435 q 204 284 200 332 q 219 204 208 236 q 248 157 229 173 q 294 142 266 142 q 333 169 314 145 q 350 195 341 179 q 368 234 359 211 q 385 288 376 257 q 400 361 393 319 q 401 440 401 401 q 401 526 401 480 q 401 633 401 575 q 400 762 401 690 l 554 760 q 549 664 551 708 q 546 582 547 621 q 544 510 545 544 q 543 444 543 476 q 544 349 543 395 q 547 249 545 302 q 552 134 549 197 q 557 -9 554 71 l 380 -7 m 279 884 q 274 857 279 869 q 258 834 268 844 q 235 819 248 824 q 207 813 222 813 q 179 819 193 813 q 156 834 166 824 q 141 857 146 844 q 135 884 135 869 q 141 912 135 899 q 156 935 146 925 q 179 950 166 945 q 207 956 193 956 q 235 950 222 956 q 258 935 248 945 q 274 912 268 925 q 279 884 279 899 m 463 884 q 457 857 463 869 q 441 834 451 844 q 418 819 431 824 q 391 813 405 813 q 362 819 376 813 q 339 834 349 824 q 324 857 330 844 q 318 884 318 869 q 324 912 318 899 q 339 935 330 925 q 362 950 349 945 q 391 956 376 956 q 418 950 405 956 q 441 935 431 945 q 457 912 451 925 q 463 884 463 899 z "},"":{"ha":640,"x_min":49,"x_max":591,"o":"m 64 81 q 61 185 64 133 q 56 290 59 237 q 51 396 54 342 q 49 504 49 449 q 53 621 49 562 q 67 735 56 680 q 97 839 78 791 q 146 924 116 888 q 221 981 177 960 q 325 1002 265 1002 q 424 984 382 1002 q 495 935 466 966 q 544 861 525 903 q 573 770 562 819 q 587 669 583 722 q 591 564 591 616 q 591 540 591 550 q 590 518 591 530 q 589 490 590 506 q 587 447 588 473 q 584 383 585 421 q 580 290 582 345 q 575 158 578 234 q 570 -18 572 83 l 367 -11 q 388 144 378 66 q 403 289 397 222 q 306 293 351 293 q 262 292 283 293 q 227 290 242 292 q 231 216 229 255 q 237 136 234 176 q 245 57 241 96 q 254 -17 249 18 l 62 -22 q 64 29 64 3 q 64 81 64 55 m 218 433 q 258 432 239 432 q 297 432 278 432 q 414 436 370 432 q 422 533 418 484 q 427 637 427 582 q 402 816 427 755 q 332 878 378 878 q 284 859 306 878 q 247 803 262 841 q 221 706 231 764 q 212 568 212 648 q 214 509 212 541 q 218 433 216 477 m 353 1087 l 289 1040 l 110 1233 q 147 1263 128 1249 q 183 1291 163 1276 q 220 1318 202 1305 l 353 1087 z "},"":{"ha":640,"x_min":49,"x_max":591,"o":"m 64 81 q 61 185 64 133 q 56 290 59 237 q 51 396 54 342 q 49 504 49 449 q 53 621 49 562 q 67 735 56 680 q 97 839 78 791 q 146 924 116 888 q 221 981 177 960 q 325 1002 265 1002 q 424 984 382 1002 q 495 935 466 966 q 544 861 525 903 q 573 770 562 819 q 587 669 583 722 q 591 564 591 616 q 591 540 591 550 q 590 518 591 530 q 589 490 590 506 q 587 447 588 473 q 584 383 585 421 q 580 290 582 345 q 575 158 578 234 q 570 -18 572 83 l 367 -11 q 388 144 378 66 q 403 289 397 222 q 306 293 351 293 q 262 292 283 293 q 227 290 242 292 q 231 216 229 255 q 237 136 234 176 q 245 57 241 96 q 254 -17 249 18 l 62 -22 q 64 29 64 3 q 64 81 64 55 m 218 433 q 258 432 239 432 q 297 432 278 432 q 414 436 370 432 q 422 533 418 484 q 427 637 427 582 q 402 816 427 755 q 332 878 378 878 q 284 859 306 878 q 247 803 262 841 q 221 706 231 764 q 212 568 212 648 q 214 509 212 541 q 218 433 216 477 m 521 1152 q 486 1097 506 1121 q 445 1060 469 1077 q 389 1043 420 1043 q 352 1053 368 1043 q 322 1076 336 1063 q 292 1099 307 1088 q 258 1109 277 1109 q 220 1092 235 1109 q 189 1043 206 1075 l 121 1110 q 142 1155 132 1135 q 167 1190 153 1175 q 199 1213 181 1205 q 243 1221 217 1221 q 290 1212 271 1221 q 326 1192 310 1203 q 354 1172 341 1181 q 382 1163 368 1163 q 415 1174 401 1163 q 441 1199 430 1185 q 463 1235 453 1215 l 521 1152 z "},"":{"ha":700,"x_min":33,"x_max":667,"o":"m 667 486 q 646 283 667 378 q 586 117 626 188 q 487 5 546 46 q 350 -36 427 -36 q 212 5 271 -36 q 113 117 153 46 q 53 283 73 188 q 33 486 33 378 q 53 689 33 594 q 111 854 72 784 q 210 966 151 925 q 350 1007 270 1007 q 493 966 433 1007 q 591 854 553 925 q 648 689 630 784 q 667 486 667 594 m 489 486 q 482 645 489 570 q 459 774 475 719 q 417 861 444 829 q 350 893 390 893 q 285 861 311 893 q 242 774 258 829 q 218 645 226 719 q 211 486 211 570 q 218 327 211 401 q 242 198 226 253 q 286 110 259 142 q 350 78 312 78 q 414 110 387 78 q 457 198 440 142 q 481 327 474 253 q 489 486 489 401 m 550 1153 q 515 1099 535 1122 q 474 1061 498 1078 q 418 1044 449 1044 q 381 1055 397 1044 q 351 1077 366 1065 q 321 1100 336 1090 q 288 1110 306 1110 q 250 1093 264 1110 q 218 1044 235 1076 l 150 1112 q 172 1156 161 1136 q 196 1192 182 1177 q 228 1215 210 1206 q 272 1223 246 1223 q 319 1214 300 1223 q 355 1194 339 1204 q 384 1174 370 1183 q 411 1164 397 1164 q 445 1176 430 1164 q 470 1200 459 1187 q 492 1236 482 1216 l 550 1153 z "},"":{"ha":608,"x_min":40,"x_max":570,"o":"m 570 732 q 563 651 566 692 q 558 569 560 610 q 553 490 555 528 q 550 417 551 452 q 545 261 547 336 q 540 103 541 181 q 535 -46 540 24 q 517 -178 530 -117 q 474 -283 504 -239 q 394 -353 444 -328 q 264 -378 343 -378 q 169 -360 204 -378 q 114 -318 133 -343 q 89 -266 95 -294 q 83 -216 83 -238 q 91 -173 83 -193 q 111 -138 98 -153 q 142 -115 123 -123 q 184 -106 161 -106 q 229 -115 210 -106 q 262 -140 249 -125 q 282 -174 275 -155 q 289 -212 289 -193 q 284 -235 288 -223 q 272 -256 281 -244 q 249 -279 264 -268 q 264 -284 257 -283 q 278 -285 271 -285 q 315 -274 296 -285 q 351 -241 334 -264 q 378 -185 367 -219 q 390 -104 389 -151 q 390 -5 390 -54 q 392 103 391 44 q 342 35 369 59 q 292 -1 316 11 q 237 -17 265 -14 q 150 8 187 -17 q 88 79 113 33 q 52 190 64 125 q 40 335 40 255 q 71 758 40 557 l 243 739 q 232 690 237 717 q 223 635 227 664 q 216 578 219 607 q 210 523 213 549 q 200 396 204 460 q 204 284 200 332 q 219 204 208 236 q 248 157 229 173 q 294 142 266 142 q 334 170 315 145 q 351 197 342 181 q 368 237 359 214 q 385 293 377 261 q 400 368 393 326 q 403 465 402 421 q 404 549 404 509 q 402 641 404 597 q 396 734 400 686 l 570 732 m 285 884 q 279 857 285 869 q 263 834 273 844 q 240 819 254 824 q 212 813 227 813 q 185 819 198 813 q 162 834 172 824 q 146 857 152 844 q 140 884 140 869 q 146 912 140 899 q 162 935 152 925 q 185 950 172 945 q 212 956 198 956 q 240 950 227 956 q 263 935 254 945 q 279 912 273 925 q 285 884 285 899 m 468 884 q 462 857 468 869 q 447 834 456 844 q 424 819 437 824 q 396 813 410 813 q 368 819 381 813 q 345 834 355 824 q 329 857 335 844 q 323 884 323 869 q 329 912 323 899 q 345 935 335 925 q 368 950 355 945 q 396 956 381 956 q 424 950 410 956 q 447 935 437 945 q 462 912 456 925 q 468 884 468 899 z "},"":{"ha":610,"x_min":-8,"x_max":589,"o":"m 589 966 q 532 809 559 888 q 482 651 506 730 q 435 492 458 572 q 389 332 412 412 q 399 152 393 241 q 414 -28 404 62 l 207 -36 q 220 174 216 70 q 227 383 224 277 q 115 681 174 534 q -8 972 57 827 q 98 977 42 974 q 203 987 155 980 q 226 863 215 925 q 249 738 237 800 q 275 613 261 675 q 306 492 288 551 q 358 737 335 614 q 399 981 381 861 q 589 966 492 968 m 286 1109 q 280 1082 286 1095 q 265 1060 275 1069 q 242 1044 255 1050 q 214 1039 229 1039 q 186 1044 199 1039 q 163 1060 173 1050 q 148 1082 153 1069 q 142 1109 142 1095 q 148 1138 142 1124 q 163 1161 153 1151 q 186 1176 173 1171 q 214 1182 199 1182 q 242 1176 229 1182 q 265 1161 255 1171 q 280 1138 275 1151 q 286 1109 286 1124 m 469 1109 q 464 1082 469 1095 q 448 1060 458 1069 q 425 1044 438 1050 q 397 1039 412 1039 q 369 1044 382 1039 q 346 1060 356 1050 q 331 1082 336 1069 q 325 1109 325 1095 q 331 1138 325 1124 q 346 1161 336 1151 q 369 1176 356 1171 q 397 1182 382 1182 q 425 1176 412 1182 q 448 1161 438 1171 q 464 1138 458 1151 q 469 1109 469 1124 z "},"":{"ha":640,"x_min":49,"x_max":591,"o":"m 64 81 q 61 185 64 133 q 56 290 59 237 q 51 396 54 342 q 49 504 49 449 q 53 621 49 562 q 67 735 56 680 q 97 839 78 791 q 146 924 116 888 q 221 981 177 960 q 325 1002 265 1002 q 424 984 382 1002 q 495 935 466 966 q 544 861 525 903 q 573 770 562 819 q 587 669 583 722 q 591 564 591 616 q 591 540 591 550 q 590 518 591 530 q 589 490 590 506 q 587 447 588 473 q 584 383 585 421 q 580 290 582 345 q 575 158 578 234 q 570 -18 572 83 l 367 -11 q 388 144 378 66 q 403 289 397 222 q 306 293 351 293 q 262 292 283 293 q 227 290 242 292 q 231 216 229 255 q 237 136 234 176 q 245 57 241 96 q 254 -17 249 18 l 62 -22 q 64 29 64 3 q 64 81 64 55 m 218 433 q 258 432 239 432 q 297 432 278 432 q 414 436 370 432 q 422 533 418 484 q 427 637 427 582 q 402 816 427 755 q 332 878 378 878 q 284 859 306 878 q 247 803 262 841 q 221 706 231 764 q 212 568 212 648 q 214 509 212 541 q 218 433 216 477 m 492 1072 q 457 1062 472 1067 q 428 1052 442 1057 q 401 1042 414 1047 q 372 1034 388 1038 q 357 1085 366 1059 q 340 1134 349 1112 q 326 1172 332 1156 q 319 1194 319 1188 q 302 1129 310 1160 q 287 1075 294 1103 q 275 1029 279 1047 q 243 1042 258 1037 q 214 1053 229 1048 q 183 1061 199 1057 q 150 1071 168 1065 q 189 1145 168 1105 q 229 1219 210 1184 q 273 1299 251 1259 q 302 1297 288 1297 q 328 1296 315 1296 q 350 1296 339 1296 q 368 1297 360 1297 q 383 1299 376 1298 q 425 1207 404 1251 q 443 1170 433 1189 q 460 1132 452 1150 q 477 1099 469 1114 q 492 1072 485 1083 z "},"":{"ha":551,"x_min":49,"x_max":532,"o":"m 532 -16 q 430 -14 477 -14 q 340 -14 382 -14 q 203 -15 258 -14 q 113 -18 148 -17 q 49 -22 73 -20 q 57 69 54 23 q 64 160 61 115 q 68 246 66 205 q 72 324 71 288 q 75 488 75 410 q 72 654 75 569 q 68 731 71 691 q 64 814 66 772 q 57 898 61 856 q 49 981 54 941 q 200 976 134 977 q 319 974 267 974 q 408 975 371 974 q 469 977 446 976 q 515 981 497 979 q 515 968 515 981 q 516 935 515 956 q 518 887 517 913 q 524 833 520 861 q 386 843 445 841 q 285 846 327 846 q 254 846 267 846 q 229 844 241 846 q 227 703 228 769 q 227 578 227 637 q 311 582 274 579 q 375 587 349 584 q 429 595 406 591 q 429 584 429 590 q 428 571 428 578 q 428 554 428 564 q 429 502 428 532 q 435 437 431 472 q 309 449 361 447 q 227 452 256 452 q 227 326 227 381 q 229 229 228 271 q 231 157 230 186 q 233 107 232 127 q 357 114 302 109 q 448 125 411 119 q 505 136 486 131 q 525 142 525 140 q 524 134 524 138 q 524 125 524 131 q 524 113 524 120 q 525 62 524 94 q 532 -16 526 30 m 461 1058 q 427 1047 441 1053 q 398 1038 412 1042 q 371 1028 384 1033 q 342 1019 357 1023 q 327 1071 336 1044 q 310 1120 318 1097 q 295 1158 301 1142 q 289 1179 289 1174 q 271 1115 279 1146 q 256 1061 264 1088 q 244 1015 249 1033 q 213 1028 228 1023 q 183 1038 198 1034 q 153 1047 168 1043 q 119 1057 137 1051 q 158 1131 137 1091 q 198 1204 179 1170 q 243 1284 220 1244 q 271 1282 258 1283 q 297 1282 285 1282 q 319 1282 309 1282 q 337 1283 330 1282 q 353 1284 346 1284 q 394 1193 374 1236 q 412 1155 403 1175 q 430 1118 421 1136 q 446 1084 438 1100 q 461 1058 454 1069 z "},"":{"ha":640,"x_min":49,"x_max":591,"o":"m 64 81 q 61 185 64 133 q 56 290 59 237 q 51 396 54 342 q 49 504 49 449 q 53 621 49 562 q 67 735 56 680 q 97 839 78 791 q 146 924 116 888 q 221 981 177 960 q 325 1002 265 1002 q 424 984 382 1002 q 495 935 466 966 q 544 861 525 903 q 573 770 562 819 q 587 669 583 722 q 591 564 591 616 q 591 540 591 550 q 590 518 591 530 q 589 490 590 506 q 587 447 588 473 q 584 383 585 421 q 580 290 582 345 q 575 158 578 234 q 570 -18 572 83 l 367 -11 q 388 144 378 66 q 403 289 397 222 q 306 293 351 293 q 262 292 283 293 q 227 290 242 292 q 231 216 229 255 q 237 136 234 176 q 245 57 241 96 q 254 -17 249 18 l 62 -22 q 64 29 64 3 q 64 81 64 55 m 218 433 q 258 432 239 432 q 297 432 278 432 q 414 436 370 432 q 422 533 418 484 q 427 637 427 582 q 402 816 427 755 q 332 878 378 878 q 284 859 306 878 q 247 803 262 841 q 221 706 231 764 q 212 568 212 648 q 214 509 212 541 q 218 433 216 477 m 446 1311 q 483 1284 463 1299 q 518 1257 502 1270 q 555 1226 537 1242 l 376 1034 l 313 1080 l 446 1311 z "},"":{"ha":551,"x_min":49,"x_max":532,"o":"m 532 -16 q 430 -14 477 -14 q 340 -14 382 -14 q 203 -15 258 -14 q 113 -18 148 -17 q 49 -22 73 -20 q 57 69 54 23 q 64 160 61 115 q 68 246 66 205 q 72 324 71 288 q 75 488 75 410 q 72 654 75 569 q 68 731 71 691 q 64 814 66 772 q 57 898 61 856 q 49 981 54 941 q 200 976 134 977 q 319 974 267 974 q 408 975 371 974 q 469 977 446 976 q 515 981 497 979 q 515 968 515 981 q 516 935 515 956 q 518 887 517 913 q 524 833 520 861 q 386 843 445 841 q 285 846 327 846 q 254 846 267 846 q 229 844 241 846 q 227 703 228 769 q 227 578 227 637 q 311 582 274 579 q 375 587 349 584 q 429 595 406 591 q 429 584 429 590 q 428 571 428 578 q 428 554 428 564 q 429 502 428 532 q 435 437 431 472 q 309 449 361 447 q 227 452 256 452 q 227 326 227 381 q 229 229 228 271 q 231 157 230 186 q 233 107 232 127 q 357 114 302 109 q 448 125 411 119 q 505 136 486 131 q 525 142 525 140 q 524 134 524 138 q 524 125 524 131 q 524 113 524 120 q 525 62 524 94 q 532 -16 526 30 m 271 1093 q 265 1066 271 1079 q 249 1043 259 1053 q 226 1028 239 1034 q 198 1023 213 1023 q 171 1028 184 1023 q 148 1043 157 1034 q 132 1066 138 1053 q 126 1093 126 1079 q 132 1121 126 1108 q 148 1144 138 1135 q 171 1160 157 1154 q 198 1166 184 1166 q 226 1160 213 1166 q 249 1144 239 1154 q 265 1121 259 1135 q 271 1093 271 1108 m 454 1093 q 448 1066 454 1079 q 432 1043 442 1053 q 409 1028 422 1034 q 382 1023 396 1023 q 354 1028 367 1023 q 331 1043 340 1034 q 315 1066 321 1053 q 309 1093 309 1079 q 315 1121 309 1108 q 331 1144 321 1135 q 354 1160 340 1154 q 382 1166 367 1166 q 409 1160 396 1166 q 432 1144 422 1154 q 448 1121 442 1135 q 454 1093 454 1108 z "},"":{"ha":551,"x_min":49,"x_max":532,"o":"m 532 -16 q 430 -14 477 -14 q 340 -14 382 -14 q 203 -15 258 -14 q 113 -18 148 -17 q 49 -22 73 -20 q 57 69 54 23 q 64 160 61 115 q 68 246 66 205 q 72 324 71 288 q 75 488 75 410 q 72 654 75 569 q 68 731 71 691 q 64 814 66 772 q 57 898 61 856 q 49 981 54 941 q 200 976 134 977 q 319 974 267 974 q 408 975 371 974 q 469 977 446 976 q 515 981 497 979 q 515 968 515 981 q 516 935 515 956 q 518 887 517 913 q 524 833 520 861 q 386 843 445 841 q 285 846 327 846 q 254 846 267 846 q 229 844 241 846 q 227 703 228 769 q 227 578 227 637 q 311 582 274 579 q 375 587 349 584 q 429 595 406 591 q 429 584 429 590 q 428 571 428 578 q 428 554 428 564 q 429 502 428 532 q 435 437 431 472 q 309 449 361 447 q 227 452 256 452 q 227 326 227 381 q 229 229 228 271 q 231 157 230 186 q 233 107 232 127 q 357 114 302 109 q 448 125 411 119 q 505 136 486 131 q 525 142 525 140 q 524 134 524 138 q 524 125 524 131 q 524 113 524 120 q 525 62 524 94 q 532 -16 526 30 m 333 1061 l 269 1015 l 90 1207 q 127 1238 109 1223 q 163 1265 144 1251 q 200 1292 182 1280 l 333 1061 z "},"":{"ha":290,"x_min":54,"x_max":354,"o":"m 240 -7 l 61 -25 q 63 70 62 20 q 65 168 64 119 q 66 263 66 216 q 67 353 67 311 q 68 547 68 452 q 66 713 67 633 q 64 783 65 747 q 62 853 63 819 q 59 919 60 888 q 54 974 57 949 l 225 982 q 223 896 224 940 q 221 807 222 851 q 220 723 220 764 q 220 647 220 682 q 224 310 220 470 q 240 -7 229 149 m 245 1301 q 281 1275 262 1289 q 317 1247 300 1260 q 354 1217 336 1232 l 175 1024 l 111 1071 l 245 1301 z "},"":{"ha":290,"x_min":-28,"x_max":313,"o":"m 240 -7 l 61 -25 q 63 70 62 20 q 65 168 64 119 q 66 263 66 216 q 67 353 67 311 q 68 547 68 452 q 66 713 67 633 q 64 783 65 747 q 62 853 63 819 q 59 919 60 888 q 54 974 57 949 l 225 982 q 223 896 224 940 q 221 807 222 851 q 220 723 220 764 q 220 647 220 682 q 224 310 220 470 q 240 -7 229 149 m 313 1062 q 279 1052 294 1057 q 250 1042 264 1046 q 223 1032 236 1037 q 194 1023 210 1027 q 179 1075 188 1048 q 162 1124 170 1101 q 147 1162 153 1146 q 141 1183 141 1178 q 123 1119 132 1150 q 109 1065 116 1093 q 96 1019 101 1037 q 65 1032 80 1027 q 35 1042 50 1038 q 5 1051 20 1047 q -28 1061 -11 1055 q 10 1135 -11 1095 q 50 1208 31 1174 q 95 1289 73 1249 q 123 1286 110 1287 q 149 1286 137 1286 q 171 1286 161 1286 q 189 1287 182 1286 q 205 1289 198 1288 q 246 1197 226 1240 q 264 1159 255 1179 q 282 1122 273 1140 q 298 1088 290 1104 q 313 1062 307 1073 z "},"":{"ha":290,"x_min":-16,"x_max":311,"o":"m 240 -7 l 61 -25 q 63 70 62 20 q 65 168 64 119 q 66 263 66 216 q 67 353 67 311 q 68 547 68 452 q 66 713 67 633 q 64 783 65 747 q 62 853 63 819 q 59 919 60 888 q 54 974 57 949 l 225 982 q 223 896 224 940 q 221 807 222 851 q 220 723 220 764 q 220 647 220 682 q 224 310 220 470 q 240 -7 229 149 m 128 1088 q 122 1061 128 1074 q 107 1038 117 1048 q 84 1023 97 1028 q 56 1017 71 1017 q 28 1023 41 1017 q 5 1038 15 1028 q -11 1061 -5 1048 q -16 1088 -16 1074 q -11 1116 -16 1103 q 5 1139 -5 1129 q 28 1155 15 1149 q 56 1160 41 1160 q 84 1155 71 1160 q 107 1139 97 1149 q 122 1116 117 1129 q 128 1088 128 1103 m 311 1088 q 306 1061 311 1074 q 290 1038 300 1048 q 267 1023 280 1028 q 239 1017 254 1017 q 211 1023 224 1017 q 188 1038 198 1028 q 173 1061 178 1048 q 167 1088 167 1074 q 173 1116 167 1103 q 188 1139 178 1129 q 211 1155 198 1149 q 239 1160 224 1160 q 267 1155 254 1160 q 290 1139 280 1149 q 306 1116 300 1129 q 311 1088 311 1103 z "},"":{"ha":290,"x_min":-77,"x_max":240,"o":"m 240 -7 l 61 -25 q 63 70 62 20 q 65 168 64 119 q 66 263 66 216 q 67 353 67 311 q 68 547 68 452 q 66 713 67 633 q 64 783 65 747 q 62 853 63 819 q 59 919 60 888 q 54 974 57 949 l 225 982 q 223 896 224 940 q 221 807 222 851 q 220 723 220 764 q 220 647 220 682 q 224 310 220 470 q 240 -7 229 149 m 165 1069 l 102 1023 l -77 1215 q -40 1246 -59 1231 q -4 1273 -24 1259 q 33 1300 15 1288 l 165 1069 z "},"":{"ha":700,"x_min":33,"x_max":667,"o":"m 667 486 q 646 283 667 378 q 586 117 626 188 q 487 5 546 46 q 350 -36 427 -36 q 212 5 271 -36 q 113 117 153 46 q 53 283 73 188 q 33 486 33 378 q 53 689 33 594 q 111 854 72 784 q 210 966 151 925 q 350 1007 270 1007 q 493 966 433 1007 q 591 854 553 925 q 648 689 630 784 q 667 486 667 594 m 489 486 q 482 645 489 570 q 459 774 475 719 q 417 861 444 829 q 350 893 390 893 q 285 861 311 893 q 242 774 258 829 q 218 645 226 719 q 211 486 211 570 q 218 327 211 401 q 242 198 226 253 q 286 110 259 142 q 350 78 312 78 q 414 110 387 78 q 457 198 440 142 q 481 327 474 253 q 489 486 489 401 m 456 1326 q 492 1300 473 1314 q 528 1272 511 1285 q 565 1242 547 1257 l 386 1049 l 322 1096 l 456 1326 z "}}}
